<?xml version="1.0" standalone="no"?>
<!DOCTYPE svg PUBLIC "-//W3C//DTD SVG 20010904//EN"
 "http://www.w3.org/TR/2001/REC-SVG-20010904/DTD/svg10.dtd">
<svg version="1.0" xmlns="http://www.w3.org/2000/svg"
 width="300.000000pt" height="300.000000pt" viewBox="0 0 300.000000 300.000000"
 preserveAspectRatio="xMidYMid meet">

<g transform="translate(0.000000,300.000000) scale(0.100000,-0.100000)"
fill="#000000" stroke="none">
<path d="M0 1500 l0 -1500 1500 0 1500 0 0 1500 0 1500 -1500 0 -1500 0 0
-1500z m765 1412 c6 -4 11 -23 12 -42 2 -19 7 -36 12 -38 13 -4 2 -40 -15 -46
-8 -3 -14 -12 -14 -21 0 -8 -2 -15 -5 -15 -12 0 -83 85 -75 90 4 3 12 19 16
35 4 17 9 33 11 38 5 9 45 9 58 -1z m348 -99 c-15 -21 -53 -68 -84 -105 -32
-36 -62 -74 -67 -85 -6 -10 -13 -15 -16 -12 -3 3 38 58 91 122 96 117 129 151
76 80z m1644 21 c9 -24 -10 -49 -38 -49 -19 0 -24 6 -25 25 -1 14 0 28 3 33 8
14 54 7 60 -9z m-1442 -32 c2 -18 11 -40 21 -48 11 -9 14 -13 7 -10 -6 4 -18
-1 -27 -9 -8 -9 -36 -19 -61 -24 l-46 -9 2 32 c2 17 11 42 21 55 10 13 18 30
18 38 0 10 9 13 31 11 28 -3 32 -7 34 -36z m421 -64 c10 -31 10 -39 -2 -49 -7
-6 -11 -15 -8 -20 3 -5 -13 -8 -35 -6 -40 2 -41 3 -41 40 0 54 16 79 47 75 20
-2 29 -12 39 -40z m-1292 -24 c3 -9 6 -25 6 -36 0 -25 -33 -21 -38 5 -8 38 19
64 32 31z m466 -73 c15 -15 29 -32 31 -37 2 -5 17 -20 33 -32 23 -17 31 -20
38 -10 5 9 8 7 9 -7 0 -13 3 -15 6 -6 3 7 13 21 22 31 35 37 47 56 43 68 -2 7
1 12 7 12 6 0 11 -7 11 -15 0 -8 4 -15 9 -15 6 0 16 -12 23 -27 19 -39 65 -62
128 -64 73 -1 88 2 94 18 3 8 10 12 15 8 6 -3 22 10 38 30 28 35 43 44 43 25
0 -5 6 -18 14 -27 57 -70 68 -82 74 -81 21 6 82 -15 82 -27 0 -24 20 -17 21 8
0 12 3 16 6 10 11 -29 59 -14 102 32 23 25 45 45 49 45 14 0 30 -16 45 -45 23
-47 65 -84 132 -117 33 -16 92 -55 130 -87 39 -31 80 -64 92 -73 13 -8 20 -18
16 -21 -3 -4 11 -7 33 -8 38 0 38 0 17 -15 -13 -9 -19 -22 -16 -31 5 -12 7
-12 14 -1 7 10 9 9 9 -3 0 -9 6 -22 14 -29 8 -6 17 -21 19 -33 3 -15 5 -10 6
13 2 29 4 32 11 15 7 -17 9 -14 10 15 2 31 4 28 14 -21 7 -37 15 -54 24 -52 6
3 12 -3 12 -12 0 -9 -4 -14 -9 -11 -5 3 -11 -3 -14 -13 -3 -14 -1 -18 9 -14
13 5 26 33 23 49 -4 23 2 26 16 8 13 -17 14 -17 15 -1 0 9 5 17 10 17 13 0 13
-12 0 -44 -7 -21 -6 -26 5 -26 11 0 15 -13 15 -50 0 -49 1 -50 29 -50 37 0 62
10 55 21 -3 5 -1 9 5 9 5 0 11 -5 13 -11 3 -8 22 -7 68 1 36 7 83 14 105 17
21 2 42 6 46 8 3 3 31 7 60 10 51 4 50 4 -21 -13 -41 -10 -85 -24 -97 -30 -13
-7 -23 -8 -23 -3 0 5 -39 0 -87 -11 -49 -11 -99 -22 -113 -25 -61 -11 -70 -14
-65 -22 3 -5 -1 -12 -7 -14 -7 -3 7 -6 32 -7 25 -1 54 -5 65 -9 19 -8 19 -8
-3 -15 -21 -7 -23 -12 -19 -49 3 -23 8 -51 11 -62 2 -11 5 -38 6 -60 l2 -40
12 38 c6 21 18 42 26 47 8 5 14 21 15 37 0 20 6 28 20 31 18 2 18 2 3 -8 -21
-13 -24 -40 -4 -40 7 0 28 -3 45 -6 28 -6 31 -4 24 12 -5 16 -4 17 8 8 23 -19
53 -21 67 -4 12 13 13 13 8 -2 -4 -13 2 -18 27 -21 24 -3 19 -4 -18 -6 -76 -4
-192 -26 -173 -33 9 -4 33 -2 53 3 53 15 61 3 45 -63 -7 -29 -12 -69 -11 -89
1 -45 -32 -112 -47 -97 -18 18 -30 -1 -25 -41 3 -23 1 -41 -6 -45 -6 -4 -11
-18 -11 -31 0 -13 -4 -26 -8 -29 -11 -6 -2 66 10 81 6 8 6 18 0 30 -7 12 -7
24 0 36 7 14 7 18 -2 15 -6 -2 -11 -7 -10 -12 1 -5 -4 -13 -12 -17 -10 -6 -10
-13 -2 -26 8 -13 8 -27 1 -47 -7 -19 -6 -54 2 -110 12 -87 14 -132 6 -124 -11
10 -31 216 -24 242 6 20 4 26 -8 26 -14 0 -13 3 1 24 11 18 12 26 3 29 -16 5
-51 -29 -42 -42 3 -6 2 -11 -3 -11 -16 0 -24 33 -10 42 10 6 9 8 -3 8 -20 0
-33 -26 -18 -36 5 -3 7 -15 3 -27 -5 -18 -4 -20 7 -9 16 14 39 16 39 2 0 -5
-7 -10 -15 -10 -14 0 -19 -12 -16 -32 0 -5 -4 -8 -10 -8 -5 0 -7 -5 -3 -11 4
-7 1 -10 -7 -7 -8 3 -13 13 -11 23 2 10 -1 14 -7 10 -14 -8 -14 20 -1 45 7 13
7 21 0 25 -5 3 -10 16 -11 28 0 21 -1 21 -9 2 -5 -13 -4 -24 4 -30 7 -5 11
-16 8 -24 -3 -10 -6 -10 -12 -1 -4 7 -7 -1 -6 -17 0 -15 -3 -38 -7 -50 -7 -18
-3 -25 24 -38 29 -15 31 -16 26 -1 -4 9 -3 16 2 16 5 0 11 -13 13 -29 l4 -29
-38 25 c-44 30 -73 25 -66 -11 3 -13 -2 -32 -10 -42 -13 -18 -14 -18 -7 4 4
16 2 22 -8 22 -8 0 -21 7 -28 16 -11 13 -11 21 3 45 16 28 16 29 -19 59 -21
19 -39 28 -44 23 -5 -5 -12 -33 -16 -63 -5 -44 -3 -55 11 -66 21 -15 13 -32
-20 -44 -13 -5 -24 -18 -24 -28 0 -9 -7 -28 -16 -40 -8 -12 -22 -35 -30 -50
-9 -17 -14 -21 -14 -10 0 9 11 38 25 65 23 44 25 56 19 116 -5 47 -11 67 -20
67 -9 0 -14 11 -14 30 0 25 -4 30 -25 30 -21 0 -25 -5 -25 -30 l0 -30 -72 1
c-40 1 -63 4 -51 6 19 4 20 7 11 34 -5 16 -14 29 -19 29 -5 0 -9 14 -9 30 0
25 -4 30 -24 30 -14 0 -36 4 -50 10 -21 8 -26 16 -26 45 0 28 -4 35 -20 35
-15 0 -20 7 -20 25 0 15 6 25 14 25 36 0 180 85 229 136 41 41 58 53 77 50 14
-3 68 -7 120 -10 l95 -5 -108 19 c-60 10 -111 21 -114 23 -2 3 2 16 10 29 29
43 50 149 44 218 -15 177 -123 312 -297 370 -55 19 -82 21 -175 18 -100 -3
-116 -7 -173 -36 -78 -39 -88 -46 -157 -110 -31 -29 -63 -68 -70 -86 -9 -20
-28 -41 -46 -50 -40 -20 -40 -20 -33 2 3 9 -3 4 -12 -13 -10 -16 -23 -55 -30
-85 l-13 -55 5 50 c8 69 39 145 81 202 21 26 29 41 18 33 -10 -8 -41 -49 -68
-90 -27 -41 -47 -67 -43 -57 8 25 -9 21 -32 -8 -11 -14 -27 -25 -36 -25 -9 0
-16 -5 -16 -11 0 -6 -7 -9 -15 -6 -8 4 -17 2 -20 -4 -4 -5 -11 -7 -16 -4 -5 4
-14 -5 -21 -19 -6 -14 -17 -26 -25 -26 -8 0 -30 -17 -48 -37 -21 -23 -35 -32
-35 -23 0 13 -1 13 -10 0 -7 -12 -3 -16 18 -21 32 -7 130 -3 153 6 10 4 16 1
16 -8 0 -12 -37 -15 -206 -16 -113 -1 -209 -5 -214 -8 -5 -3 -120 -1 -255 3
-136 5 -230 10 -209 12 20 2 37 7 37 13 0 5 8 9 18 9 14 0 15 2 2 10 -13 8
-12 11 5 24 17 12 17 16 5 31 -12 15 -12 16 5 13 10 -1 20 4 22 12 4 13 3 13
-6 0 -9 -12 -11 -9 -11 15 0 17 -7 40 -15 52 -13 19 -13 21 5 26 11 3 18 2 16
-2 -3 -4 -1 -13 4 -21 6 -9 9 5 8 40 0 31 5 56 11 58 6 2 11 30 11 67 0 35 5
65 10 67 6 2 12 25 14 51 2 27 7 51 10 54 3 4 6 16 6 29 0 12 8 36 18 53 15
28 22 31 58 29 22 -1 46 2 54 7 9 5 11 4 6 -4 -6 -8 -1 -8 18 1 20 8 32 8 51
0 15 -7 25 -8 25 -2 0 13 37 13 45 0 3 -5 12 -10 18 -10 7 0 6 4 -3 10 -13 8
-12 10 3 10 9 0 17 -7 17 -15 0 -8 5 -15 10 -15 6 0 10 8 10 18 0 11 3 13 8 5
5 -8 19 -8 59 0 54 13 97 43 89 63 -4 11 5 20 23 23 2 1 16 -12 31 -28z m-764
-143 l19 -21 -27 18 c-29 18 -34 25 -20 25 5 0 17 -10 28 -22z m1547 -224 c16
-13 36 -24 45 -24 25 0 1 -18 -28 -21 -30 -3 -110 21 -110 33 0 4 -7 8 -16 8
-9 0 -14 6 -11 13 2 6 10 11 16 10 6 -2 11 1 11 5 0 16 65 -1 93 -24z m-1393
-25 c0 -21 -3 -39 -7 -39 -5 0 -8 20 -8 44 0 24 3 42 7 40 5 -3 8 -23 8 -45z
m1544 -20 c33 -14 46 -26 44 -37 -5 -25 -44 -26 -83 -2 -29 18 -33 25 -25 41
13 23 8 23 64 -2z m509 -4 c4 -8 2 -17 -3 -20 -6 -4 -10 3 -10 14 0 25 6 27
13 6z m547 -1 c0 -8 -5 -12 -10 -9 -6 4 -8 11 -5 16 9 14 15 11 15 -7z m-802
-63 c3 -8 -1 -12 -9 -9 -7 2 -15 10 -17 17 -3 8 1 12 9 9 7 -2 15 -10 17 -17z
m506 -40 c-16 -14 -17 -14 -6 0 7 9 10 25 6 35 -5 18 -5 18 6 0 10 -15 9 -21
-6 -35z m86 45 c0 -3 -4 -8 -10 -11 -5 -3 -10 -1 -10 4 0 6 5 11 10 11 6 0 10
-2 10 -4z m-1229 -18 c3 -25 -3 -42 -27 -79 -30 -47 -30 -47 1 -41 14 2 25 0
25 -6 0 -5 -13 -12 -30 -14 -38 -6 -39 11 -5 70 14 24 22 49 19 54 -4 6 -10 5
-15 -3 -4 -7 -12 -10 -16 -5 -4 4 1 14 11 22 24 17 36 18 37 2z m1103 -36 c-4
-15 -8 -30 -8 -34 -1 -3 -4 -10 -8 -14 -12 -11 -10 -44 3 -44 5 0 7 -4 4 -10
-3 -5 -12 -10 -19 -10 -11 0 -12 10 -4 48 5 26 13 55 18 64 6 10 10 26 11 35
0 12 2 13 6 5 3 -7 2 -25 -3 -40z m-28 26 c-1 -7 -8 -24 -15 -37 -7 -13 -15
-45 -17 -70 -2 -25 -4 -53 -4 -61 -2 -28 -19 24 -19 61 -1 22 7 46 19 62 11
14 20 32 20 41 0 9 4 16 9 16 5 0 8 -6 7 -12z m-1146 -17 c0 -11 -9 -40 -20
-66 -17 -39 -17 -46 -5 -41 8 3 15 0 15 -7 0 -7 -9 -13 -20 -14 -25 -2 -25 19
0 72 17 37 17 73 -1 44 -4 -7 -11 -11 -14 -7 -7 7 22 38 36 38 5 0 9 -9 9 -19z
m1098 -16 c-3 -3 -9 2 -12 12 -6 14 -5 15 5 6 7 -7 10 -15 7 -18z m-1363 -155
c3 -5 1 -10 -4 -10 -6 0 -11 5 -11 10 0 6 2 10 4 10 3 0 8 -4 11 -10z m-459
-110 c98 -11 186 -23 194 -25 8 -3 20 -20 26 -39 7 -22 7 -33 1 -29 -6 3 -7 1
-3 -5 4 -7 14 -12 22 -12 8 0 14 -4 14 -10 0 -5 4 -10 10 -10 5 0 7 7 3 15 -3
9 9 1 27 -17 l33 -33 10 30 c10 30 24 45 42 45 6 0 4 -4 -2 -8 -15 -9 -76
-209 -69 -226 2 -6 7 4 11 22 4 17 11 32 15 32 12 0 20 -28 14 -45 -4 -9 0
-15 10 -15 11 0 16 9 16 26 0 14 -4 23 -9 20 -5 -3 -11 6 -14 20 -3 18 -1 24
9 20 17 -7 18 6 2 22 -9 9 -9 12 -1 12 7 0 13 22 16 53 2 28 4 4 5 -55 1 -59
5 -109 10 -111 9 -6 33 19 25 27 -3 3 -2 13 2 23 6 15 10 12 20 -17 12 -34 13
-33 11 33 -1 52 -4 64 -12 52 -14 -19 -24 -19 -24 -1 0 8 8 16 17 18 14 3 17
12 15 46 -2 25 1 42 7 42 7 0 11 -47 11 -140 l0 -140 25 0 c30 0 36 36 8 43
-10 3 1 5 25 6 38 1 42 -1 42 -24 0 -14 4 -25 9 -25 14 0 71 34 71 43 0 4 8 7
17 7 14 0 13 -3 -5 -16 -36 -25 -26 -32 44 -33 l66 -1 -4 43 c-2 35 0 42 17
45 12 2 16 0 9 -5 -6 -4 -15 -38 -18 -75 l-8 -68 -69 0 c-46 0 -68 4 -64 10 4
6 22 9 40 8 35 -2 59 9 34 15 -8 2 -28 9 -45 14 -26 8 -33 7 -42 -7 -6 -10 -9
-26 -8 -36 2 -11 1 -13 -1 -6 -7 19 -23 14 -23 -8 0 -20 1 -20 79 -25 44 -3
54 -13 33 -35 -18 -20 -91 -54 -98 -47 -2 2 5 12 16 22 26 24 25 42 -3 47 -22
4 -23 2 -22 -64 0 -37 3 -68 8 -68 4 0 7 5 7 10 0 6 4 10 10 10 19 0 -2 -29
-31 -40 -17 -8 -43 -34 -64 -68 -33 -52 -33 -56 -19 -84 8 -16 24 -38 35 -49
18 -18 19 -32 17 -222 -1 -111 -1 -273 0 -360 2 -193 0 -206 -36 -199 -26 4
-26 4 -7 -12 20 -15 20 -15 -1 -16 -13 0 -24 8 -27 20 -4 14 -11 18 -30 14
-19 -3 -31 2 -43 18 -11 16 -15 17 -11 6 4 -10 5 -18 3 -18 -3 0 -12 -3 -22
-7 -13 -5 -16 -3 -11 10 3 9 2 17 -3 17 -6 0 -11 -8 -11 -17 -1 -10 -5 4 -11
31 -10 54 4 89 42 101 32 10 25 41 -12 49 l-31 6 6 158 c8 178 8 185 25 204 8
11 8 36 -3 108 -14 93 -13 119 16 269 3 15 17 -58 18 -94 2 -71 19 -18 26 84
4 53 11 103 15 110 4 8 4 25 -1 38 -5 13 -5 23 1 23 4 0 11 -8 13 -17 3 -10 5
-3 6 15 1 30 -13 45 -21 22 -5 -17 -48 19 -48 41 0 11 -7 19 -16 19 -11 0 -15
-6 -11 -20 4 -14 -3 -26 -24 -40 -28 -21 -28 -21 -9 -40 27 -27 25 -40 -7 -40
-28 0 -93 -33 -93 -47 0 -5 7 -17 15 -27 19 -25 19 -28 -5 -54 -30 -32 -47
-27 -55 16 -3 20 -18 49 -33 65 -20 21 -23 30 -14 39 7 7 12 29 12 49 0 37 -1
38 -27 28 -16 -5 -37 -17 -48 -25 -19 -14 -19 -16 -2 -25 24 -14 22 -24 -13
-59 -36 -37 -44 -96 -17 -129 9 -10 11 -97 9 -310 -2 -163 -5 -296 -5 -297 -1
-1 -17 -4 -34 -7 l-33 -7 0 69 c0 55 4 71 20 86 26 23 25 35 -1 35 -21 0 -21
3 -16 73 3 39 11 113 17 162 15 108 7 215 -19 286 -20 51 -20 52 -2 76 20 24
20 27 6 76 -9 32 -6 32 -47 7 -18 -11 -35 -20 -38 -20 -3 0 -5 32 -5 70 0 39
-3 70 -7 70 -5 0 -8 -6 -8 -14 0 -7 -6 -19 -14 -25 -8 -7 -13 -27 -12 -51 1
-22 -1 -40 -6 -40 -4 0 -8 13 -8 29 0 16 -7 34 -15 41 -8 7 -14 20 -13 29 2 9
-4 16 -12 16 -8 0 -16 -7 -16 -15 -1 -8 -2 -23 -3 -32 0 -10 -7 -18 -15 -18
-9 0 -12 11 -10 35 3 42 -12 56 -25 22 -10 -27 -29 -43 -38 -33 -3 3 -1 12 5
19 13 15 6 27 -15 27 -7 0 -13 -10 -14 -22 l0 -23 -11 23 c-12 24 -23 28 -33
12 -5 -8 -11 -7 -21 1 -11 9 -14 9 -14 0 0 -7 -4 -10 -10 -6 -5 3 -7 12 -3 20
3 8 0 15 -6 15 -6 0 -11 -5 -11 -11 0 -8 -13 -9 -40 -5 -29 4 -40 3 -40 -6 0
-10 -2 -10 -9 0 -4 8 -14 13 -22 12 -26 -4 -39 0 -39 11 0 8 4 8 14 0 11 -9
15 -9 18 1 3 7 22 12 44 13 35 0 39 3 42 29 2 18 11 30 24 34 13 3 18 11 15
23 -3 10 0 20 7 23 7 3 5 9 -6 16 -10 6 -18 16 -18 21 0 6 4 8 9 4 11 -6 26
33 17 42 -3 4 -1 12 5 20 6 7 8 13 4 13 -4 0 -2 7 5 15 10 13 9 15 -9 15 -12
0 -21 6 -21 15 0 25 -1 29 -12 43 -7 8 -7 12 2 12 8 0 9 10 5 32 l-7 31 134
-6 c74 -4 215 -16 314 -27z m394 -40 c0 -11 -4 -20 -9 -20 -7 0 -8 17 -2 38 4
10 11 -2 11 -18z m-43 -24 c-4 -9 -11 -16 -17 -16 -11 0 -14 33 -3 44 11 10
26 -11 20 -28z m-100 18 c-3 -3 -12 -4 -19 -1 -8 3 -5 6 6 6 11 1 17 -2 13 -5z
m1620 -2 c7 -4 10 -16 8 -27 -2 -11 -4 -26 -4 -32 -1 -7 -5 -13 -10 -13 -4 0
-6 11 -4 24 3 13 0 27 -6 30 -12 8 -15 26 -3 26 4 0 12 -4 19 -8z m133 -6 c0
-10 -7 -12 -22 -8 -21 5 -21 6 -2 13 10 4 20 8 22 8 1 1 2 -5 2 -13z m-1590
-36 c0 -5 -5 -10 -11 -10 -5 0 -7 5 -4 10 3 6 8 10 11 10 2 0 4 -4 4 -10z
m1786 -56 c-3 -9 -6 -18 -6 -20 0 -2 -4 -4 -9 -4 -5 0 -7 9 -4 20 3 11 10 20
15 20 6 0 7 -7 4 -16z m-103 -1 c-7 -2 -21 -2 -30 0 -10 3 -4 5 12 5 17 0 24
-2 18 -5z m-1583 -67 c0 -3 -4 -8 -10 -11 -5 -3 -10 -1 -10 4 0 6 5 11 10 11
6 0 10 -2 10 -4z m110 -21 c0 -8 -8 -15 -19 -15 -10 0 -24 7 -31 15 -11 13 -8
15 19 15 21 0 31 -5 31 -15z m-80 -6 c0 -6 -6 -9 -14 -6 -8 3 -17 0 -20 -8 -4
-10 3 -12 28 -8 22 3 36 0 46 -12 18 -22 -1 -35 -52 -35 -37 0 -38 1 -38 34 0
19 6 37 13 39 21 9 37 7 37 -4z m110 1 c0 -5 -2 -10 -4 -10 -3 0 -8 5 -11 10
-3 6 -1 10 4 10 6 0 11 -4 11 -10z m-249 -27 c-12 -20 -14 -14 -5 12 4 9 9 14
11 11 3 -2 0 -13 -6 -23z m219 -3 c0 -5 -4 -10 -10 -10 -5 0 -10 5 -10 10 0 6
5 10 10 10 6 0 10 -4 10 -10z m30 6 c0 -3 -4 -8 -10 -11 -5 -3 -10 -1 -10 4 0
6 5 11 10 11 6 0 10 -2 10 -4z m217 -18 c-3 -8 -6 -5 -6 6 -1 11 2 17 5 13 3
-3 4 -12 1 -19z m260 0 c-3 -8 -6 -5 -6 6 -1 11 2 17 5 13 3 -3 4 -12 1 -19z
m905 2 c-10 -12 -18 -16 -21 -9 -2 6 3 15 10 20 24 15 29 10 11 -11z m-2638
-96 c3 -8 2 -12 -4 -9 -6 3 -10 10 -10 16 0 14 7 11 14 -7z m2630 -8 c-3 -9
-13 -16 -21 -16 -12 0 -14 -8 -11 -32 3 -20 0 -37 -8 -43 -7 -5 -19 -32 -28
-60 -10 -34 -15 -42 -15 -25 -1 14 8 43 19 65 11 22 20 48 20 60 0 37 12 64
29 68 21 4 23 3 15 -17z m88 2 c-7 -7 -12 -8 -12 -2 0 14 12 26 19 19 2 -3 -1
-11 -7 -17z m-52 3 c0 -6 -4 -13 -10 -16 -5 -3 -10 1 -10 9 0 9 5 16 10 16 6
0 10 -4 10 -9z m30 5 c0 -3 -4 -8 -10 -11 -5 -3 -10 -1 -10 4 0 6 5 11 10 11
6 0 10 -2 10 -4z m77 -2 c-3 -4 -2 -15 4 -25 6 -13 6 -19 -1 -19 -5 0 -10 7
-10 15 0 25 -32 14 -43 -15 -4 -12 -6 -12 -6 2 -1 9 9 24 21 32 22 16 48 22
35 10z m66 -9 c-3 -9 -8 -14 -10 -11 -3 3 -2 9 2 15 9 16 15 13 8 -4z m67 -6
c-7 -11 -14 -18 -17 -15 -3 3 0 12 7 21 18 21 23 19 10 -6z m-100 1 c0 -5 -2
-10 -4 -10 -3 0 -8 5 -11 10 -3 6 -1 10 4 10 6 0 11 -4 11 -10z m-117 -30 c-3
-11 -7 -20 -9 -20 -2 0 -4 9 -4 20 0 11 4 20 9 20 5 0 7 -9 4 -20z m187 -8 c0
-15 -2 -15 -10 -2 -13 20 -13 33 0 25 6 -3 10 -14 10 -23z m-2726 2 c9 -24 2
-26 -12 -4 -7 11 -8 20 -3 20 5 0 12 -7 15 -16z m2498 -16 c-9 -9 -12 -7 -12
12 0 19 3 21 12 12 9 -9 9 -15 0 -24z m170 5 c-3 -16 -7 -22 -10 -15 -4 13 4
42 11 42 2 0 2 -12 -1 -27z m-2617 -1 c-3 -3 -11 0 -18 7 -9 10 -8 11 6 5 10
-3 15 -9 12 -12z m2529 -68 l-15 -39 6 35 c3 19 6 44 6 55 0 17 2 17 9 4 6
-10 4 -30 -6 -55z m-1241 21 c2 -16 7 -38 11 -47 4 -9 6 -25 4 -34 -3 -15 -5
-14 -19 7 -10 16 -14 39 -11 67 5 49 8 50 15 7z m34 29 c-3 -3 -12 -4 -19 -1
-8 3 -5 6 6 6 11 1 17 -2 13 -5z m1168 -16 c-3 -13 -8 -34 -10 -46 -6 -39 -15
-38 -15 1 0 42 8 67 22 67 6 0 7 -9 3 -22z m219 -2 c-6 -16 -24 -23 -24 -8 0
10 22 33 27 28 2 -2 1 -11 -3 -20z m-84 -28 c-5 -18 -13 -49 -19 -68 -10 -33
-10 -32 -5 15 6 62 13 85 24 85 4 0 4 -15 0 -32z m-2610 -13 c0 -8 -2 -15 -4
-15 -2 0 -6 7 -10 15 -3 8 -1 15 4 15 6 0 10 -7 10 -15z m1140 11 c0 -11 -19
-15 -25 -6 -3 5 1 10 9 10 9 0 16 -2 16 -4z m527 -12 c-3 -3 -12 -4 -19 -1 -8
3 -5 6 6 6 11 1 17 -2 13 -5z m1027 -53 c-4 -22 -10 -41 -14 -41 -4 0 -4 17 1
38 5 20 9 41 9 46 0 5 2 7 5 4 3 -3 3 -24 -1 -47z m-2384 -11 c0 -8 -15 -23
-33 -33 l-32 -17 28 25 c21 19 27 31 22 48 -5 17 -4 19 4 7 6 -8 11 -22 11
-30z m902 27 c-5 -7 -8 -25 -6 -41 l3 -29 -16 23 c-20 29 -33 11 -33 -46 l0
-42 34 34 c19 19 42 34 53 34 13 0 10 -5 -13 -19 -36 -22 -64 -58 -64 -82 0
-9 9 -24 20 -34 19 -17 19 -19 4 -37 -26 -28 -46 -24 -32 7 8 19 8 29 -4 47
-10 16 -13 42 -11 88 5 73 20 105 53 107 15 1 19 -1 12 -10z m292 1 c-16 -28
-38 -48 -53 -47 -11 0 -9 4 6 11 13 6 25 19 28 29 4 11 11 19 16 19 6 0 7 -6
3 -12z m911 -18 c-3 -5 -1 -19 5 -30 9 -16 8 -19 -7 -13 -12 5 -15 2 -10 -10
3 -9 2 -17 -4 -17 -7 0 -8 12 -4 33 8 35 13 47 21 47 3 0 2 -4 -1 -10z m-108
-57 c-3 -10 -5 -4 -5 12 0 17 2 24 5 18 2 -7 2 -21 0 -30z m-2141 -45 c6 -32
5 -31 -18 12 -14 25 -23 49 -21 53 8 13 33 -28 39 -65z m1533 68 c-11 -9 -69
-15 -64 -6 3 6 20 10 37 10 17 0 29 -2 27 -4z m951 -37 c0 -11 -5 -19 -11 -19
-5 0 -8 -4 -4 -10 3 -5 2 -22 -2 -37 l-7 -28 -6 25 c-4 14 -2 37 3 53 5 15 6
35 3 44 -5 13 -4 14 9 3 8 -7 15 -21 15 -31z m-1540 -13 c0 -9 -41 8 -52 22
-11 13 -8 12 20 -2 17 -9 32 -18 32 -20z m380 -11 c-7 -8 -17 -15 -23 -15 -6
0 -2 7 9 15 25 19 30 19 14 0z m828 -31 c-3 -27 -4 -26 -9 8 -3 22 -1 34 4 29
5 -5 7 -21 5 -37z m88 19 c-10 -10 -19 5 -10 18 6 11 8 11 12 0 2 -7 1 -15 -2
-18z m-309 -10 c1 -19 -1 -22 -8 -12 -11 17 -12 39 -1 39 4 0 8 -12 9 -27z
m-446 -14 c-9 -22 -10 -22 -10 -3 -1 11 2 24 6 27 12 12 14 0 4 -24z m575 0
c-2 -31 10 -40 16 -11 3 14 5 13 10 -5 5 -18 2 -23 -14 -23 -30 0 -58 19 -58
39 0 22 4 26 28 28 16 1 20 -4 18 -28z m-1483 -26 l5 -42 -25 23 c-25 23 -25
24 -7 43 11 11 20 19 20 19 1 -1 4 -20 7 -43z m694 13 c-3 -8 -11 -34 -18 -58
-7 -25 -14 -36 -16 -26 -6 24 16 98 28 98 6 0 9 -6 6 -14z m993 7 c0 -4 -9
-17 -21 -29 -11 -12 -21 -32 -22 -44 -1 -12 -11 -27 -23 -32 -14 -7 -20 -16
-17 -25 3 -8 1 -18 -6 -22 -9 -6 -8 -11 4 -21 13 -11 15 -8 15 18 0 17 4 33 9
36 11 7 3 -60 -14 -111 -10 -28 -13 -61 -9 -95 3 -29 6 -87 5 -128 -3 -174
-19 -228 -64 -214 -17 5 -19 3 -14 -15 3 -11 1 -21 -4 -21 -5 0 -10 8 -10 18
-1 9 -5 -1 -8 -23 -4 -26 -9 14 -13 115 -5 96 -4 158 2 164 6 6 10 28 10 51 0
34 6 47 34 74 61 59 63 76 20 175 -31 71 -35 89 -24 99 10 10 12 9 7 -5 -8
-24 9 -32 22 -11 6 10 11 12 11 6 0 -23 2 -28 12 -41 8 -9 14 -9 24 -1 8 6 14
16 14 21 0 5 10 23 23 38 21 28 37 37 37 23z m-2241 -41 c1 47 17 43 51 -15
16 -28 24 -53 22 -75 -2 -18 1 -39 8 -47 9 -10 8 -36 -4 -104 -9 -50 -16 -117
-16 -149 0 -47 -4 -59 -21 -70 -12 -8 -18 -9 -15 -4 3 6 0 12 -6 15 -11 3 -11
9 0 26 7 11 8 21 3 21 -5 0 -17 7 -26 17 -14 14 -16 39 -15 177 1 89 1 170 -1
181 -1 11 0 31 1 45 2 19 5 15 10 -15 l7 -40 2 37z m1925 14 c-3 -8 -19 -20
-35 -26 -16 -7 -30 -21 -30 -31 -2 -32 -4 -37 -11 -45 -5 -4 -8 4 -8 17 0 30
26 69 46 69 8 0 17 7 20 15 4 8 10 15 15 15 4 0 6 -6 3 -14z m235 -40 c-9 -8
-10 -7 -5 7 3 10 7 26 7 35 1 9 4 6 6 -7 3 -13 -1 -28 -8 -35z m-1401 -1 c14
-31 15 -35 4 -35 -8 0 -32 43 -32 55 0 15 19 1 28 -20z m169 9 c4 -13 -24 -51
-32 -43 -10 10 6 60 18 56 6 -2 12 -8 14 -13z m544 -17 l-23 -22 17 28 c10 15
20 25 23 22 3 -3 -5 -16 -17 -28z m992 13 c-3 -11 -9 -20 -14 -20 -11 0 -11 3
-3 24 9 23 23 20 17 -4z m-2763 -54 c0 -12 -5 -7 -19 24 -11 24 -11 24 3 6 9
-11 16 -24 16 -30z m2717 7 c-8 -15 -22 -58 -33 -95 -10 -38 -21 -68 -24 -68
-10 0 -3 -60 8 -73 22 -26 39 -104 46 -212 l5 -70 -12 48 c-12 45 -13 47 -30
30 -16 -16 -17 -16 -17 7 0 36 -19 4 -21 -35 -1 -16 -7 11 -15 60 -22 153 -7
420 19 351 4 -10 3 -15 -3 -11 -6 3 -10 1 -10 -4 0 -6 5 -11 11 -11 7 0 9 -11
6 -30 -11 -53 2 -32 22 38 20 65 48 118 58 109 2 -3 -2 -18 -10 -34z m-683
-61 c-4 -26 -7 -49 -7 -52 2 -11 16 -266 16 -280 0 -8 -2 -49 -3 -92 l-3 -76
-28 3 c-36 5 -36 1 1 -42 28 -32 29 -35 13 -51 -12 -12 -18 -13 -21 -4 -2 7
-8 10 -13 6 -13 -8 -11 10 3 24 9 9 9 12 -3 12 -8 0 -20 -5 -26 -11 -12 -12
-18 14 -29 139 -5 65 -4 74 14 90 32 26 45 163 26 264 l-15 78 33 34 c27 29
34 32 41 19 5 -8 6 -36 1 -61z m-568 52 c18 -14 18 -14 -6 -3 -31 14 -36 19
-24 19 6 0 19 -7 30 -16z m213 -36 c-9 -29 -20 -75 -22 -101 -6 -57 -17 -75
-17 -26 1 64 36 179 55 179 1 0 -6 -24 -16 -52z m-467 10 c-7 -7 -12 -8 -12
-2 0 14 12 26 19 19 2 -3 -1 -11 -7 -17z m-1184 -23 c-3 -3 -9 2 -12 12 -6 14
-5 15 5 6 7 -7 10 -15 7 -18z m2122 4 c-7 -11 -10 -26 -8 -32 3 -7 -1 -30 -9
-52 -13 -39 -13 -39 -7 25 7 70 10 80 25 80 6 0 5 -8 -1 -21z m-596 -51 c-1
-18 -7 -112 -13 -208 -7 -96 -14 -187 -17 -202 -3 -15 2 -40 10 -57 17 -31 19
-95 6 -146 -6 -23 -8 -25 -9 -9 0 12 -8 25 -17 28 -10 4 -13 2 -8 -6 5 -8 2
-9 -9 -5 -12 5 -17 1 -17 -12 0 -17 -18 -31 -39 -31 -16 0 12 366 30 385 5 5
10 25 10 45 l1 35 8 -30 c4 -16 9 -25 10 -20 2 6 6 -10 10 -35 7 -42 7 -40 9
25 0 39 4 88 7 110 l6 40 -28 -42 c-15 -23 -30 -40 -33 -38 -2 3 3 13 11 22
38 44 60 115 44 142 -6 9 -5 12 1 8 6 -4 13 2 16 13 8 30 14 24 11 -12z m826
-1 c0 -18 -30 -58 -39 -52 -11 6 21 74 32 68 4 -2 7 -10 7 -16z m-1675 -135
c-2 -107 -20 -280 -31 -290 -12 -12 2 197 15 212 11 13 10 18 -3 31 -12 13
-16 37 -16 103 0 85 1 87 18 64 15 -19 18 -41 17 -120z m-628 92 c-7 -7 -37 7
-37 17 0 6 9 5 21 -1 11 -7 19 -14 16 -16z m545 -91 c6 -112 -4 -292 -14 -253
-26 97 -24 350 2 350 4 0 9 -44 12 -97z m-400 -30 c4 -77 3 -83 -15 -83 -17 0
-18 2 -6 16 7 9 9 18 3 22 -5 4 -8 38 -6 76 5 90 19 72 24 -31z m922 -335 c-2
-40 -7 -86 -12 -103 l-9 -30 -6 30 c-12 53 -37 288 -32 296 3 4 10 43 15 86
19 149 24 144 35 -34 6 -94 10 -204 9 -245z m1017 342 l-9 -45 -1 55 c-1 35 2
51 9 44 6 -6 6 -26 1 -54z m-933 -38 c-8 -32 -7 -46 2 -57 8 -9 18 -85 27
-192 13 -164 13 -181 -3 -215 -34 -76 -53 -5 -55 199 0 62 4 110 12 124 9 17
9 24 0 27 -7 2 -11 37 -11 100 0 96 0 96 20 77 17 -18 18 -25 8 -63z m-1101
46 c-3 -8 -6 -5 -6 6 -1 11 2 17 5 13 3 -3 4 -12 1 -19z m-96 -21 c-8 -8 -11
-7 -11 4 0 20 13 34 18 19 3 -7 -1 -17 -7 -23z m1476 -39 c-3 -7 -5 -2 -5 12
0 14 2 19 5 13 2 -7 2 -19 0 -25z m184 -25 c-9 -16 -10 -15 -11 8 0 14 3 29 8
33 12 12 14 -22 3 -41z m474 -183 c0 -225 -2 -235 -49 -221 -19 5 -19 6 5 9
34 4 37 25 32 250 -2 94 0 172 4 172 5 0 8 -95 8 -210z m-544 109 l-11 -34 5
34 c3 18 6 48 7 65 l1 31 4 -31 c2 -18 -1 -47 -6 -65z m945 -41 c6 -81 6 -84
-15 -84 -25 0 -25 1 -8 18 8 8 10 27 6 53 -5 32 -6 35 -8 11 0 -16 -4 -27 -7
-23 -3 3 -3 39 1 79 9 89 21 69 31 -54z m-2291 82 c4 -6 -7 -10 -25 -10 -18 0
-29 4 -25 10 3 6 15 10 25 10 10 0 22 -4 25 -10z m1435 -21 c0 -6 -4 -7 -10
-4 -5 3 -10 11 -10 16 0 6 5 7 10 4 6 -3 10 -11 10 -16z m-1295 2 c3 -5 1 -12
-4 -15 -5 -3 -11 1 -15 9 -6 16 9 21 19 6z m1275 -122 c-6 -51 -13 -95 -16
-98 -6 -6 -1 52 12 157 3 24 8 42 10 39 2 -2 0 -46 -6 -98z m571 -217 c-7 -12
-10 20 -11 110 0 168 14 198 18 35 1 -73 -2 -135 -7 -145z m-412 197 c6 -27
10 -80 10 -117 l-2 -67 -7 75 c-4 41 -12 93 -19 115 -13 49 -14 58 -2 51 5 -4
14 -29 20 -57z m-1789 15 c0 -2 -13 2 -30 11 -16 9 -30 18 -30 21 0 2 14 -2
30 -11 17 -9 30 -18 30 -21z m1547 4 c-3 -8 -6 -5 -6 6 -1 11 2 17 5 13 3 -3
4 -12 1 -19z m-1150 -33 c27 -27 39 -45 30 -45 -8 0 -25 16 -37 35 -13 22 -34
38 -53 44 -26 7 -28 9 -9 10 15 1 40 -15 69 -44z m178 15 c3 -6 -1 -7 -9 -4
-18 7 -21 14 -7 14 6 0 13 -4 16 -10z m-85 -36 c0 -11 -5 -14 -16 -10 -9 3
-21 6 -27 6 -16 0 14 20 31 20 6 0 12 -7 12 -16z m2185 -36 c5 -55 -12 -77
-48 -60 -21 10 -21 11 6 11 28 1 32 10 27 76 -3 47 10 23 15 -27z m-2202 -15
c-7 -2 -21 -2 -30 0 -10 3 -4 5 12 5 17 0 24 -2 18 -5z m224 -65 c-2 -13 -4
-3 -4 22 0 25 2 35 4 23 2 -13 2 -33 0 -45z m914 -48 c-4 -33 -11 -45 -23 -46
-10 -1 -18 2 -18 7 0 5 7 9 15 9 12 0 15 14 16 63 0 44 3 55 8 37 4 -14 5 -45
2 -70z m-1131 60 c0 -11 7 -20 15 -20 8 0 15 -4 15 -10 0 -14 -6 -13 -46 6
-40 19 -45 44 -9 44 18 0 25 -5 25 -20z m1327 -92 c-3 -8 -6 -5 -6 6 -1 11 2
17 5 13 3 -3 4 -12 1 -19z m-1392 -16 c-3 -3 -11 0 -18 7 -9 10 -8 11 6 5 10
-3 15 -9 12 -12z m75 -29 c12 -12 7 -11 -20 2 -45 22 -52 29 -20 20 14 -4 32
-14 40 -22z m61 -115 c-9 -9 -12 -9 -7 -1 3 6 2 14 -4 18 -5 3 -10 11 -10 18
0 6 7 4 17 -6 14 -14 15 -19 4 -29z"/>
<path d="M909 2413 c4 -16 9 -57 10 -93 1 -36 4 -72 7 -82 3 -9 0 -19 -6 -23
-15 -9 -13 -56 3 -52 7 1 12 -7 11 -20 0 -12 6 -25 13 -27 8 -3 12 -2 9 3 -3
5 1 14 9 21 11 9 12 16 5 25 -6 7 -12 30 -14 51 -13 122 -36 224 -50 224 -3 0
-1 -12 3 -27z"/>
<path d="M2430 2010 c0 -11 5 -20 10 -20 6 0 10 9 10 20 0 11 -4 20 -10 20 -5
0 -10 -9 -10 -20z"/>
<path d="M2404 1950 c0 -11 4 -20 8 -20 4 0 8 9 8 20 0 11 -4 20 -8 20 -4 0
-8 -9 -8 -20z"/>
<path d="M2433 1950 c1 -11 5 -20 9 -20 4 0 8 9 8 20 0 11 -4 20 -9 20 -6 0
-9 -9 -8 -20z"/>
<path d="M2617 1673 c-2 -5 -7 -20 -11 -35 -6 -26 -4 -28 23 -28 24 0 31 6 40
31 6 18 11 34 11 35 0 8 -59 4 -63 -3z"/>
<path d="M2555 1659 c-4 -6 -7 -26 -8 -44 0 -19 -5 -31 -10 -28 -5 3 -8 0 -6
-6 9 -25 24 -9 40 40 13 39 13 49 3 49 -7 0 -16 -5 -19 -11z"/>
<path d="M2586 1574 c-10 -27 -7 -39 6 -26 21 21 38 13 38 -18 0 -22 -6 -33
-22 -40 -21 -8 -21 -9 -3 -10 17 0 17 -2 5 -10 -10 -7 -11 -10 -2 -10 16 0 34
44 37 93 3 34 1 37 -25 37 -16 0 -30 -7 -34 -16z"/>
<path d="M2581 1514 c0 -11 3 -14 6 -6 3 7 2 16 -1 19 -3 4 -6 -2 -5 -13z"/>
<path d="M2362 1340 c0 -14 2 -19 5 -12 2 6 2 18 0 25 -3 6 -5 1 -5 -13z"/>
<path d="M645 1788 c119 -7 153 -13 163 -26 7 -9 12 -11 12 -4 0 7 5 12 10 12
6 0 10 -6 10 -13 0 -8 9 -22 20 -32 l21 -19 -20 45 -20 44 -173 1 -173 2 150
-10z"/>
<path d="M210 1529 c0 -5 5 -7 10 -4 6 3 10 8 10 11 0 2 -4 4 -10 4 -5 0 -10
-5 -10 -11z"/>
<path d="M946 1491 c-4 -7 -5 -15 -2 -18 9 -9 19 4 14 18 -4 11 -6 11 -12 0z"/>
<path d="M980 1479 c0 -11 5 -17 10 -14 6 3 10 13 10 21 0 8 -4 14 -10 14 -5
0 -10 -9 -10 -21z"/>
<path d="M1010 1486 c0 -9 7 -16 16 -16 17 0 14 22 -4 28 -7 2 -12 -3 -12 -12z"/>
<path d="M1050 1479 c0 -25 33 -22 38 4 2 12 -3 17 -17 17 -15 0 -21 -6 -21
-21z"/>
<path d="M1100 1485 c0 -8 5 -15 10 -15 6 0 10 7 10 15 0 8 -4 15 -10 15 -5 0
-10 -7 -10 -15z"/>
<path d="M1200 1478 c0 -12 3 -18 7 -14 11 10 12 36 2 36 -5 0 -9 -10 -9 -22z"/>
<path d="M1264 1456 c-3 -8 -13 -12 -22 -10 -9 1 -96 5 -192 7 -195 5 -150 -7
71 -18 133 -7 137 -7 148 14 7 11 9 21 6 21 -3 0 -8 -6 -11 -14z"/>
<path d="M503 1442 c1 -14 5 -18 11 -12 7 7 6 14 -1 21 -9 9 -12 7 -10 -9z"/>
<path d="M1398 1443 c7 -3 16 -2 19 1 4 3 -2 6 -13 5 -11 0 -14 -3 -6 -6z"/>
<path d="M985 1420 c3 -5 8 -10 11 -10 2 0 4 5 4 10 0 6 -5 10 -11 10 -5 0 -7
-4 -4 -10z"/>
<path d="M1060 1416 c0 -2 7 -6 15 -10 8 -3 15 -1 15 4 0 6 -7 10 -15 10 -8 0
-15 -2 -15 -4z"/>
<path d="M1100 1405 c0 -10 11 -15 35 -15 37 0 47 13 18 24 -9 4 -20 1 -25 -6
-6 -10 -8 -10 -8 0 0 6 -4 12 -10 12 -5 0 -10 -7 -10 -15z"/>
<path d="M1181 1394 c0 -11 3 -14 6 -6 3 7 2 16 -1 19 -3 4 -6 -2 -5 -13z"/>
<path d="M1200 1396 c0 -21 21 -31 31 -15 14 22 11 29 -11 29 -11 0 -20 -6
-20 -14z"/>
<path d="M911 1374 c0 -11 3 -14 6 -6 3 7 2 16 -1 19 -3 4 -6 -2 -5 -13z"/>
<path d="M1005 1370 c3 -5 8 -10 11 -10 2 0 4 5 4 10 0 6 -5 10 -11 10 -5 0
-7 -4 -4 -10z"/>
<path d="M862 1350 c0 -14 2 -19 5 -12 2 6 2 18 0 25 -3 6 -5 1 -5 -13z"/>
<path d="M976 1355 c-9 -26 -7 -32 5 -12 6 10 9 21 6 23 -2 3 -7 -2 -11 -11z"/>
<path d="M1144 1327 c0 -23 -2 -46 -5 -52 -2 -5 0 -12 6 -15 15 -8 27 82 12
97 -9 10 -12 4 -13 -30z"/>
<path d="M585 1350 c-3 -6 1 -7 9 -4 18 7 21 14 7 14 -6 0 -13 -4 -16 -10z"/>
<path d="M1177 1328 c-11 -38 -8 -68 6 -68 16 0 21 57 8 78 -6 10 -10 8 -14
-10z"/>
<path d="M930 1325 c0 -8 5 -15 10 -15 6 0 10 7 10 15 0 8 -4 15 -10 15 -5 0
-10 -7 -10 -15z"/>
<path d="M1217 1324 c-4 -4 -6 -35 -6 -68 1 -34 4 -51 6 -38 2 12 9 20 14 17
10 -7 12 5 9 50 -2 32 -12 49 -23 39z"/>
<path d="M1310 1320 c0 -5 7 -7 15 -4 8 4 15 8 15 10 0 2 -7 4 -15 4 -8 0 -15
-4 -15 -10z"/>
<path d="M1180 1211 c0 -11 4 -22 9 -25 4 -3 6 6 3 19 -5 30 -12 33 -12 6z"/>
<path d="M2480 1134 c0 -8 5 -12 10 -9 6 4 8 11 5 16 -9 14 -15 11 -15 -7z"/>
<path d="M1650 655 c-9 -11 -10 -19 -3 -26 8 -8 13 -5 18 11 9 28 2 35 -15 15z"/>
</g>
</svg>
