<?xml version="1.0" standalone="no"?>
<!DOCTYPE svg PUBLIC "-//W3C//DTD SVG 20010904//EN"
 "http://www.w3.org/TR/2001/REC-SVG-20010904/DTD/svg10.dtd">
<svg version="1.0" xmlns="http://www.w3.org/2000/svg"
 width="300.000000pt" height="300.000000pt" viewBox="0 0 300.000000 300.000000"
 preserveAspectRatio="xMidYMid meet">

<g transform="translate(0.000000,300.000000) scale(0.100000,-0.100000)"
fill="#000000" stroke="none">
<path d="M2 2608 c2 -224 7 -392 12 -390 5 2 12 -2 16 -9 6 -9 12 -8 25 4 20
21 29 22 21 2 -5 -13 -2 -14 22 -1 15 7 44 16 65 19 20 3 43 9 50 15 6 5 25
12 41 16 20 5 26 10 18 15 -8 5 11 15 48 26 33 10 60 23 60 29 0 6 4 5 9 -3 7
-11 10 -9 16 8 4 14 12 20 21 17 7 -3 16 -1 19 4 12 19 73 41 130 47 33 3 65
9 71 14 6 5 26 11 45 13 19 3 36 5 39 6 3 1 10 3 15 4 6 0 20 7 32 13 12 7 32
13 45 13 31 -1 95 7 138 16 19 4 52 7 73 8 20 1 37 6 37 12 0 6 11 10 25 9 14
-2 25 1 25 6 0 4 23 6 51 3 35 -4 49 -2 45 5 -4 7 -1 9 8 5 9 -3 46 -1 83 5
166 26 428 33 613 16 125 -11 170 -8 187 13 13 16 14 15 5 -2 -6 -12 -30 -25
-62 -33 -54 -14 -105 -41 -186 -100 -46 -35 -72 -41 -91 -22 -18 18 -81 2 -99
-26 -25 -39 -4 -58 32 -29 19 15 18 15 -3 11 -28 -6 -30 8 -4 23 26 14 31 13
25 -5 -7 -18 0 -19 27 -5 10 6 19 8 19 6 0 -3 -13 -12 -29 -21 -17 -8 -39 -34
-52 -59 -16 -34 -30 -47 -52 -52 -21 -4 -26 -9 -18 -17 18 -18 13 -34 -35
-104 -44 -64 -104 -174 -104 -190 0 -7 26 29 92 126 13 18 33 44 45 58 13 13
29 36 37 51 l15 27 1 -27 c0 -30 9 -35 28 -16 7 7 12 8 12 2 0 -5 -9 -15 -20
-22 -14 -8 -20 -23 -20 -46 0 -21 -6 -36 -15 -40 -8 -3 -20 -18 -26 -33 -8
-22 -12 -24 -19 -13 -7 11 -10 9 -10 -12 0 -14 -4 -28 -8 -30 -4 -2 -43 -47
-86 -101 -66 -84 -81 -98 -99 -92 -12 3 -49 10 -81 15 -51 8 -61 7 -72 -8 -11
-14 -12 -9 -7 35 4 33 1 64 -7 84 -9 21 -10 33 -3 37 6 4 32 27 58 51 42 39
45 45 32 58 -16 16 -26 8 -95 -77 -18 -22 -23 -23 -46 -12 -32 14 -71 15 -95
2 -15 -8 -29 1 -75 49 -34 36 -63 58 -73 56 -37 -5 -16 -37 75 -112 21 -17 21
-19 6 -63 -8 -25 -18 -48 -22 -52 -8 -7 -261 18 -271 27 -3 4 -6 31 -7 61 l0
54 63 21 c35 11 63 24 63 28 0 3 -7 17 -16 29 l-16 23 -59 -33 c-58 -32 -59
-32 -88 -15 -16 9 -37 17 -46 17 -16 0 -17 7 -10 63 13 105 13 112 -14 115
-12 2 -33 1 -46 -2 l-23 -6 19 -87 c10 -48 19 -88 19 -90 0 -2 -6 -3 -14 -3
-22 0 -63 -55 -70 -94 -4 -20 -10 -36 -14 -35 -18 1 -221 28 -250 33 -47 8
-50 11 -57 71 -4 31 -11 58 -16 61 -14 8 -11 34 4 34 27 0 115 51 120 70 8 29
-20 62 -46 54 -28 -8 -75 -51 -92 -85 -13 -24 -17 -25 -75 -21 l-60 4 2 -188
3 -188 165 -26 c91 -15 207 -33 257 -40 83 -12 96 -16 127 -46 51 -50 104 -42
98 13 -2 22 5 36 27 56 28 25 31 25 31 8 0 -11 -4 -30 -9 -44 l-9 -24 111 -12
c149 -17 172 -24 203 -61 30 -35 60 -37 78 -5 6 11 19 26 29 33 10 8 27 23 39
35 l21 22 -5 -26 c-4 -24 -2 -27 21 -24 14 2 31 -1 37 -6 7 -5 16 -9 20 -8 5
1 20 -2 34 -8 14 -6 41 -17 61 -26 37 -15 60 -37 39 -37 -6 0 -8 -5 -5 -10 4
-6 3 -10 -2 -9 -22 4 -33 -3 -34 -18 0 -16 -2 -15 -15 3 -20 29 -45 20 -66
-23 l-17 -35 32 32 c18 19 33 27 35 20 2 -6 -1 -17 -7 -23 -6 -6 -11 -21 -11
-34 0 -24 -15 -32 -22 -12 -2 7 -9 5 -17 -5 -12 -14 -12 -16 3 -10 9 3 16 1
16 -4 0 -6 -10 -14 -22 -18 -13 -3 -31 -14 -41 -22 -17 -15 -16 -11 3 38 12
30 24 58 26 62 3 4 2 8 -3 8 -4 0 -129 7 -278 15 -318 17 -443 19 -429 6 12
-13 172 -35 434 -61 118 -12 217 -23 219 -26 2 -2 -2 -40 -9 -84 -7 -44 -10
-83 -7 -87 12 -11 37 7 37 28 0 13 8 23 22 27 25 6 95 42 186 95 35 20 66 37
68 37 2 0 5 -15 5 -32 1 -20 3 -25 6 -12 4 19 6 20 76 7 40 -6 146 -14 237
-17 155 -5 162 -5 110 8 -30 8 -131 24 -223 36 -140 17 -171 19 -184 8 -14
-11 -15 -11 -11 1 2 8 67 59 144 112 210 147 270 192 381 287 74 64 97 89 85
93 -12 4 -13 7 -3 13 7 5 15 5 18 2 11 -11 63 25 78 54 8 16 15 51 15 77 0 37
9 65 35 113 19 36 35 73 35 82 0 25 13 29 103 33 120 5 114 25 -8 25 l-97 0 5
28 c4 19 -1 34 -16 50 -13 14 -22 37 -23 58 -1 43 -29 73 -75 83 -23 5 -35 13
-37 26 -2 13 0 16 5 8 4 -6 27 -19 50 -28 47 -19 99 -72 109 -109 4 -19 14
-24 51 -29 25 -3 48 -9 52 -14 9 -15 38 -23 146 -43 55 -10 112 -23 126 -29
15 -5 30 -7 33 -4 3 3 12 0 20 -6 8 -7 20 -10 26 -6 5 3 10 0 10 -8 0 -8 18
-20 40 -27 22 -7 40 -17 40 -22 0 -5 5 -6 11 -2 6 3 22 1 35 -6 20 -11 22 -16
11 -29 -9 -12 -9 -13 1 -7 6 4 12 3 12 -2 0 -12 -65 -40 -113 -48 -20 -3 -39
-10 -42 -14 -6 -9 16 -14 130 -30 44 -6 88 -13 98 -15 16 -3 17 24 17 456 l0
459 -1500 0 -1500 0 2 -392z m2084 -167 c-3 -5 -19 -11 -36 -13 -33 -5 -29 7
5 15 32 8 36 7 31 -2z m-86 -21 c-8 -5 -19 -10 -25 -10 -5 0 -3 5 5 10 8 5 20
10 25 10 6 0 3 -5 -5 -10z m-58 -26 c-15 -10 -22 -25 -22 -48 0 -29 -8 -39
-57 -76 -32 -24 -64 -50 -70 -58 -12 -14 -13 -14 -13 1 0 20 -4 21 -30 7 -12
-7 -16 -17 -13 -31 4 -15 3 -20 -5 -15 -7 4 -12 17 -12 29 0 22 -1 22 -21 -3
l-20 -25 15 31 c8 17 40 54 71 82 30 28 55 56 55 64 0 11 2 10 9 -1 7 -10 20
-5 61 23 29 20 57 36 63 36 6 0 1 -7 -11 -16z m254 -39 c-19 -28 -36 -33 -36
-9 0 9 9 18 20 21 11 3 17 9 14 14 -3 5 -2 15 3 22 5 9 9 7 11 -6 2 -10 -4
-29 -12 -42z m57 -6 c-36 -7 -37 -6 -29 27 l7 27 25 -24 26 -24 -29 -6z m-534
-55 c-31 -33 -34 -24 -7 18 15 23 24 30 26 21 2 -8 -6 -26 -19 -39z m545 30
c9 -24 7 -36 -5 -28 -6 3 -15 0 -20 -7 -14 -23 -20 -3 -8 25 14 30 24 33 33
10z m-240 -130 c9 -4 16 -18 16 -33 -1 -37 -35 -107 -59 -120 -17 -10 -23 -8
-36 12 -13 21 -20 65 -16 104 1 13 48 42 68 43 6 0 18 -3 27 -6z m-1498 -206
c-9 -12 -17 -32 -17 -43 -1 -16 -2 -16 -6 -3 -5 18 25 83 34 75 3 -3 -2 -16
-11 -29z m84 -2 c0 -3 -4 -8 -10 -11 -5 -3 -10 -1 -10 4 0 6 5 11 10 11 6 0
10 -2 10 -4z m1448 -66 c14 0 21 -4 16 -11 -7 -13 -77 -4 -103 12 -12 8 -6 9
24 5 22 -3 50 -6 63 -6z m-1728 -22 c0 -6 -7 -7 -16 -4 -9 3 -29 6 -45 6 -16
0 -29 3 -29 8 0 4 20 6 45 4 25 -2 45 -9 45 -14z m722 -9 c-3 -20 -8 -27 -14
-21 -6 6 -6 17 1 31 16 28 18 26 13 -10z m103 11 c-3 -5 -11 -10 -16 -10 -6 0
-7 5 -4 10 3 6 11 10 16 10 6 0 7 -4 4 -10z m-717 -10 c12 0 22 -3 22 -8 0
-11 -79 -2 -87 11 -4 6 2 8 18 4 13 -4 34 -7 47 -7z m421 -66 c10 -9 -75 -3
-89 6 -10 7 1 8 35 4 28 -4 52 -8 54 -10z m111 -14 l25 -8 -25 0 c-14 -1 -43
3 -65 7 l-40 9 40 0 c22 0 51 -4 65 -8z m-285 -53 c-5 -21 -22 -37 -40 -37 -5
0 1 10 15 21 l25 20 -23 -6 c-21 -6 -23 -5 -13 14 14 26 41 17 36 -12z m488
-77 c-26 -25 -51 -40 -65 -39 -18 1 -19 2 -5 6 10 3 16 11 14 18 -5 12 5 19
63 43 39 16 38 14 -7 -28z"/>
<path d="M1740 2255 c-17 -20 -7 -30 17 -16 11 6 13 11 5 11 -7 0 -10 5 -7 10
10 15 -1 12 -15 -5z"/>
<path d="M2655 1986 c-39 -16 -38 -42 2 -86 18 -19 33 -38 33 -42 0 -4 7 -14
16 -22 8 -9 11 -16 5 -16 -6 0 -26 -14 -46 -31 -19 -17 -35 -28 -35 -25 0 3
-34 -12 -76 -34 -78 -40 -99 -45 -166 -34 -35 6 -38 9 -38 39 0 33 0 33 60 40
53 6 61 10 66 32 11 44 -9 49 -79 21 l-64 -25 -28 25 c-25 21 -36 24 -84 20
-38 -4 -63 0 -81 10 -16 9 -34 12 -46 8 -16 -6 -13 -10 20 -24 l38 -17 -21
-19 c-12 -11 -21 -24 -21 -30 0 -6 5 -5 12 2 18 18 27 14 21 -9 -6 -20 -62
-61 -91 -65 -7 -2 -16 4 -19 12 -3 9 -21 14 -52 14 -43 0 -54 -6 -151 -82
l-104 -82 66 -12 c86 -16 131 -20 144 -11 6 3 23 3 38 -1 25 -7 27 -9 12 -21
-58 -48 39 -69 129 -28 47 22 57 23 169 15 73 -5 124 -4 131 2 6 5 24 6 40 2
23 -7 26 -10 12 -15 -9 -3 -17 -13 -17 -21 0 -34 85 -35 158 -1 57 26 42 26
315 10 l77 -4 0 105 c0 97 -1 105 -17 98 -10 -4 -37 -9 -60 -12 l-43 -4 0 36
0 36 60 0 60 0 0 35 c0 19 -4 35 -10 35 -5 0 -35 -9 -65 -21 l-57 -21 -27 26
c-15 15 -43 29 -62 32 -30 5 -37 12 -58 62 -13 32 -23 69 -23 85 1 30 -1 31
-43 13z m-375 -200 c0 -3 -4 -8 -10 -11 -5 -3 -10 -1 -10 4 0 6 5 11 10 11 6
0 10 -2 10 -4z m400 -37 c0 -17 -20 -49 -30 -49 -11 0 -14 43 -3 53 10 11 33
8 33 -4z m140 7 c0 -3 -4 -8 -10 -11 -5 -3 -10 -1 -10 4 0 6 5 11 10 11 6 0
10 -2 10 -4z m-190 -46 c0 -11 -4 -20 -10 -20 -5 0 -7 8 -4 18 4 11 -1 8 -15
-8 -16 -20 -21 -21 -21 -8 0 16 24 37 43 38 4 0 7 -9 7 -20z m-90 -30 c0 -5
-4 -10 -9 -10 -6 0 -13 5 -16 10 -3 6 1 10 9 10 9 0 16 -4 16 -10z"/>
<path d="M2085 1769 c-4 -6 -5 -12 -2 -15 2 -3 7 2 10 11 7 17 1 20 -8 4z"/>
<path d="M2055 1750 c-3 -5 -1 -10 4 -10 6 0 11 5 11 10 0 6 -2 10 -4 10 -3 0
-8 -4 -11 -10z"/>
<path d="M1255 1539 c-10 -31 0 -33 19 -4 14 21 14 25 2 25 -8 0 -18 -9 -21
-21z"/>
<path d="M2969 1366 c-5 -5 -127 -18 -199 -21 -25 -1 -63 -7 -85 -13 -22 -6
-70 -14 -107 -17 -38 -4 -68 -11 -68 -15 0 -4 -15 -5 -32 -1 -39 8 -71 3 -63
-10 4 -5 -4 -10 -17 -10 -17 -1 -18 -3 -5 -6 33 -9 6 -23 -46 -24 -45 -1 -48
-2 -22 -9 17 -4 23 -9 15 -10 -8 -1 -24 -3 -35 -5 -11 -2 -55 -6 -99 -9 -140
-10 -90 -22 72 -17 37 1 62 -3 62 -9 0 -12 9 -11 -169 -19 -136 -6 -144 -7
-128 -23 20 -19 22 -44 5 -54 -7 -4 -8 -3 -4 4 9 15 -6 16 -20 2 -6 -6 -39 0
-94 19 -114 38 -140 44 -140 31 0 -6 -5 -8 -12 -4 -30 18 38 -59 125 -142 104
-100 160 -180 136 -195 -8 -5 -9 -9 -3 -9 18 0 54 -95 54 -142 0 -24 5 -49 12
-56 17 -17 0 -28 -22 -14 -11 7 -27 12 -35 12 -9 0 -18 6 -21 14 -3 8 -19 18
-35 21 -16 4 -26 11 -23 17 7 11 -73 5 -224 -17 -55 -8 -73 -13 -49 -14 25 -1
36 -5 31 -12 -4 -7 -22 -9 -43 -6 -22 3 -41 0 -48 -8 -7 -7 -18 -15 -25 -18
-11 -4 -11 -8 0 -26 13 -22 12 -22 -12 -6 -25 16 -25 16 -32 -19 -8 -44 0 -66
26 -73 11 -3 20 -10 20 -15 0 -5 -5 -6 -12 -2 -7 4 -8 3 -4 -4 4 -7 24 -12 44
-13 l37 -1 -33 -9 c-18 -5 -30 -14 -27 -20 4 -5 10 -7 15 -4 4 3 10 -4 13 -14
3 -14 0 -17 -14 -14 -11 3 -22 9 -25 14 -3 5 -14 9 -25 9 -16 0 -18 -3 -9 -19
7 -13 7 -22 0 -26 -6 -3 -7 -17 -4 -31 4 -15 2 -24 -6 -24 -7 0 -9 -8 -4 -22
6 -22 6 -22 -13 -6 -19 17 -19 17 -15 -12 4 -28 2 -30 -31 -30 -29 0 -37 5
-47 30 -7 17 -16 30 -21 30 -5 0 -9 7 -9 15 0 8 -5 15 -11 15 -5 0 -8 4 -4 9
7 13 -15 26 -24 14 -10 -16 -71 5 -65 22 4 8 1 15 -5 15 -6 0 -11 -9 -11 -21
0 -11 -4 -17 -10 -14 -5 3 -10 15 -10 25 0 20 -32 22 -60 5 -10 -6 -12 -4 -7
9 4 10 7 24 7 32 0 9 11 14 33 15 26 0 28 2 12 8 -19 8 -19 8 3 15 17 6 22 15
21 39 0 32 0 32 -11 7 -9 -23 -11 -24 -17 -6 -7 18 -8 18 -14 2 -4 -10 -7 -26
-7 -37 0 -10 -3 -19 -7 -19 -5 0 -8 27 -8 60 0 46 3 60 15 61 11 0 11 2 2 6
-9 3 -10 9 -2 18 6 7 7 20 4 30 -7 17 -8 17 -22 -1 -9 -12 -13 -13 -10 -4 8
27 -36 59 -88 62 l-49 3 29 15 30 15 -30 6 c-16 4 -49 7 -74 9 -33 1 -40 3
-25 9 12 5 -23 11 -94 15 -98 6 -116 5 -123 -8 -5 -9 -14 -16 -21 -16 -7 0
-31 -19 -54 -43 -56 -55 -70 -67 -83 -67 -5 0 -10 -5 -10 -11 0 -5 -5 -7 -10
-4 -7 4 -7 13 0 26 6 10 8 19 6 19 -3 0 4 21 14 46 24 55 24 54 5 54 -8 0 -15
6 -15 13 0 8 -9 22 -20 32 -13 12 -17 22 -11 29 6 6 8 23 7 38 -4 32 12 38 99
38 33 0 66 4 74 9 13 9 -29 15 -154 24 -49 3 -32 11 63 28 39 7 71 14 69 15
-6 6 -126 13 -259 14 -132 1 -238 15 -238 32 0 4 -5 8 -11 8 -7 0 -17 7 -24
16 -9 13 -16 14 -32 5 -16 -8 -24 -7 -33 4 -7 8 -23 15 -35 15 -20 0 -23 4
-19 29 3 16 0 32 -6 36 -5 3 -10 11 -10 17 0 6 9 3 21 -8 11 -10 18 -26 16
-36 -6 -20 45 -51 68 -42 15 6 75 -16 75 -27 0 -7 30 -18 70 -25 14 -3 102 -6
195 -7 l171 -1 99 97 100 96 -70 1 c-130 1 -319 11 -395 20 -41 6 -155 12
-252 14 l-178 5 0 -605 0 -604 1500 0 1500 0 0 505 c0 278 -3 505 -7 505 -4 0
-17 -10 -30 -22 -37 -35 -36 -15 2 35 l35 46 0 150 c0 119 -3 151 -13 151 -8
0 -16 -2 -18 -4z m-554 -176 c-3 -5 -20 -10 -36 -10 -18 0 -28 4 -24 10 3 6
20 10 36 10 18 0 28 -4 24 -10z m265 -170 c0 -5 -9 -10 -20 -10 -11 0 -20 5
-20 10 0 6 9 10 20 10 11 0 20 -4 20 -10z m-56 -7 c3 -4 -13 -12 -36 -18 -24
-6 -54 -15 -68 -19 -23 -8 -24 -7 -9 9 22 23 99 42 113 28z m-134 -11 c0 -21
-84 -42 -172 -42 -50 0 -89 2 -87 4 2 2 40 6 84 9 44 3 96 12 115 20 40 17 60
21 60 9z m421 -46 c-6 -14 -15 -26 -21 -26 -14 0 -12 12 6 38 20 29 28 23 15
-12z m-226 -26 c-16 -26 -210 -42 -245 -20 -10 7 15 10 80 11 52 0 106 5 120
9 36 11 52 12 45 0z m95 -5 c-7 -9 -27 -14 -49 -14 -27 1 -30 3 -11 6 14 3 29
9 35 14 5 5 15 9 23 9 12 0 12 -3 2 -15z m56 0 c-21 -16 -32 -13 -21 4 3 6 14
11 23 11 15 -1 15 -2 -2 -15z m-363 -62 c-13 -2 -33 -2 -45 0 -13 2 -3 4 22 4
25 0 35 -2 23 -4z m-1399 -185 c-3 -4 -14 -8 -25 -8 -11 0 -18 4 -14 9 3 6 14
9 25 8 10 -1 16 -5 14 -9z m1749 -58 c-3 -11 -9 -20 -13 -20 -5 0 -13 -13 -18
-30 -8 -21 -16 -28 -26 -24 -23 9 -20 19 15 59 35 39 50 45 42 15z m-2723 -5
c8 -9 21 -13 36 -9 33 8 72 -19 76 -53 3 -25 7 -28 45 -31 30 -2 47 -10 58
-25 18 -25 20 -57 3 -57 -12 0 -2 -15 10 -15 4 -1 18 -7 30 -14 18 -10 23 -19
19 -38 -5 -29 21 -45 34 -21 10 17 75 22 85 7 3 -5 14 -9 24 -9 12 0 29 -15
44 -38 21 -33 29 -38 61 -38 22 0 42 -6 49 -15 6 -9 24 -20 40 -26 17 -5 32
-15 34 -21 3 -11 -40 2 -96 31 -13 6 -34 10 -47 9 -22 -2 -40 14 -70 62 -14
22 -86 29 -128 11 -33 -14 -34 -13 -47 13 -7 15 -16 34 -20 42 -4 8 -16 17
-26 19 -24 4 -45 33 -34 46 11 13 -4 40 -18 32 -5 -4 -17 2 -27 13 -11 13 -25
18 -37 14 -12 -3 -18 0 -18 10 0 17 -34 56 -49 56 -11 0 -61 44 -61 54 0 11
17 6 30 -9z m1088 -47 c-7 -13 -13 -25 -14 -28 -1 -3 -5 -15 -9 -27 -6 -20
-25 -33 -25 -18 0 13 46 94 53 95 4 0 2 -10 -5 -22z m1320 -7 c-11 -18 -41
-35 -58 -33 -3 0 -10 -4 -16 -9 -6 -5 -33 -12 -60 -15 -37 -4 -45 -3 -32 5 9
6 29 13 45 15 39 5 63 16 97 43 33 27 43 25 24 -6z m160 17 c-3 -7 -17 -19
-32 -26 -18 -9 -25 -19 -22 -29 7 -17 -12 -46 -24 -38 -4 3 -13 -2 -20 -10 -7
-8 -19 -15 -27 -15 -7 0 -16 -6 -19 -14 -3 -8 -29 -16 -67 -20 -34 -4 -77 -10
-96 -12 -19 -3 -31 -2 -27 4 4 8 75 20 136 24 8 1 21 9 28 20 7 10 21 18 30
18 18 0 42 23 62 59 6 12 17 21 24 21 8 0 19 7 26 15 15 18 33 20 28 3z
m-1448 -63 c0 -2 -10 -10 -22 -16 -21 -11 -22 -11 -9 4 13 16 31 23 31 12z
m965 -75 c-3 -5 -11 -10 -16 -10 -6 0 -7 5 -4 10 3 6 11 10 16 10 6 0 7 -4 4
-10z m-978 -32 c-3 -8 -6 -5 -6 6 -1 11 2 17 5 13 3 -3 4 -12 1 -19z m-412
-208 c3 -5 -1 -10 -9 -10 -8 0 -18 5 -21 10 -3 6 1 10 9 10 8 0 18 -4 21 -10z"/>
<path d="M0 1280 c0 -26 25 -26 27 0 1 11 -4 20 -13 20 -8 0 -14 -9 -14 -20z"/>
<path d="M57 1283 c5 -12 3 -14 -7 -8 -9 5 -11 4 -6 -4 4 -6 12 -9 17 -6 12 8
12 35 -1 35 -5 0 -6 -7 -3 -17z"/>
<path d="M1476 1278 c-4 -15 -5 -31 -2 -37 3 -5 2 -21 -4 -35 -6 -18 -6 -26 1
-26 28 0 -2 -23 -51 -40 -133 -45 -181 -181 -97 -277 17 -20 46 -42 64 -49 45
-19 147 -18 190 3 38 18 78 71 93 122 22 79 -36 192 -113 221 -60 22 -62 25
-67 86 -5 50 -7 55 -14 32z m-36 -214 c0 -19 -28 -30 -42 -16 -8 8 -8 15 1 26
14 17 41 10 41 -10z"/>
<path d="M1138 733 c7 -3 16 -2 19 1 4 3 -2 6 -13 5 -11 0 -14 -3 -6 -6z"/>
<path d="M1148 693 c7 -3 16 -2 19 1 4 3 -2 6 -13 5 -11 0 -14 -3 -6 -6z"/>
<path d="M1785 670 c-28 -7 -28 -8 -5 -9 14 0 32 4 40 9 17 11 8 11 -35 0z"/>
<path d="M1678 653 c7 -3 16 -2 19 1 4 3 -2 6 -13 5 -11 0 -14 -3 -6 -6z"/>
<path d="M1230 390 c0 -5 5 -10 10 -10 6 0 10 5 10 10 0 6 -4 10 -10 10 -5 0
-10 -4 -10 -10z"/>
</g>
</svg>
