<?xml version="1.0" standalone="no"?>
<!DOCTYPE svg PUBLIC "-//W3C//DTD SVG 20010904//EN"
 "http://www.w3.org/TR/2001/REC-SVG-20010904/DTD/svg10.dtd">
<svg version="1.0" xmlns="http://www.w3.org/2000/svg"
 width="300.000000pt" height="300.000000pt" viewBox="0 0 300.000000 300.000000"
 preserveAspectRatio="xMidYMid meet">

<g transform="translate(0.000000,300.000000) scale(0.100000,-0.100000)"
fill="#000000" stroke="none">
<path d="M0 2985 c0 -8 18 -24 40 -35 l40 -21 -16 -30 c-8 -17 -13 -33 -11
-35 2 -3 10 9 17 26 7 16 14 30 16 30 6 0 116 -71 136 -88 16 -13 14 -21 -28
-103 -24 -49 -48 -89 -52 -89 -4 0 -13 4 -21 9 -10 7 -11 13 -1 31 6 12 9 24
7 27 -3 2 -8 -5 -12 -16 -8 -27 -17 -26 -71 5 l-44 26 0 -41 c0 -37 3 -42 40
-61 22 -11 40 -23 40 -25 0 -3 -18 4 -40 15 l-41 21 3 -218 c2 -120 7 -227 12
-237 7 -14 6 -17 -2 -12 -7 4 -11 -13 -11 -57 l0 -63 82 -28 c91 -30 147 -54
132 -55 -5 -1 -52 15 -104 34 -51 19 -98 35 -102 35 -5 0 -9 -25 -9 -55 l0
-55 151 0 c112 0 148 3 143 12 -5 8 -2 9 12 3 37 -15 126 -17 387 -10 258 7
263 8 265 28 0 12 8 27 17 33 8 6 13 18 10 26 -4 9 1 18 10 22 11 4 14 2 10
-7 -4 -6 2 -1 13 12 13 17 25 21 40 17 19 -6 17 -10 -25 -53 -25 -26 -49 -57
-54 -70 -8 -23 -11 -23 -166 -24 -87 -1 -305 0 -485 1 l-328 1 0 -180 c0 -109
4 -182 10 -186 6 -3 10 -12 10 -18 0 -7 -4 -6 -10 3 -6 10 -9 -36 -7 -134 l2
-149 29 -3 c39 -4 46 -14 10 -15 -16 -1 -32 -1 -36 0 -5 0 -8 -69 -8 -154 0
-89 4 -155 9 -155 5 0 11 -41 13 -90 2 -50 0 -90 -4 -90 -4 0 -9 39 -11 88 -2
72 -3 66 -5 -40 l-2 -128 25 0 c14 0 25 -4 25 -10 0 -5 7 -10 15 -10 8 0 15
-4 15 -10 0 -5 -12 -10 -27 -10 -23 0 -25 -2 -13 -11 12 -8 9 -9 -12 -5 -26 6
-28 4 -28 -24 0 -22 4 -29 12 -24 11 6 11 4 0 -7 -17 -18 -15 -34 2 -20 8 7
23 14 35 16 16 3 21 -1 21 -16 0 -16 -5 -18 -28 -13 -22 4 -24 3 -12 -6 12
-10 11 -11 -7 -7 -16 3 -23 0 -23 -9 0 -16 19 -18 54 -4 20 7 26 6 26 -4 0 -9
-16 -17 -40 -21 -26 -4 -40 -12 -40 -22 0 -15 20 -14 66 4 11 4 15 3 10 -5 -4
-6 -22 -14 -41 -18 l-34 -6 -1 -209 0 -209 1500 0 1500 0 0 384 c0 358 -1 385
-17 389 -17 4 -17 5 0 6 17 1 18 13 14 159 -2 86 -9 178 -16 204 -14 52 -53
92 -84 84 -10 -2 -23 3 -29 14 -11 17 -13 17 -25 2 -12 -15 -13 -14 -7 11 8
35 -18 67 -56 67 -33 0 -45 -13 -55 -58 -5 -24 -3 -32 8 -32 28 0 55 -54 27
-55 -9 0 -17 -15 -22 -42 -4 -23 -14 -53 -23 -67 -13 -20 -15 -32 -7 -55 8
-22 7 -32 -5 -44 -13 -13 -13 -18 0 -43 8 -16 36 -51 61 -78 46 -49 54 -86 20
-86 -8 0 -14 -4 -14 -8 0 -5 -9 -19 -19 -31 -18 -21 -26 -22 -84 -17 l-65 7 3
-40 2 -40 -51 4 -51 4 50 -13 50 -14 -51 -1 c-38 -1 -54 -5 -58 -17 -6 -15 0
-16 39 -11 l45 7 0 -78 0 -78 -72 -70 c-101 -98 -127 -113 -43 -24 78 82 53
71 -40 -17 -33 -32 -76 -71 -95 -88 -34 -29 -33 -28 5 15 43 47 37 45 -36 -13
-37 -29 -53 -36 -80 -34 -20 2 -42 -3 -54 -12 -18 -15 -19 -15 -6 2 16 20 9
22 -22 6 -58 -30 10 18 127 88 l130 78 -1 104 c-1 56 -3 104 -5 106 -2 2 -27
-1 -56 -6 -38 -6 -59 -5 -73 4 -26 16 -24 27 6 27 30 0 287 106 312 129 10 9
35 17 57 18 21 1 40 4 42 6 11 11 4 100 -9 113 -10 10 -27 -42 -27 -82 0 -24
-5 -34 -15 -34 -8 0 -15 9 -15 21 0 11 -4 29 -10 39 -7 14 -5 19 10 23 14 4
18 10 14 22 -4 9 -8 26 -9 38 -1 12 -3 25 -4 30 0 4 -15 7 -32 7 -28 0 -31 3
-25 22 3 13 1 55 -6 95 -9 56 -9 78 0 98 7 15 8 24 2 20 -21 -13 -8 7 23 35
l32 29 -45 45 c-25 27 -45 56 -45 69 0 18 -6 23 -35 25 -28 3 -33 1 -22 -9 20
-21 15 -41 -10 -37 -20 3 -23 9 -24 48 -1 104 -13 108 -21 7 -5 -62 -4 -66 22
-83 26 -17 27 -20 21 -76 -4 -31 -3 -66 2 -75 13 -26 22 -193 10 -193 -5 0
-17 -7 -25 -16 -20 -20 -82 -12 -96 11 -11 20 -28 10 -21 -13 5 -14 4 -14 -4
-2 -6 8 -8 18 -6 22 3 4 0 16 -5 25 -10 17 -11 16 -12 -2 -1 -11 -1 -29 0 -40
l2 -20 -16 20 c-28 34 -56 95 -58 125 -1 17 -7 30 -14 30 -14 0 -75 127 -75
158 0 12 -6 22 -13 22 -11 0 -29 79 -21 88 2 1 53 11 114 21 61 10 115 21 120
25 13 8 2 56 -13 56 -8 0 -15 10 -17 22 -4 32 -26 34 -38 3 -5 -14 -14 -23
-20 -20 -5 3 -10 8 -10 11 0 3 5 2 11 -2 8 -4 9 3 4 25 -6 28 -13 91 -14 129
-2 30 -21 -2 -21 -34 0 -19 -4 -34 -9 -34 -4 0 -4 22 0 50 4 27 4 64 -2 82 -5
17 -5 34 -1 37 4 4 8 20 9 36 2 29 2 29 -14 10 l-16 -20 8 20 c5 11 8 34 7 50
-1 28 0 29 13 11 8 -11 15 -31 15 -45 0 -26 0 -26 34 9 36 37 61 76 96 150 25
51 25 50 35 108 4 23 12 45 16 48 5 3 9 10 9 16 0 7 -14 -3 -31 -20 -17 -18
-35 -32 -39 -32 -5 0 9 17 31 38 32 32 69 94 69 117 0 4 -15 -9 -34 -27 -43
-43 -63 -58 -68 -52 -3 2 -1 27 5 54 11 59 5 72 -21 42 -15 -17 -21 -19 -31
-9 -11 10 -12 8 -7 -9 9 -29 -13 -47 -37 -29 -16 11 -15 15 15 44 18 17 38 29
46 26 7 -3 10 0 7 6 -4 6 2 8 18 4 29 -8 41 7 33 40 -13 53 -89 33 -78 -20 3
-17 -1 -27 -13 -31 -9 -4 -29 -18 -44 -31 -14 -14 -34 -29 -44 -35 -16 -8 -17
-7 -7 11 6 12 16 21 22 21 5 0 8 9 5 20 -3 10 -2 19 2 18 25 -3 31 3 21 22 -9
16 -8 18 5 14 8 -4 15 -14 15 -23 0 -14 2 -14 10 -1 14 22 12 30 -9 30 -10 0
-25 10 -34 23 -10 14 -15 17 -14 7 1 -33 -3 -50 -13 -50 -7 0 -7 7 0 20 6 11
8 25 5 30 -3 5 -1 19 5 30 9 18 8 20 -14 20 -14 0 -28 5 -31 10 -4 6 -12 7
-18 3 -7 -4 -22 -6 -34 -5 -25 4 -93 -25 -93 -39 0 -11 3 -11 34 1 43 16 146
24 146 11 0 -7 -16 -12 -42 -11 -70 2 -140 -19 -167 -48 l-24 -27 21 38 c12
20 19 37 17 37 -3 0 -31 -14 -62 -31 -114 -62 -211 -145 -350 -298 -68 -75
-91 -106 -81 -112 21 -13 6 -15 -85 -10 -86 6 -87 6 -87 -17 0 -55 -48 -130
-102 -158 -39 -20 -35 -10 6 16 72 44 97 156 51 223 -23 35 -23 39 -9 72 36
87 51 225 25 225 -14 0 -61 -113 -73 -174 l-12 -63 -41 5 c-27 3 -53 -2 -73
-12 -41 -21 -52 -20 -25 3 21 18 21 18 -108 87 -164 87 -196 110 -60 44 57
-28 106 -49 109 -46 3 3 0 6 -7 6 -9 0 54 140 76 169 1 2 15 -1 29 -8 22 -10
30 -9 45 5 13 12 22 13 36 6 14 -9 25 -5 52 21 19 18 30 25 26 17 -5 -8 5 -4
20 10 54 47 66 61 75 83 7 19 9 16 10 -18 l2 -40 12 40 c7 22 15 35 17 29 3
-8 12 -9 29 -2 20 7 22 11 10 18 -13 8 -12 10 3 10 9 0 17 5 17 11 0 6 9 9 19
6 14 -3 32 9 65 45 41 45 45 54 42 92 -2 22 -2 31 1 19 2 -13 9 -23 14 -23 6
0 7 -4 4 -10 -3 -5 -2 -10 4 -10 5 0 13 5 16 10 14 23 24 6 28 -47 3 -53 4
-53 3 10 -1 65 0 67 24 67 14 0 50 7 80 15 30 8 58 15 61 15 13 0 10 -133 -3
-142 -10 -7 -10 -9 2 -5 11 3 16 22 18 75 3 78 1 76 84 87 l47 7 4 -48 3 -49
2 51 2 52 87 16 c103 19 105 18 101 -71 -2 -47 0 -59 9 -51 7 6 13 42 15 86 3
87 10 94 97 106 24 3 47 9 50 12 10 12 -103 -7 -131 -21 -26 -12 -37 -8 -21 9
4 4 6 25 4 46 -2 39 -1 40 28 40 17 0 31 3 31 8 0 4 24 5 53 2 l52 -5 2 -99
c2 -100 13 -151 13 -59 l0 50 92 17 c50 9 95 13 99 9 4 -4 9 -38 11 -74 l3
-66 -90 -13 c-49 -7 -99 -14 -110 -16 -11 -2 -51 -9 -90 -16 -38 -6 -77 -15
-85 -20 -12 -7 -10 -8 5 -4 11 2 40 7 65 11 25 3 57 8 73 11 27 6 27 5 29 -53
l1 -58 6 60 6 60 128 19 c70 11 127 23 127 26 0 4 -13 5 -30 2 l-30 -4 0 65
c0 66 -7 100 -19 93 -3 -2 -22 -7 -41 -10 -19 -3 -59 -10 -88 -17 -49 -10 -74
-7 -60 6 3 3 48 14 99 25 55 11 73 17 44 15 -52 -5 -73 -9 -116 -20 -25 -6
-27 -4 -31 30 l-4 36 60 -6 c34 -4 72 -8 86 -9 14 -2 30 -4 35 -4 15 -3 165
-305 165 -333 0 -5 6 -20 14 -32 8 -12 29 -58 46 -102 18 -44 61 -141 97 -215
48 -99 66 -146 66 -177 0 -24 4 -43 8 -43 4 0 5 -18 2 -40 -6 -41 8 -70 33
-70 12 0 14 94 14 580 l0 580 -1500 0 c-1318 0 -1500 -2 -1500 -15z m1021 -22
c13 -16 12 -17 -3 -4 -10 7 -18 15 -18 17 0 8 8 3 21 -13z m-836 -28 l20 -16
-20 10 c-11 5 -29 17 -40 26 l-20 16 20 -10 c11 -5 29 -17 40 -26z m2222 -51
c-3 -3 -12 -4 -19 -1 -8 3 -5 6 6 6 11 1 17 -2 13 -5z m40 0 c-3 -3 -12 -4
-19 -1 -8 3 -5 6 6 6 11 1 17 -2 13 -5z m-1286 -51 l24 -26 -27 19 c-15 10
-28 22 -28 27 0 12 5 8 31 -20z m989 -8 c-7 -8 -9 -26 -6 -40 5 -20 3 -25 -14
-25 -11 0 -20 -4 -20 -9 0 -4 11 -6 25 -3 31 6 34 -16 3 -22 -142 -30 -152
-31 -144 -11 3 8 1 15 -4 15 -6 0 -10 -8 -10 -19 0 -15 -10 -20 -47 -25 -27
-4 -56 -9 -65 -12 -13 -4 -17 1 -16 23 1 15 -2 38 -6 51 -5 14 -3 22 4 22 6 0
8 -4 5 -10 -9 -15 -2 -13 61 15 31 14 58 25 60 25 1 0 5 -15 7 -32 4 -32 4
-32 5 5 1 20 3 37 5 37 1 0 32 9 69 19 54 16 66 17 61 5 -4 -10 0 -12 11 -8 9
3 16 14 17 23 0 10 2 12 6 3 3 -7 -1 -19 -7 -27z m-1640 -51 c0 -3 -13 4 -30
16 -16 12 -30 24 -30 26 0 3 14 -4 30 -16 17 -12 30 -24 30 -26z m1683 26 c3
-11 1 -20 -4 -20 -5 0 -9 9 -9 20 0 11 2 20 4 20 2 0 6 -9 9 -20z m-243 6 c0
-2 -7 -7 -16 -10 -8 -3 -12 -2 -9 4 6 10 25 14 25 6z m-1687 -58 c-7 -54 -23
-74 -23 -29 0 29 14 71 24 71 2 0 2 -19 -1 -42z m37 30 c0 -7 -5 -20 -10 -28
-8 -12 -10 -9 -10 13 0 15 5 27 10 27 6 0 10 -6 10 -12z m50 -25 c0 -2 -7 -18
-16 -34 -8 -17 -13 -33 -11 -35 2 -3 10 9 17 26 7 16 18 30 24 29 17 -1 159
-94 164 -107 3 -11 -58 -55 -66 -48 -2 2 4 18 13 35 8 17 13 31 10 31 -2 0
-13 -16 -23 -36 -16 -30 -30 -41 -79 -59 -58 -21 -62 -21 -94 -5 -25 13 -29
19 -18 26 15 9 53 84 46 90 -2 2 -12 -13 -22 -35 -12 -28 -25 -41 -44 -44 -14
-3 -27 -5 -27 -4 -1 1 21 43 49 93 33 60 55 90 64 87 7 -3 13 -7 13 -10z m950
-38 c30 -30 52 -55 49 -55 -2 0 -29 25 -59 55 -30 30 -52 55 -49 55 2 0 29
-25 59 -55z m450 31 c0 -2 -7 -7 -16 -10 -8 -3 -12 -2 -9 4 6 10 25 14 25 6z
m60 -11 c-7 -8 -17 -15 -22 -15 -6 0 -5 7 2 15 7 8 17 15 22 15 6 0 5 -7 -2
-15z m22 -30 c-3 -28 -9 -36 -31 -41 -35 -8 -62 -14 -85 -21 -12 -3 -16 -1
-12 6 4 6 3 11 -3 11 -5 0 -11 -6 -14 -12 -2 -7 -7 -10 -11 -7 -4 4 0 14 9 23
18 17 40 22 30 6 -9 -15 1 -12 37 10 18 11 29 20 23 20 -5 0 6 8 25 19 19 10
35 19 35 20 1 0 -1 -15 -3 -34z m-1611 -27 c-4 -12 -13 -24 -20 -26 -9 -3 -9
2 0 22 15 32 32 35 20 4z m-6 -58 c-3 -5 -11 -10 -16 -10 -6 0 -7 5 -4 10 3 6
11 10 16 10 6 0 7 -4 4 -10z m397 -52 c-9 -9 -12 -7 -12 12 0 19 3 21 12 12 9
-9 9 -15 0 -24z m965 0 c-3 -7 -5 -2 -5 12 0 14 2 19 5 13 2 -7 2 -19 0 -25z
m-1360 -44 c142 -78 146 -84 8 -13 -66 34 -124 66 -130 71 -17 16 20 -1 122
-58z m298 -3 c-33 -66 -36 -69 -57 -58 -47 25 -49 27 -37 50 10 21 9 21 -5 3
-10 -13 -21 -16 -33 -11 -10 5 -21 7 -25 7 -5 -1 -8 2 -8 6 0 5 35 19 78 32
42 13 81 27 87 32 5 4 15 8 22 8 9 0 2 -23 -22 -69z m56 -14 c-13 -13 -15 41
-3 70 5 13 8 8 10 -21 2 -21 -1 -43 -7 -49z m910 53 c37 -32 55 -37 62 -17 2
6 7 10 10 7 3 -3 -8 -21 -25 -40 -18 -22 -28 -28 -24 -16 5 14 -4 30 -31 58
-44 45 -40 50 8 8z m-757 -42 c45 -29 82 -53 84 -54 2 -1 -14 -36 -35 -78
l-38 -76 -84 50 c-46 28 -88 50 -93 50 -11 0 -13 -3 36 88 21 39 41 72 44 72
3 0 42 -23 86 -52z m-174 -11 c0 -14 -20 -37 -32 -37 -4 0 -2 11 4 25 12 27
28 34 28 12z m373 -32 c-3 -9 -8 -14 -10 -11 -3 3 -2 9 2 15 9 16 15 13 8 -4z
m537 11 c0 -3 -4 -8 -10 -11 -5 -3 -10 -1 -10 4 0 6 5 11 10 11 6 0 10 -2 10
-4z m-925 -45 c-3 -6 -11 -8 -17 -5 -6 4 -5 9 3 15 16 10 23 4 14 -10z m325
-13 c0 -7 -5 -20 -10 -28 -8 -12 -10 -9 -10 13 0 15 5 27 10 27 6 0 10 -6 10
-12z m-49 -81 c-13 -13 -15 41 -3 70 5 13 8 8 10 -21 2 -21 -1 -43 -7 -49z
m-241 -12 c0 -3 -36 13 -80 35 -44 22 -80 42 -80 45 0 3 36 -13 80 -35 44 -22
80 -42 80 -45z m361 63 c22 -12 39 -25 39 -30 0 -4 7 -8 15 -8 8 0 15 -4 15
-10 0 -5 7 -10 15 -10 20 0 20 -1 -20 -80 l-35 -69 -57 33 c-32 18 -68 38 -79
46 l-21 13 20 36 c12 20 25 38 29 39 5 2 6 8 2 13 -3 5 -1 9 5 9 5 0 13 9 16
20 8 25 9 25 56 -2z m-150 -71 c-13 -13 -15 1 -4 30 7 17 8 17 11 -1 2 -10 -1
-23 -7 -29z m1326 -9 c-3 -7 -5 -2 -5 12 0 14 2 19 5 13 2 -7 2 -19 0 -25z
m-1310 -105 c-5 -4 -217 107 -217 113 0 3 50 -20 110 -52 61 -31 109 -59 107
-61z m354 100 c13 -16 12 -17 -3 -4 -17 13 -22 21 -14 21 2 0 10 -8 17 -17z
m-361 -13 c0 -5 -4 -10 -10 -10 -5 0 -10 5 -10 10 0 6 5 10 10 10 6 0 10 -4
10 -10z m273 2 c4 8 6 7 6 -4 1 -10 -6 -18 -15 -18 -8 0 -13 -3 -11 -7 3 -5 1
-17 -4 -28 -6 -15 -8 -9 -8 24 -1 36 1 42 13 32 11 -9 15 -9 19 1z m-52 -85
c-17 -17 -24 -1 -10 25 12 21 14 21 17 4 2 -10 -1 -23 -7 -29z m-878 -59 c4
-10 4 -18 2 -18 -6 0 -35 56 -35 67 0 10 25 -27 33 -49z m881 27 c-4 -8 -10
-15 -15 -15 -5 0 -9 -8 -10 -17 0 -10 -3 -13 -5 -6 -6 14 13 53 26 53 5 0 7
-7 4 -15z m1249 -19 c4 -9 -2 -11 -18 -8 -15 2 -22 9 -18 17 5 16 29 10 36 -9z
m42 -4 c-3 -3 -11 0 -18 7 -9 10 -8 11 6 5 10 -3 15 -9 12 -12z m-2045 -32 c0
-5 -6 -12 -12 -16 -7 -4 -10 -4 -6 1 4 4 3 14 -4 22 -8 11 -7 12 6 7 9 -3 16
-10 16 -14z m2080 -9 c0 -5 -9 -19 -20 -32 -17 -21 -19 -21 -13 -4 6 18 24 44
31 45 1 0 2 -4 2 -9z m-1982 -47 c-4 -3 -12 5 -18 18 -12 22 -12 22 6 6 10
-10 15 -20 12 -24z m-54 10 c3 -8 2 -12 -4 -9 -6 3 -10 10 -10 16 0 14 7 11
14 -7z m251 -4 c3 -5 1 -10 -4 -10 -6 0 -11 5 -11 10 0 6 2 10 4 10 3 0 8 -4
11 -10z m1728 -7 c-7 -2 -19 -2 -25 0 -7 3 -2 5 12 5 14 0 19 -2 13 -5z
m-1253 -7 c0 -3 -4 -8 -10 -11 -5 -3 -10 -1 -10 4 0 6 5 11 10 11 6 0 10 -2
10 -4z m-873 -43 c-3 -10 -5 -4 -5 12 0 17 2 24 5 18 2 -7 2 -21 0 -30z m210
-35 c-3 -8 -6 -5 -6 6 -1 11 2 17 5 13 3 -3 4 -12 1 -19z m2607 -60 c-3 -15 0
-36 6 -47 9 -17 8 -20 -5 -15 -11 5 -15 19 -14 48 1 22 -2 52 -5 66 l-7 25 15
-25 c9 -15 13 -36 10 -52z m-2334 20 c0 -6 -7 -5 -15 2 -8 7 -15 17 -15 22 0
6 7 5 15 -2 8 -7 15 -17 15 -22z m599 -25 c-6 -7 -14 -13 -17 -13 -3 0 -1 5 6
12 9 9 8 16 -6 32 -17 21 -17 21 5 2 18 -15 20 -22 12 -33z m-964 19 c-3 -3
-11 0 -18 7 -9 10 -8 11 6 5 10 -3 15 -9 12 -12z m915 14 c0 -2 -7 -7 -16 -10
-8 -3 -12 -2 -9 4 6 10 25 14 25 6z m-1153 -172 c-3 -3 -12 -4 -19 -1 -8 3 -5
6 6 6 11 1 17 -2 13 -5z m46 -11 c-7 -2 -19 -2 -25 0 -7 3 -2 5 12 5 14 0 19
-2 13 -5z m44 -9 c-3 -3 -12 -4 -19 -1 -8 3 -5 6 6 6 11 1 17 -2 13 -5z m56
-11 c-7 -2 -19 -2 -25 0 -7 3 -2 5 12 5 14 0 19 -2 13 -5z m44 -9 c-3 -3 -12
-4 -19 -1 -8 3 -5 6 6 6 11 1 17 -2 13 -5z m40 -10 c-3 -3 -12 -4 -19 -1 -8 3
-5 6 6 6 11 1 17 -2 13 -5z m40 -10 c-3 -3 -12 -4 -19 -1 -8 3 -5 6 6 6 11 1
17 -2 13 -5z m1858 -4 c3 -5 1 -10 -4 -10 -6 0 -11 5 -11 10 0 6 2 10 4 10 3
0 8 -4 11 -10z m-1808 -6 c-3 -3 -12 -4 -19 -1 -8 3 -5 6 6 6 11 1 17 -2 13
-5z m40 -10 c-3 -3 -12 -4 -19 -1 -8 3 -5 6 6 6 11 1 17 -2 13 -5z m310 -14
c1 -11 -2 -20 -6 -20 -5 0 -11 9 -14 20 -3 12 0 20 7 20 6 0 12 -9 13 -20z
m-270 4 c-3 -3 -12 -4 -19 -1 -8 3 -5 6 6 6 11 1 17 -2 13 -5z m360 -14 c1
-11 -2 -20 -6 -20 -5 0 -11 9 -14 20 -3 12 0 20 7 20 6 0 12 -9 13 -20z m198
-12 c17 -8 41 -21 55 -27 22 -9 18 -10 -27 -9 -29 1 -58 -4 -66 -11 -9 -7 -18
-8 -21 -2 -3 5 0 12 6 14 10 4 9 8 -2 16 -12 8 -16 6 -18 -10 -2 -11 -9 -19
-15 -16 -46 17 -59 19 -55 6 6 -19 52 -41 56 -28 3 6 9 6 15 1 20 -15 49 -23
42 -11 -5 6 11 9 44 8 l51 -3 0 -63 c0 -38 4 -63 11 -63 14 0 45 74 60 145
l12 60 56 0 c117 -1 143 -4 135 -17 -6 -10 -5 -10 7 -1 8 6 27 9 42 6 20 -4
25 -8 16 -14 -7 -4 -19 -4 -25 2 -7 6 -16 4 -24 -6 -11 -13 -33 -16 -109 -14
-95 2 -96 2 -96 -22 0 -23 5 -24 83 -33 l82 -8 0 -35 c0 -19 5 -43 10 -54 16
-28 97 -25 201 8 46 14 90 26 97 26 6 0 12 4 12 9 0 4 12 8 26 8 14 0 34 5 46
11 19 10 20 9 13 -23 -4 -18 -14 -49 -23 -68 -23 -53 -24 -90 -1 -90 14 0 19
-8 21 -32 l1 -33 4 33 4 33 62 -6 c34 -3 81 -6 103 -8 42 -2 42 -2 36 -37 -3
-19 -9 -36 -14 -38 -4 -2 -8 -12 -8 -22 0 -17 -16 -62 -45 -125 -8 -17 -18
-50 -23 -73 -14 -59 -62 -139 -73 -121 -12 19 -11 76 1 84 6 4 11 -6 11 -22 2
-26 2 -26 6 -4 5 27 -10 64 -42 99 -11 13 -19 25 -17 28 1 2 -1 5 -5 7 -4 1
-10 -10 -14 -25 -4 -15 -14 -37 -23 -50 -9 -12 -16 -31 -16 -41 0 -15 3 -16
20 -7 14 7 20 7 20 0 0 -5 -4 -10 -9 -10 -5 0 -4 -14 2 -30 10 -25 9 -33 -3
-40 -21 -13 -30 -3 -30 33 0 24 -3 28 -10 17 -5 -8 -10 -25 -10 -37 0 -13 -4
-23 -10 -23 -5 0 -10 24 -11 53 l-1 52 -13 -60 c-15 -70 -12 -81 21 -89 30 -8
32 -36 3 -36 -15 0 -19 4 -15 16 5 13 3 14 -6 6 -14 -11 -48 -15 -110 -13 -34
1 -37 4 -34 24 3 12 5 37 5 55 1 48 24 36 35 -19 5 -24 11 -39 13 -32 2 6 0
28 -5 47 -8 27 -7 38 4 47 12 9 14 5 14 -25 0 -20 3 -36 8 -36 7 0 16 82 16
151 0 31 4 38 30 47 21 8 32 9 37 1 3 -6 8 -2 12 10 7 28 -1 32 -34 16 -39
-20 -60 -19 -66 5 -8 29 -20 24 -27 -11 -9 -46 -7 -87 4 -94 6 -3 10 -16 9
-28 0 -15 -2 -17 -6 -7 -4 8 -13 20 -22 27 -9 7 -12 13 -7 13 5 0 1 8 -8 19
-9 10 -16 22 -14 27 3 12 -37 96 -45 95 -4 -1 -7 2 -8 7 0 4 -5 13 -11 20 -7
8 -7 12 0 12 5 0 15 -6 21 -14 12 -14 61 -10 61 5 0 5 -4 9 -9 9 -5 0 -7 9 -4
19 7 28 -13 58 -43 65 -22 6 -32 2 -51 -19 -20 -21 -22 -26 -9 -31 18 -7 11
-24 -9 -24 -20 0 -102 -57 -109 -76 -3 -9 -9 -46 -12 -84 -6 -62 -5 -69 14
-79 20 -10 20 -12 4 -61 -17 -53 -39 -67 -39 -25 0 13 3 22 8 19 20 -12 7 4
-33 41 -25 23 -31 27 -16 10 22 -26 24 -32 12 -43 -8 -7 -14 -22 -14 -34 0
-16 -5 -19 -25 -16 -15 3 -25 1 -25 -7 0 -8 19 -10 63 -8 57 4 61 3 43 -11
-11 -9 -34 -16 -50 -16 -17 0 -40 -3 -51 -6 -19 -5 -20 -1 -20 48 1 29 -3 61
-8 71 -5 10 -6 22 -2 25 9 9 25 -19 25 -45 0 -13 5 -23 10 -23 6 0 10 18 10
40 0 46 -43 140 -64 140 -7 0 -20 7 -27 16 -12 15 -11 16 7 10 14 -4 21 -2 21
8 0 8 -6 12 -12 9 -7 -2 -15 5 -18 16 -7 28 -44 27 -52 0 -5 -14 -2 -25 6 -30
11 -7 9 -13 -11 -28 -13 -11 -27 -18 -30 -16 -4 2 -5 -15 -4 -39 1 -23 -2 -49
-7 -57 -10 -16 -10 -17 -14 64 -2 31 0 55 3 53 10 -6 47 22 39 30 -3 3 -12 2
-19 -2 -7 -4 -28 -7 -46 -5 -27 2 -33 -1 -32 -16 1 -10 1 -61 -1 -113 l-3 -95
-5 75 c-7 91 0 242 8 193 5 -26 9 -31 21 -23 10 6 11 10 3 10 -7 0 -13 6 -13
14 0 14 22 27 52 31 10 1 20 4 24 7 5 6 -91 14 -326 28 -96 6 -69 7 115 5 132
-2 236 -2 230 0 -5 2 -27 6 -47 10 -32 5 -38 10 -38 30 0 20 -5 25 -27 26 -16
1 -32 1 -36 0 -5 -1 -6 3 -2 9 4 6 1 18 -6 26 -6 8 -10 17 -7 19 3 3 11 -6 18
-20 7 -14 22 -25 32 -25 15 0 18 6 15 35 -3 19 0 35 4 35 5 0 9 -6 9 -14 0 -8
4 -17 8 -20 5 -3 8 8 7 25 -1 16 2 32 7 35 4 3 8 1 8 -3 0 -5 9 -9 20 -10 11
-1 20 3 20 8 0 6 -5 7 -11 3 -7 -4 -10 -1 -7 7 3 8 9 13 14 12 5 0 16 6 24 15
13 14 12 15 -5 9 -16 -6 -14 -3 5 13 25 20 24 20 -23 -1 -74 -32 -65 -17 14
23 39 20 67 38 62 41 -4 2 -24 8 -43 11 -73 14 -209 50 -206 54 3 2 56 -8 120
-22 124 -28 146 -31 131 -18 -6 5 -56 19 -113 32 -59 14 -97 27 -90 31 9 6 8
10 -6 15 -14 5 -15 9 -4 15 7 5 8 9 2 9 -6 0 -11 12 -10 28 l1 27 70 -5 c39
-3 84 -13 100 -22z m1127 -80 c1 -53 0 -100 -4 -104 -5 -4 -8 8 -8 27 -1 19
-3 60 -6 92 -5 52 0 96 10 86 2 -2 6 -47 8 -101z m-1555 76 c-3 -3 -12 -4 -19
-1 -8 3 -5 6 6 6 11 1 17 -2 13 -5z m40 -10 c-3 -3 -12 -4 -19 -1 -8 3 -5 6 6
6 11 1 17 -2 13 -5z m-267 -18 c0 -2 -7 -7 -16 -10 -8 -3 -12 -2 -9 4 6 10 25
14 25 6z m347 -2 c-3 -3 -12 -4 -19 -1 -8 3 -5 6 6 6 11 1 17 -2 13 -5z m40
-10 c-3 -3 -12 -4 -19 -1 -8 3 -5 6 6 6 11 1 17 -2 13 -5z m733 -32 c0 -7 -4
-10 -10 -7 -5 3 -10 16 -10 28 0 18 2 19 10 7 5 -8 10 -21 10 -28z m553 -47
c9 -27 14 -51 12 -53 -2 -3 -14 -2 -27 1 -14 4 -34 26 -51 57 -16 28 -27 52
-25 54 1 1 17 6 33 12 33 11 30 15 58 -71z m-1213 65 c20 -6 21 -8 5 -8 -11 0
-31 4 -45 8 -20 6 -21 8 -5 8 11 0 31 -4 45 -8z m620 -25 c0 -13 5 -27 12 -31
8 -5 6 -10 -8 -14 -22 -8 -47 27 -32 47 6 7 7 17 3 22 -3 7 0 8 9 5 9 -3 16
-17 16 -29z m629 2 c0 -21 -1 -21 -9 -2 -12 28 -12 37 0 30 6 -3 10 -16 9 -28z
m-1299 2 c16 -5 6 -6 -25 -2 -27 3 -61 10 -75 14 -16 5 -6 6 25 2 27 -3 61
-10 75 -14z m1166 -45 c13 -34 14 -48 6 -56 -19 -19 -32 3 -39 62 -7 64 7 62
33 -6z m-80 -40 c-9 -24 -24 -15 -36 22 -7 19 -10 36 -8 37 1 1 12 7 23 13 18
10 20 8 23 -23 2 -19 1 -41 -2 -49z m-452 31 c3 -8 1 -15 -3 -15 -5 0 -11 7
-15 15 -3 8 -1 15 3 15 5 0 11 -7 15 -15z m352 -71 c-4 -18 -11 -34 -15 -34
-5 0 -3 21 2 46 12 52 23 42 13 -12z m-1701 6 c4 -25 3 -31 -5 -20 -9 14 -15
68 -6 59 3 -3 8 -20 11 -39z m2022 18 c-3 -8 -6 -5 -6 6 -1 11 2 17 5 13 3 -3
4 -12 1 -19z m-268 -5 c0 -5 -4 -17 -9 -28 -8 -18 -9 -17 -9 8 -1 15 4 27 9
27 6 0 10 -3 9 -7z m-1389 -43 c0 -5 -2 -10 -4 -10 -3 0 -8 5 -11 10 -3 6 -1
10 4 10 6 0 11 -4 11 -10z m-368 -97 l-11 -58 3 63 c1 34 -1 62 -6 62 -4 0 -8
5 -8 12 0 8 6 7 16 -4 14 -14 15 -25 6 -75z m358 33 c0 -6 -7 -1 -15 10 -8 10
-15 23 -15 28 0 6 7 1 15 -10 8 -10 15 -23 15 -28z m477 -33 c-3 -10 -5 -2 -5
17 0 19 2 27 5 18 2 -10 2 -26 0 -35z m-413 21 c3 -8 2 -12 -4 -9 -6 3 -10 10
-10 16 0 14 7 11 14 -7z m104 -8 c-7 -8 -15 -12 -17 -11 -5 6 10 25 20 25 5 0
4 -6 -3 -14z m254 -30 c2 -21 0 -32 -7 -30 -6 3 -11 20 -11 39 0 42 12 37 18
-9z m-158 8 c3 -8 2 -12 -4 -9 -6 3 -10 10 -10 16 0 14 7 11 14 -7z m1322 -2
c5 -41 7 -44 13 -17 5 25 12 31 39 33 19 2 32 -1 32 -8 0 -6 5 -8 10 -5 6 3
10 1 10 -4 0 -6 -4 -11 -10 -11 -5 0 -10 -9 -10 -21 0 -13 -8 -23 -21 -26 -12
-3 -18 -11 -15 -19 4 -10 -3 -14 -23 -14 -36 0 -57 40 -52 98 1 16 25 10 27
-6z m-1517 -26 c-3 -3 -11 5 -18 17 -13 21 -12 21 5 5 10 -10 16 -20 13 -22z
m-304 -6 c3 -5 1 -10 -4 -10 -6 0 -11 5 -11 10 0 6 2 10 4 10 3 0 8 -4 11 -10z
m75 -52 l45 -3 -48 -5 c-42 -5 -50 -2 -60 15 -9 17 -8 18 4 8 8 -6 35 -13 59
-15z m-70 -2 c0 -3 -4 -8 -10 -11 -5 -3 -10 -1 -10 4 0 6 5 11 10 11 6 0 10
-2 10 -4z m187 -12 c-3 -3 -12 -4 -19 -1 -8 3 -5 6 6 6 11 1 17 -2 13 -5z
m141 -1 c-15 -2 -42 -2 -60 0 -18 2 -6 4 27 4 33 0 48 -2 33 -4z m2072 -7 c0
-3 -4 -8 -10 -11 -5 -3 -10 -1 -10 4 0 6 5 11 10 11 6 0 10 -2 10 -4z m-2522
-41 c-3 -3 -9 2 -12 12 -6 14 -5 15 5 6 7 -7 10 -15 7 -18z m812 -137 c0 -78
-2 -139 -5 -137 -9 9 -9 279 0 279 3 0 5 -64 5 -142z m1130 127 c0 -8 -4 -15
-10 -15 -5 0 -10 7 -10 15 0 8 5 15 10 15 6 0 10 -7 10 -15z m50 -1 c0 -9 -7
-14 -17 -12 -25 5 -28 28 -4 28 12 0 21 -6 21 -16z m-1800 -14 c6 -11 8 -20 6
-20 -3 0 -10 9 -16 20 -6 11 -8 20 -6 20 3 0 10 -9 16 -20z m1676 -25 c-6 -25
-14 -45 -18 -45 -11 0 -10 6 4 51 16 54 27 49 14 -6z m234 20 c0 -7 7 -21 16
-29 13 -14 14 -16 0 -16 -17 0 -21 5 -30 43 -4 19 -3 26 4 22 5 -3 10 -12 10
-20z m-2070 -25 c11 -22 25 -40 31 -40 6 0 8 -4 5 -9 -12 -19 7 -41 38 -42 29
-2 29 -2 4 -6 -35 -5 -26 -33 11 -34 17 -1 20 -3 9 -6 -10 -2 -18 -8 -18 -13
0 -5 8 -22 18 -39 13 -24 24 -31 52 -33 l35 -1 -32 -4 c-45 -6 -33 -33 16 -34
l36 -2 -35 -6 -35 -6 -65 120 c-73 135 -102 195 -95 195 3 0 14 -18 25 -40z
m2049 -7 c1 -7 -3 -13 -9 -13 -5 0 -10 15 -9 33 0 27 2 29 9 12 5 -11 9 -26 9
-32z m-175 -5 c4 -17 2 -28 -4 -28 -5 0 -10 14 -10 32 0 36 4 35 14 -4z
m-1317 -5 c7 -9 14 -21 17 -27 3 -7 11 -3 20 8 14 18 16 18 16 3 0 -10 -6 -20
-14 -23 -8 -3 -16 -14 -19 -25 -8 -29 -24 -23 -24 10 0 36 -18 61 -45 61 -11
0 -16 5 -13 10 8 14 46 3 62 -17z m102 4 c6 -8 8 -33 4 -65 -4 -38 -2 -52 7
-52 7 0 10 7 6 15 -3 10 1 15 14 15 10 0 22 5 25 10 3 6 -1 10 -9 10 -11 0
-16 10 -16 33 0 28 3 33 22 32 14 -1 24 -10 29 -27 6 -22 0 -33 -37 -69 -45
-44 -48 -44 -58 13 -3 15 -8 33 -12 40 -5 8 -2 9 9 5 21 -8 22 2 1 31 -16 23
-4 31 15 9z m1254 -2 c4 -8 2 -17 -3 -20 -6 -4 -10 3 -10 14 0 25 6 27 13 6z
m58 5 c20 0 7 -18 -16 -22 -20 -4 -25 -1 -25 14 0 14 5 18 16 14 9 -3 20 -6
25 -6z m-1863 -25 c-3 -3 -9 2 -12 12 -6 14 -5 15 5 6 7 -7 10 -15 7 -18z
m1739 3 c-3 -8 -6 -5 -6 6 -1 11 2 17 5 13 3 -3 4 -12 1 -19z m-1482 -34 c15
-37 19 -51 10 -43 -8 9 -35 79 -30 79 2 0 12 -16 20 -36z m-237 -9 c-3 -3 -9
2 -12 12 -6 14 -5 15 5 6 7 -7 10 -15 7 -18z m102 15 c0 -5 -4 -10 -9 -10 -6
0 -13 5 -16 10 -3 6 1 10 9 10 9 0 16 -4 16 -10z m189 -35 c0 -5 -4 -3 -9 5
-5 8 -9 22 -9 30 0 16 17 -16 18 -35z m2313 -16 l-9 -24 -7 23 c-8 26 2 48 15
35 6 -6 6 -19 1 -34z m-792 2 c7 -13 7 -22 0 -26 -5 -3 -10 0 -10 8 0 17 -27
30 -42 20 -7 -3 -8 -1 -4 5 11 19 44 14 56 -7z m-1723 -28 c-3 -10 -5 -4 -5
12 0 17 2 24 5 18 2 -7 2 -21 0 -30z m178 10 c-27 -19 -38 -16 -17 5 9 11 21
17 26 14 5 -3 1 -11 -9 -19z m145 0 c0 -9 -3 -13 -7 -10 -3 4 -11 -1 -18 -10
-7 -9 -17 -13 -23 -9 -9 5 -9 11 1 20 6 8 15 12 19 10 4 -2 9 0 13 6 9 15 15
12 15 -7z m199 -5 c-2 -13 0 -29 5 -36 16 -25 -2 -23 -29 4 -15 15 -20 24 -12
21 9 -3 17 2 20 14 7 26 19 24 16 -3z m1098 6 c34 -9 19 -21 -21 -16 -20 2
-33 8 -30 13 6 10 20 11 51 3z m332 -80 c-9 -12 -6 -14 20 -14 17 0 31 -4 31
-9 0 -6 -38 -7 -92 -4 -106 7 -128 13 -45 13 l57 0 0 53 1 52 20 -38 c16 -30
18 -42 8 -53z m280 20 c-17 -20 -34 -2 -21 22 5 11 7 26 5 34 -2 8 3 2 12 -13
13 -23 14 -31 4 -43z m-2142 29 c0 -7 -4 -13 -8 -13 -4 0 -9 6 -12 13 -3 8 0
14 7 14 7 0 13 -6 13 -14z m2383 7 c0 -5 -5 -10 -11 -10 -5 0 -7 5 -4 10 3 6
8 10 11 10 2 0 4 -4 4 -10z m-701 -37 c17 -21 34 -53 37 -73 4 -19 13 -43 20
-54 7 -10 10 -32 7 -51 -5 -28 1 -38 41 -79 26 -25 53 -46 61 -46 7 0 17 -5
20 -10 4 -7 -2 -9 -19 -4 -16 4 -26 2 -26 -5 0 -6 7 -11 15 -11 25 0 17 -17
-10 -22 -19 -4 -25 -1 -25 13 0 31 -12 49 -41 64 -39 21 -69 19 -96 -7 -13
-12 -23 -16 -23 -10 0 18 36 51 62 57 19 5 23 14 26 54 3 43 0 52 -25 71 -17
14 -21 21 -9 16 16 -5 17 -2 12 21 -7 29 -79 99 -84 83 -2 -6 -11 -6 -23 1
-16 8 -34 4 -85 -20 -36 -17 -62 -26 -58 -20 12 20 129 65 176 68 9 1 30 -16
47 -36z m-1801 2 c-3 -3 -9 2 -12 12 -6 14 -5 15 5 6 7 -7 10 -15 7 -18z m350
13 c5 -7 13 -29 17 -48 4 -19 12 -44 17 -54 10 -18 11 -18 20 -2 8 14 12 15
26 4 12 -10 14 -10 8 0 -5 8 -1 12 13 12 25 0 35 -16 36 -57 0 -23 -5 -33 -15
-33 -8 0 -26 -3 -39 -7 -21 -5 -23 -3 -17 13 4 10 4 15 0 12 -7 -8 -19 3 -52
50 -15 21 -18 32 -10 32 7 0 5 5 -6 11 -12 8 -15 14 -7 18 7 5 5 14 -8 28 -11
11 -17 24 -14 27 10 9 20 7 31 -6z m-388 -8 c0 -5 -9 -10 -20 -10 -11 0 -20 5
-20 10 0 6 9 10 20 10 11 0 20 -4 20 -10z m1513 -10 c3 -11 1 -23 -4 -26 -5
-3 -9 6 -9 20 0 31 6 34 13 6z m-278 -47 c-4 -32 -11 -59 -16 -61 -5 -2 -9 -8
-9 -13 0 -6 5 -7 10 -4 6 3 10 1 10 -4 0 -6 -3 -11 -8 -11 -4 0 -8 -19 -8 -42
-1 -144 -7 -269 -12 -272 -4 -2 -7 85 -8 195 0 117 3 199 9 199 5 0 6 7 3 16
-9 24 3 54 21 54 13 0 14 -9 8 -57z m-637 6 c-17 -11 -8 -13 87 -13 l80 -1 3
-46 3 -46 -53 -6 c-68 -9 -123 -9 -131 -1 -3 4 1 20 9 36 11 22 12 33 4 43 -6
7 -13 26 -16 41 -4 24 -3 26 11 14 13 -11 13 -15 3 -21z m-528 0 c0 -6 -4 -7
-10 -4 -5 3 -10 11 -10 16 0 6 5 7 10 4 6 -3 10 -11 10 -16z m440 2 c0 -5 -7
-11 -14 -14 -10 -4 -13 -1 -9 9 6 15 23 19 23 5z m324 -104 c-19 -11 -18 -27
1 -27 8 0 15 -4 15 -10 0 -5 -10 -10 -21 -10 -20 0 -21 3 -14 58 9 74 18 87
26 37 5 -29 3 -42 -7 -48z m-914 63 c0 -5 -4 -10 -9 -10 -6 0 -13 5 -16 10 -3
6 1 10 9 10 9 0 16 -4 16 -10z m2767 -37 c6 -27 9 -50 6 -53 -3 -3 -8 0 -10 7
-2 6 -17 30 -34 52 l-29 41 28 0 c26 0 30 -5 39 -47z m-2767 -4 c0 -5 -4 -9
-10 -9 -5 0 -10 7 -10 16 0 8 5 12 10 9 6 -3 10 -10 10 -16z m158 6 c-13 -10
-77 -12 -81 -2 -3 8 9 11 40 8 24 -2 43 -4 41 -6z m32 -5 c6 -11 8 -20 6 -20
-3 0 -10 9 -16 20 -6 11 -8 20 -6 20 3 0 10 -9 16 -20z m-165 0 c3 -5 1 -10
-4 -10 -6 0 -11 5 -11 10 0 6 2 10 4 10 3 0 8 -4 11 -10z m619 -24 c-3 -9 -10
-13 -16 -10 -5 3 -4 12 3 20 15 18 22 13 13 -10z m791 15 c-2 -5 -30 -9 -60
-10 -32 0 -54 3 -50 8 3 5 30 10 60 10 31 0 53 -4 50 -8z m-1301 -18 c4 -4 27
-6 51 -4 39 2 45 0 45 -18 0 -16 -9 -21 -55 -26 -64 -8 -87 -2 -83 22 2 13 -6
19 -32 24 -32 6 -30 6 16 8 28 0 54 -2 58 -6z m2291 -32 c-3 -6 -11 -8 -17 -5
-6 4 -5 9 3 15 16 10 23 4 14 -10z m-185 -10 c0 -11 5 -23 11 -27 13 -8 -25
-25 -102 -48 -59 -18 -58 -5 1 14 66 22 57 30 -31 30 -45 0 -79 3 -75 8 11 10
125 39 164 41 25 1 32 -3 32 -18z m-2282 -36 c2 -21 -2 -43 -9 -49 -9 -8 -10
-1 -6 32 3 23 1 42 -4 42 -5 0 -9 5 -9 11 0 6 6 9 13 7 6 -3 13 -22 15 -43z
m867 35 c-16 -5 -86 -16 -154 -24 -100 -13 -126 -14 -133 -4 -6 10 -8 9 -8 -3
0 -14 -18 -18 -50 -10 -10 2 -9 41 1 41 5 0 9 -3 9 -8 0 -9 66 -6 170 6 101
12 207 13 165 2z m1515 -10 c-8 -5 -17 -7 -19 -4 -3 3 1 9 9 14 8 5 17 7 19 4
3 -3 -1 -9 -9 -14z m-2420 -30 c0 -22 -2 -40 -4 -40 -2 0 -6 18 -8 40 -2 22 0
40 4 40 5 0 8 -18 8 -40z m1255 23 c-4 -10 -16 -46 -27 -80 -11 -34 -27 -68
-35 -75 -15 -12 -15 -11 -2 12 7 14 15 32 16 40 6 36 38 120 46 120 5 0 6 -8
2 -17z m549 -5 c17 -27 34 -112 17 -88 -6 8 -11 24 -11 36 0 27 -44 68 -64 61
-9 -4 -16 -2 -16 3 0 21 59 10 74 -12z m-314 -15 c0 -9 -3 -14 -6 -11 -3 4
-18 3 -32 -2 -18 -5 -31 -3 -40 6 -19 21 -15 24 33 24 35 0 45 -4 45 -17z
m120 -3 c44 -22 48 -27 25 -27 -8 0 -15 4 -15 9 0 4 -9 8 -19 8 -17 0 -21 -8
-24 -52 l-3 -53 -2 56 c-2 44 -6 58 -19 64 -10 3 -19 2 -21 -4 -4 -12 -32 -3
-32 10 0 16 70 9 110 -11z m-1068 -22 c-12 -12 -35 -1 -27 12 3 5 13 6 21 3
10 -4 12 -9 6 -15z m-202 -14 c13 -32 13 -34 -3 -34 -12 0 -40 -66 -51 -120
-3 -14 -3 1 -2 33 3 57 2 59 -21 54 -16 -3 -23 0 -19 8 3 8 -5 12 -22 12 -15
0 -55 2 -88 5 -52 4 -61 2 -59 -11 1 -9 9 -15 18 -15 19 2 27 -24 16 -51 -4
-11 -8 -14 -8 -7 -1 7 -6 10 -11 7 -6 -4 -8 -10 -5 -15 3 -4 -1 -10 -7 -13 -7
-2 -11 -6 -8 -9 3 -3 20 1 38 8 27 12 32 19 32 48 0 19 5 38 10 41 6 4 10 -28
10 -89 0 -65 4 -96 11 -96 70 0 499 92 499 107 0 17 -57 73 -74 74 -17 1 -18
2 -3 6 22 6 12 23 -14 23 -11 0 -18 4 -14 9 3 5 -1 11 -9 13 -12 2 -12 5 0 16
11 10 21 4 56 -29 l43 -42 103 17 c95 15 107 15 137 0 19 -9 48 -14 65 -12 18
2 34 -3 39 -11 5 -8 11 -9 15 -3 7 12 -41 45 -54 37 -5 -3 -27 -3 -47 2 l-38
7 65 13 c109 21 110 20 110 -33 l0 -45 -57 7 c-32 3 -66 10 -75 15 -19 10
-118 12 -142 3 -31 -12 -6 -21 41 -14 26 4 61 4 77 -1 17 -5 46 -9 65 -9 19 0
32 -2 30 -4 -2 -3 -63 -18 -134 -35 -72 -16 -283 -66 -469 -110 -187 -45 -341
-79 -343 -77 -2 2 21 12 51 22 31 11 56 22 56 27 0 4 0 23 0 43 0 21 -4 33
-10 29 -5 -3 -10 -2 -10 4 0 5 6 11 13 14 6 2 9 7 6 10 -7 9 -71 -10 -79 -23
-3 -6 -7 29 -9 77 -1 49 -4 96 -7 106 -5 14 2 17 43 18 26 0 71 4 98 9 28 4
69 8 93 9 37 1 44 -2 52 -25z m1365 3 c17 -13 17 -14 -3 -19 -15 -4 -19 -2
-15 9 5 13 2 13 -15 4 -18 -10 -21 -9 -16 4 8 19 24 19 49 2z m-1240 -88 c17
-6 15 -8 -11 -8 -16 -1 -39 6 -50 14 -18 14 -17 15 11 9 17 -4 39 -11 50 -15z
m115 -21 c24 -19 24 -19 2 -8 -13 6 -30 9 -37 6 -8 -3 -24 3 -36 13 -22 17
-21 17 13 13 18 -2 45 -13 58 -24z m1380 23 c0 -14 -27 -21 -77 -21 -55 0 -52
7 8 19 61 12 69 12 69 2z m-1700 -36 c0 -19 -4 -35 -8 -35 -4 0 -6 16 -4 35 2
19 6 35 8 35 2 0 4 -16 4 -35z m1940 6 c0 -4 -15 -11 -32 -14 -18 -4 -44 -9
-58 -13 l-25 -7 25 21 c25 21 90 31 90 13z m-1016 -35 c-3 -14 -10 -26 -15
-26 -4 0 -3 14 3 31 12 36 22 33 12 -5z m646 -42 l0 -66 -112 4 c-82 3 -122 9
-146 21 -18 10 -30 22 -27 28 8 13 64 35 106 43 l34 6 -40 -20 -40 -19 45 5
c50 6 157 42 166 55 11 19 14 7 14 -57z m-326 30 c3 -8 2 -12 -4 -9 -6 3 -10
10 -10 16 0 14 7 11 14 -7z m-1384 -73 c0 -13 -2 -13 -9 -2 -5 7 -14 10 -20 7
-12 -8 -16 16 -4 27 9 10 33 -13 33 -32z m1054 23 c3 -8 2 -12 -4 -9 -6 3 -10
10 -10 16 0 14 7 11 14 -7z m354 7 c-2 -5 6 -17 17 -26 20 -16 20 -16 -5 -11
-14 3 -52 6 -86 6 -40 0 -67 5 -80 16 -19 15 -19 16 1 8 49 -17 93 -13 153 15
1 0 1 -3 0 -8z m-628 -28 c-60 -21 -129 -57 -124 -65 4 -6 -2 -7 -15 -3 -11 3
-21 2 -21 -3 0 -5 -18 -12 -40 -16 -23 -3 -49 -11 -58 -16 -36 -20 -286 -90
-291 -81 -3 5 -17 9 -31 9 -76 0 -91 2 -84 15 6 9 5 9 -8 0 -8 -7 -17 -11 -20
-8 -3 3 -22 6 -43 7 l-37 1 25 14 c64 33 531 133 623 133 34 0 65 3 67 8 3 4
20 8 39 9 18 0 26 -1 18 -4z m398 -29 c-5 -28 -255 -114 -363 -125 -49 -5
-101 -12 -115 -15 -15 -3 -21 -2 -15 3 17 16 368 142 405 146 79 9 92 8 88 -9z
m297 0 c66 -9 146 -14 177 -12 52 4 57 3 61 -19 4 -19 -8 -31 -77 -75 -45 -29
-89 -52 -98 -52 -9 0 -15 -3 -13 -6 2 -3 -5 -11 -15 -18 -15 -9 -25 -6 -56 18
-20 17 -42 30 -49 30 -7 0 -19 8 -26 17 -12 14 -12 16 2 11 10 -4 16 -1 16 9
0 9 -7 13 -19 10 -10 -3 -16 -1 -12 4 3 5 -6 9 -20 9 -14 0 -26 -4 -26 -10 0
-5 7 -10 15 -10 8 0 15 -6 15 -13 0 -7 10 -24 22 -37 12 -12 15 -21 7 -18 -7
2 -24 -6 -36 -18 -19 -19 -32 -23 -68 -21 -25 2 -47 6 -50 9 -8 8 -65 -4 -59
-13 3 -5 -2 -6 -10 -3 -9 3 -13 11 -10 16 5 7 1 7 -11 1 -20 -12 -58 -5 -49 8
7 12 -7 11 -26 -1 -9 -5 -19 -5 -27 2 -7 6 -13 7 -13 2 0 -5 -4 -3 -9 4 -6 10
-18 9 -59 -7 -49 -20 -101 -19 -70 0 7 5 20 6 30 3 9 -2 19 -1 21 3 6 10 -70
16 -86 6 -6 -4 -34 -8 -62 -8 -27 -1 -63 -5 -80 -8 -16 -4 -5 2 25 13 30 10
75 19 100 19 25 1 73 8 105 16 86 22 389 135 393 146 5 12 7 12 147 -7z
m-1490 -14 c-3 -5 -10 -10 -16 -10 -5 0 -9 5 -9 10 0 6 7 10 16 10 8 0 12 -4
9 -10z m-86 -34 c-2 -2 -18 -7 -34 -11 l-30 -6 30 14 c27 13 45 14 34 3z m848
-2 c-3 -3 -12 -4 -19 -1 -8 3 -5 6 6 6 11 1 17 -2 13 -5z m-62 -14 c-3 -5 -14
-10 -23 -9 -14 0 -13 2 3 9 27 11 27 11 20 0z m1683 -42 c7 -7 12 -16 12 -22
0 -6 -5 -5 -12 2 -7 7 -23 12 -36 12 -13 0 -20 4 -17 10 8 14 38 13 53 -2z
m97 -18 c-3 -5 -11 -10 -16 -10 -6 0 -7 5 -4 10 3 6 11 10 16 10 6 0 7 -4 4
-10z m-1025 -52 c0 -6 -6 -5 -15 2 -8 7 -15 14 -15 16 0 2 7 1 15 -2 8 -4 15
-11 15 -16z"/>
<path d="M2078 2743 c7 -3 16 -2 19 1 4 3 -2 6 -13 5 -11 0 -14 -3 -6 -6z"/>
<path d="M376 2685 c-9 -26 -7 -32 5 -12 6 10 9 21 6 23 -2 3 -7 -2 -11 -11z"/>
<path d="M416 2645 c-9 -26 -7 -32 5 -12 6 10 9 21 6 23 -2 3 -7 -2 -11 -11z"/>
<path d="M470 2520 c-11 -22 -18 -40 -15 -40 2 0 14 18 25 40 11 22 18 40 15
40 -2 0 -14 -18 -25 -40z"/>
<path d="M690 2489 c-7 -11 -10 -23 -7 -25 2 -2 9 7 15 21 14 30 7 33 -8 4z"/>
<path d="M642 2475 c-17 -37 -14 -45 4 -12 9 16 14 31 11 33 -2 2 -9 -7 -15
-21z"/>
<path d="M756 2445 c-9 -26 -7 -32 5 -12 6 10 9 21 6 23 -2 3 -7 -2 -11 -11z"/>
<path d="M692 2395 c-17 -37 -14 -45 4 -12 9 16 14 31 11 33 -2 2 -9 -7 -15
-21z"/>
<path d="M918 1673 c7 -3 16 -2 19 1 4 3 -2 6 -13 5 -11 0 -14 -3 -6 -6z"/>
<path d="M850 1662 c0 -10 51 -24 59 -16 7 6 -2 12 -32 19 -16 4 -27 3 -27 -3z"/>
<path d="M958 1663 c7 -3 16 -2 19 1 4 3 -2 6 -13 5 -11 0 -14 -3 -6 -6z"/>
<path d="M1025 1480 c-3 -6 1 -7 9 -4 18 7 21 14 7 14 -6 0 -13 -4 -16 -10z"/>
<path d="M1472 1448 c-16 -16 -15 -53 2 -67 16 -13 26 4 26 44 0 29 -13 38
-28 23z"/>
<path d="M1466 1348 c3 -4 12 -8 20 -8 8 0 14 4 14 8 0 4 -9 8 -19 8 -11 0
-17 -4 -15 -8z"/>
<path d="M915 1310 c-3 -5 -1 -10 4 -10 6 0 11 5 11 10 0 6 -2 10 -4 10 -3 0
-8 -4 -11 -10z"/>
<path d="M1841 1304 c0 -11 3 -14 6 -6 3 7 2 16 -1 19 -3 4 -6 -2 -5 -13z"/>
<path d="M928 1273 c7 -3 16 -2 19 1 4 3 -2 6 -13 5 -11 0 -14 -3 -6 -6z"/>
<path d="M988 1193 c6 -2 18 -2 25 0 6 3 1 5 -13 5 -14 0 -19 -2 -12 -5z"/>
<path d="M1682 1140 c0 -14 2 -19 5 -12 2 6 2 18 0 25 -3 6 -5 1 -5 -13z"/>
<path d="M930 1135 c0 -8 4 -15 10 -15 5 0 7 7 4 15 -4 8 -8 15 -10 15 -2 0
-4 -7 -4 -15z"/>
<path d="M1987 1273 c-4 -3 -7 -11 -7 -17 0 -6 5 -5 12 2 6 6 9 14 7 17 -3 3
-9 2 -12 -2z"/>
<path d="M778 1063 c7 -3 16 -2 19 1 4 3 -2 6 -13 5 -11 0 -14 -3 -6 -6z"/>
<path d="M153 653 c9 -2 23 -2 30 0 6 3 -1 5 -18 5 -16 0 -22 -2 -12 -5z"/>
<path d="M130 574 c0 -17 22 -14 28 4 2 7 -3 12 -12 12 -9 0 -16 -7 -16 -16z"/>
<path d="M1824 354 c-18 -14 -18 -15 4 -4 12 6 22 13 22 15 0 8 -5 6 -26 -11z"/>
<path d="M1660 250 c8 -5 20 -10 25 -10 6 0 3 5 -5 10 -8 5 -19 10 -25 10 -5
0 -3 -5 5 -10z"/>
<path d="M5 2929 c-4 -6 -5 -12 -2 -15 2 -3 7 2 10 11 7 17 1 20 -8 4z"/>
<path d="M32 2825 c-17 -37 -14 -45 4 -12 9 16 14 31 11 33 -2 2 -9 -7 -15
-21z"/>
<path d="M157 2784 c-37 -74 -33 -83 4 -10 17 32 29 60 27 62 -2 2 -16 -21
-31 -52z"/>
<path d="M92 2795 c-17 -37 -14 -45 4 -12 9 16 14 31 11 33 -2 2 -9 -7 -15
-21z"/>
<path d="M6 2765 c-9 -26 -7 -32 5 -12 6 10 9 21 6 23 -2 3 -7 -2 -11 -11z"/>
<path d="M2267 2750 c-20 -4 -40 -10 -44 -14 -8 -8 67 3 107 15 l25 7 -25 0
c-14 0 -42 -4 -63 -8z"/>
<path d="M2593 2550 c0 -41 2 -58 4 -37 2 20 2 54 0 75 -2 20 -4 3 -4 -38z"/>
<path d="M2123 2563 c9 -2 23 -2 30 0 6 3 -1 5 -18 5 -16 0 -22 -2 -12 -5z"/>
<path d="M2068 2553 c6 -2 18 -2 25 0 6 3 1 5 -13 5 -14 0 -19 -2 -12 -5z"/>
<path d="M2193 2500 c0 -36 2 -50 4 -32 2 17 2 47 0 65 -2 17 -4 3 -4 -33z"/>
<path d="M1612 2524 c-2 -38 -15 -49 -67 -59 -22 -4 -35 -9 -30 -11 6 -2 39 2
75 10 36 8 57 15 48 15 -12 1 -18 12 -21 39 -3 34 -4 34 -5 6z"/>
<path d="M2008 2543 c6 -2 18 -2 25 0 6 3 1 5 -13 5 -14 0 -19 -2 -12 -5z"/>
<path d="M1948 2533 c6 -2 18 -2 25 0 6 3 1 5 -13 5 -14 0 -19 -2 -12 -5z"/>
<path d="M1888 2523 c6 -2 18 -2 25 0 6 3 1 5 -13 5 -14 0 -19 -2 -12 -5z"/>
<path d="M1778 2503 c6 -2 18 -2 25 0 6 3 1 5 -13 5 -14 0 -19 -2 -12 -5z"/>
<path d="M1723 2493 c9 -2 23 -2 30 0 6 3 -1 5 -18 5 -16 0 -22 -2 -12 -5z"/>
<path d="M1674 2476 c-3 -8 -4 -27 -1 -43 3 -24 4 -23 6 9 0 20 7 39 14 41 9
4 9 6 -1 6 -7 1 -15 -5 -18 -13z"/>
<path d="M1470 2439 c0 -5 5 -7 10 -4 6 3 10 8 10 11 0 2 -4 4 -10 4 -5 0 -10
-5 -10 -11z"/>
<path d="M2210 2436 c0 -2 11 -6 25 -8 13 -3 22 -1 19 3 -5 9 -44 13 -44 5z"/>
<path d="M2603 2385 c0 -33 2 -45 4 -27 2 18 2 45 0 60 -2 15 -4 0 -4 -33z"/>
<path d="M1920 2414 c-25 -8 -51 -12 -57 -9 -7 2 -13 -2 -13 -9 0 -7 -9 -21
-20 -31 -11 -10 -20 -24 -20 -32 0 -8 -4 -11 -10 -8 -5 3 -10 0 -10 -7 0 -7
-13 -29 -28 -48 -16 -19 -35 -46 -42 -60 l-13 -25 29 26 c53 48 165 121 242
156 52 24 71 38 61 43 -29 15 -75 17 -119 4z"/>
<path d="M2165 2420 c-3 -5 -2 -10 4 -10 5 0 13 5 16 10 3 6 2 10 -4 10 -5 0
-13 -4 -16 -10z"/>
<path d="M2390 2410 c0 -24 -8 -25 -34 -5 -11 8 -29 15 -40 14 -16 0 -14 -3 9
-11 17 -6 43 -22 59 -37 16 -14 25 -19 21 -11 -5 8 -8 27 -7 42 1 15 0 28 -3
28 -3 0 -5 -9 -5 -20z"/>
<path d="M1502 2390 c0 -19 2 -27 5 -17 2 9 2 25 0 35 -3 9 -5 1 -5 -18z"/>
<path d="M1435 2389 c-4 -6 -5 -12 -2 -15 2 -3 7 2 10 11 7 17 1 20 -8 4z"/>
<path d="M2217 2377 c-4 -10 2 -13 19 -9 13 2 24 0 24 -5 0 -5 7 -10 15 -10
22 0 19 5 -15 22 -35 18 -37 18 -43 2z"/>
<path d="M1392 2333 c-30 -44 -37 -60 -16 -37 21 22 47 64 40 64 -3 0 -13 -12
-24 -27z"/>
<path d="M1161 2266 c-9 -10 -8 -15 2 -19 8 -3 13 3 13 14 0 23 0 23 -15 5z"/>
<path d="M2380 2273 c0 -5 6 -15 13 -23 10 -12 9 -12 -6 -1 -22 17 -23 16 -32
-36 -4 -29 -3 -43 4 -43 6 0 11 8 11 18 0 10 9 25 20 35 24 20 25 30 5 47 -8
7 -15 8 -15 3z"/>
<path d="M2613 2235 c0 -22 2 -30 4 -17 2 12 2 30 0 40 -3 9 -5 -1 -4 -23z"/>
<path d="M2743 2173 c9 -2 23 -2 30 0 6 3 -1 5 -18 5 -16 0 -22 -2 -12 -5z"/>
<path d="M1186 2153 c-6 -14 -5 -15 5 -6 7 7 10 15 7 18 -3 3 -9 -2 -12 -12z"/>
<path d="M2688 2163 c7 -3 16 -2 19 1 4 3 -2 6 -13 5 -11 0 -14 -3 -6 -6z"/>
<path d="M2588 2153 c7 -3 16 -2 19 1 4 3 -2 6 -13 5 -11 0 -14 -3 -6 -6z"/>
<path d="M2807 2119 c-20 -23 -46 -70 -59 -104 l-22 -62 -65 5 c-63 5 -65 4
-51 -14 19 -23 -149 92 -172 118 -10 11 -18 17 -18 13 0 -21 28 -49 90 -90 69
-46 85 -60 54 -48 -8 3 -26 -5 -42 -18 -20 -18 -23 -19 -12 -4 15 19 14 19
-10 2 -51 -35 -120 -67 -147 -67 -22 -1 -42 -16 -87 -66 -59 -66 -59 -66 -43
-93 15 -24 21 -26 69 -23 48 2 56 0 82 -27 16 -17 33 -28 37 -25 5 3 30 11 56
19 27 7 58 16 71 20 l22 7 -25 -53 c-14 -30 -25 -67 -25 -83 l0 -29 26 24 c15
13 39 51 55 83 15 33 34 63 41 67 7 5 33 9 58 9 32 0 41 3 30 10 -8 5 -26 7
-40 4 -18 -4 -14 1 18 21 28 17 49 41 62 70 24 52 25 71 5 109 -20 38 -20 39
19 99 19 28 40 71 47 95 9 31 17 42 33 43 15 0 17 2 6 6 -8 3 -18 10 -21 15
-3 5 -22 -9 -42 -33z m-97 -233 c0 -2 -8 -10 -17 -17 -16 -13 -17 -12 -4 4 13
16 21 21 21 13z m35 -17 c11 -16 1 -19 -13 -3 -7 8 -8 14 -3 14 5 0 13 -5 16
-11z"/>
<path d="M2430 2123 c0 -11 3 -14 8 -7 4 6 14 14 22 17 10 4 8 6 -7 6 -16 1
-23 -5 -23 -16z"/>
<path d="M1589 2073 l-34 -38 38 34 c34 33 42 41 34 41 -2 0 -19 -17 -38 -37z"/>
<path d="M2648 2103 c7 -3 16 -2 19 1 4 3 -2 6 -13 5 -11 0 -14 -3 -6 -6z"/>
<path d="M1390 2045 c0 -19 5 -35 10 -35 6 0 10 16 10 35 0 19 -4 35 -10 35
-5 0 -10 -16 -10 -35z"/>
<path d="M2790 1825 c0 -25 -30 -78 -59 -103 -17 -16 -20 -22 -8 -18 9 3 17 1
17 -4 0 -6 18 -10 41 -10 22 0 38 4 34 9 -3 6 27 7 75 4 54 -3 80 -1 80 6 0 6
7 11 15 11 11 0 15 12 15 50 0 56 6 53 -137 65 -63 5 -73 4 -73 -10z m167
-111 c-3 -3 -12 -4 -19 -1 -8 3 -5 6 6 6 11 1 17 -2 13 -5z"/>
<path d="M2985 1692 c-16 -12 -16 -32 0 -32 8 0 15 9 15 20 0 22 -1 23 -15 12z"/>
<path d="M2986 1625 c-6 -24 3 -236 11 -244 2 -3 3 57 2 132 -1 75 -3 137 -4
137 -2 0 -6 -11 -9 -25z"/>
<path d="M2400 1570 c0 -16 5 -30 10 -30 6 0 10 14 10 30 0 17 -4 30 -10 30
-5 0 -10 -13 -10 -30z"/>
<path d="M2991 1354 c0 -11 3 -14 6 -6 3 7 2 16 -1 19 -3 4 -6 -2 -5 -13z"/>
<path d="M2242 1285 c-1 -22 3 -58 7 -80 l9 -40 0 40 c1 22 -3 58 -7 80 l-9
40 0 -40z"/>
<path d="M2972 1195 c12 -22 22 -41 23 -42 1 -2 2 12 2 30 0 17 -2 26 -5 19
-2 -8 -10 -5 -23 10 -17 20 -16 17 3 -17z"/>
<path d="M2261 1134 c0 -11 3 -14 6 -6 3 7 2 16 -1 19 -3 4 -6 -2 -5 -13z"/>
<path d="M2374 1113 c-1 -10 -4 -36 -9 -57 -6 -28 -5 -37 4 -32 6 4 11 1 11
-9 0 -10 -5 -14 -12 -9 -10 6 -10 4 0 -7 6 -7 13 -24 13 -38 1 -17 3 -20 6 -8
6 21 23 23 23 1 0 -8 4 -13 10 -9 5 3 7 11 5 18 -10 35 -13 77 -5 77 4 0 11
-8 13 -17 3 -12 5 -9 6 8 1 26 -35 89 -54 96 -6 2 -11 -5 -11 -14z"/>
<path d="M2271 1074 c0 -11 3 -14 6 -6 3 7 2 16 -1 19 -3 4 -6 -2 -5 -13z"/>
<path d="M2282 1020 c0 -14 2 -19 5 -12 2 6 2 18 0 25 -3 6 -5 1 -5 -13z"/>
<path d="M2705 793 c2 -21 4 -43 4 -50 1 -6 10 -9 21 -6 36 10 19 93 -19 93
-6 0 -8 -16 -6 -37z"/>
</g>
</svg>
