<?xml version="1.0" standalone="no"?>
<!DOCTYPE svg PUBLIC "-//W3C//DTD SVG 20010904//EN"
 "http://www.w3.org/TR/2001/REC-SVG-20010904/DTD/svg10.dtd">
<svg version="1.0" xmlns="http://www.w3.org/2000/svg"
 width="300.000000pt" height="300.000000pt" viewBox="0 0 300.000000 300.000000"
 preserveAspectRatio="xMidYMid meet">

<g transform="translate(0.000000,300.000000) scale(0.100000,-0.100000)"
fill="#000000" stroke="none">
<path d="M0 2546 l0 -453 40 -7 c45 -7 90 -26 90 -37 0 -4 -15 -2 -32 5 -18 8
-48 17 -65 21 l-33 7 0 -386 0 -386 36 0 36 0 -7 -41 c-5 -30 -3 -44 6 -50 9
-6 -1 -9 -28 -9 l-43 0 0 -120 0 -121 63 7 64 6 6 -52 c4 -29 14 -61 24 -72
15 -16 18 -17 31 -4 9 8 20 43 27 78 l11 63 56 10 c43 8 62 17 78 37 21 28 50
38 50 18 0 -5 -9 -10 -19 -10 -11 0 -23 -5 -27 -11 -5 -9 1 -10 20 -5 41 10
31 -3 -19 -25 -38 -17 -45 -24 -45 -48 0 -104 201 -153 250 -62 14 26 12 88
-4 132 -11 33 -11 36 4 32 19 -5 302 85 311 99 3 5 9 9 13 8 15 -4 66 12 66
21 0 5 6 9 13 9 6 0 77 27 157 59 80 32 146 58 148 56 11 -10 -72 -185 -88
-185 -4 0 -31 -16 -60 -35 l-51 -34 -40 25 c-36 22 -47 24 -99 18 -33 -4 -60
-9 -60 -13 0 -3 23 -18 50 -33 33 -19 48 -32 44 -42 -4 -10 3 -16 23 -19 18
-2 10 -5 -22 -6 l-50 -2 27 -15 c16 -8 28 -18 28 -22 0 -4 -18 -23 -41 -42
l-41 -36 58 6 c55 5 114 32 114 51 0 4 20 -2 44 -14 55 -27 68 -62 25 -71 -41
-8 -63 -49 -63 -113 1 -30 6 -59 13 -66 6 -6 11 -14 11 -18 0 -4 -34 -23 -76
-44 -42 -21 -86 -48 -98 -60 -21 -21 -100 -45 -147 -45 -32 0 -12 18 33 32 37
11 39 13 18 18 -40 9 -34 28 12 38 l43 10 -38 1 c-33 1 -38 4 -37 24 1 12 1
38 0 57 l-2 35 -10 -32 c-6 -18 -15 -33 -19 -33 -5 0 -6 7 -2 16 4 12 2 15 -8
12 -8 -3 -14 -16 -15 -29 -2 -53 -4 -59 -24 -59 -16 0 -20 7 -20 35 0 19 5 35
11 35 6 0 3 7 -5 16 -9 8 -16 21 -17 27 0 7 -4 3 -9 -9 -7 -19 -17 -20 -112
-21 l-103 -1 85 9 c84 9 117 26 106 55 -2 6 0 17 5 25 7 11 9 9 9 -8 0 -27 19
-41 22 -16 0 10 2 23 2 30 1 6 4 14 7 18 10 10 -8 78 -24 90 -7 5 -12 16 -10
23 8 21 -11 13 -30 -14 -16 -21 -17 -27 -5 -41 10 -13 10 -17 0 -20 -6 -3 -9
-9 -6 -15 4 -5 8 -30 10 -53 3 -35 0 -45 -14 -49 -35 -10 -247 -17 -234 -8 21
14 -36 22 -164 22 -64 0 -115 4 -119 10 -4 6 48 11 147 11 197 2 155 8 -80 11
l-182 3 0 -377 0 -378 1500 0 1500 0 0 379 c0 243 -4 382 -10 386 -13 8 -13
45 0 45 6 0 10 9 10 20 0 12 -7 20 -16 20 -12 0 -15 7 -12 24 8 38 -6 50 -56
51 -25 0 -46 4 -46 8 0 5 -10 5 -21 2 -16 -5 -20 -3 -17 6 3 8 12 13 22 11 9
-2 16 2 16 8 0 15 -154 19 -197 5 -18 -6 -23 -2 -29 19 -10 40 -23 31 -14 -9
9 -39 3 -75 -12 -75 -5 0 -8 15 -7 32 2 22 -1 32 -9 31 -7 -2 -12 9 -12 27 0
17 -3 30 -7 30 -5 0 -8 -37 -8 -82 l0 -81 -30 -9 c-16 -4 -47 -9 -68 -10 -21
-1 -33 -5 -26 -9 7 -4 18 -5 25 -2 17 6 37 -34 31 -63 -2 -14 1 -24 7 -24 8 0
11 12 8 33 -5 41 18 66 39 41 10 -12 10 -22 2 -45 -9 -23 -9 -29 2 -29 8 0 17
9 20 20 4 14 15 20 36 20 35 0 40 -26 7 -33 -13 -2 2 -5 32 -7 30 -1 66 -6 80
-10 25 -8 25 -8 -5 -10 l-30 -3 35 -7 35 -7 -36 -2 c-20 0 -58 -4 -85 -8 -36
-5 -43 -8 -29 -14 15 -6 10 -8 -20 -9 -39 -2 -39 -3 -10 -10 17 -4 52 -8 79
-9 83 -2 43 -13 -71 -20 l-108 -7 105 -10 c94 -10 99 -11 45 -13 -33 -2 -82
-6 -110 -10 l-50 -7 45 -7 c25 -4 81 -11 125 -16 74 -8 67 -9 -95 -11 l-175
-2 155 -19 c85 -10 166 -19 180 -19 14 -1 -11 -8 -55 -16 -44 -7 -88 -18 -98
-24 -10 -6 -49 -9 -90 -6 -84 5 -50 -5 86 -24 90 -12 106 -23 39 -26 -49 -2
-176 -16 -180 -19 -2 -2 32 -11 75 -21 l78 -18 -46 -6 c-26 -3 -54 -12 -62
-19 -9 -7 -22 -9 -28 -5 -7 4 -9 3 -6 -3 3 -5 -15 -15 -40 -21 -40 -11 -47
-11 -58 5 -18 25 -48 140 -42 157 3 8 2 16 -3 18 -5 2 -11 17 -13 33 -2 17 -7
36 -11 43 -7 12 -14 65 -16 117 l0 30 -19 -40 c-11 -22 -23 -49 -26 -60 l-7
-20 -8 20 c-4 11 -3 33 1 49 5 16 7 31 5 33 -8 9 -25 -29 -50 -112 -36 -118
-75 -223 -87 -231 -16 -10 -9 72 12 137 12 35 21 81 22 102 0 20 3 37 6 37 16
0 41 62 41 102 0 35 -5 49 -27 70 -64 58 -114 78 -91 36 7 -13 20 -32 28 -42
14 -18 14 -18 -7 -7 -13 6 -23 18 -23 27 0 8 -16 24 -36 36 l-36 21 118 42
c141 49 229 94 274 140 40 41 36 55 -27 95 -105 67 -277 110 -442 110 -94 0
-107 -2 -130 -22 -25 -22 -25 -22 -8 -1 l19 21 -44 -5 c-24 -3 -61 -10 -83
-16 -22 -6 -44 -10 -49 -8 -23 6 -126 -24 -161 -46 -37 -24 -38 -24 -20 -4
l19 22 -29 -7 c-17 -4 -58 -15 -92 -24 -35 -10 -63 -13 -63 -9 0 5 4 9 8 9 5
0 14 21 21 48 7 26 18 61 26 77 l14 30 -4 -45 c-4 -40 -3 -39 11 18 12 48 20
62 34 62 11 0 56 15 102 34 46 19 112 46 148 60 36 15 88 38 117 51 28 14 57
25 63 25 6 0 17 6 24 13 16 16 108 46 269 88 65 18 116 33 114 35 -2 2 -48 4
-103 5 -54 1 -108 5 -118 8 -22 8 192 41 266 41 26 0 58 4 72 10 25 9 26 12
26 104 0 52 -4 106 -10 120 -8 21 -7 24 8 19 16 -5 16 -5 0 12 -16 17 -15 20
13 46 27 26 30 33 28 86 -1 32 3 68 9 80 6 11 15 46 18 77 6 54 15 68 29 46 4
-6 1 -19 -7 -28 -11 -15 -11 -15 3 -5 9 7 19 10 22 6 4 -3 7 1 7 10 0 10 -11
27 -25 39 -14 12 -25 29 -25 37 0 32 -48 117 -76 135 -29 19 -29 19 -11 -1 11
-13 13 -20 5 -20 -7 -1 -27 -4 -43 -8 -24 -5 -35 -2 -53 18 l-22 24 32 -5 c23
-3 30 -1 23 6 -6 6 -26 13 -45 16 -19 2 -53 12 -74 21 -30 13 -56 15 -110 10
-91 -8 -206 -34 -206 -47 0 -6 -6 -8 -14 -5 -17 7 -103 -18 -123 -35 -8 -7
-22 -13 -30 -14 -57 -9 -298 -157 -286 -177 3 -6 1 -7 -6 -3 -6 4 -24 0 -38
-9 -19 -13 -22 -19 -13 -25 9 -6 6 -11 -11 -21 -22 -11 -23 -11 -10 4 24 30
-1 18 -55 -25 -29 -24 -80 -63 -113 -87 -34 -24 -59 -47 -56 -51 2 -4 -5 -16
-18 -26 l-22 -19 19 23 c26 30 14 28 -36 -8 -22 -16 -37 -30 -32 -30 6 0 15 5
22 12 6 6 14 9 18 6 3 -3 -16 -21 -43 -39 -26 -18 -61 -43 -76 -56 -31 -25
-53 -31 -41 -10 5 6 -29 -19 -75 -57 -55 -45 -79 -60 -71 -45 l11 24 -20 -23
c-11 -13 -22 -23 -26 -22 -3 0 -17 -7 -31 -17 -23 -15 -24 -17 -8 -26 10 -6
54 -7 106 -3 101 8 129 0 72 -21 -32 -11 -69 -11 -204 -3 -91 6 -193 13 -226
16 l-61 6 -7 -37 c-4 -20 -9 -35 -11 -33 -2 2 -8 40 -14 86 -11 88 -41 170
-72 198 -10 9 -19 21 -19 26 0 14 22 9 42 -9 21 -19 63 -29 53 -13 -4 6 -3 10
2 9 19 -3 23 2 11 15 -11 12 -16 12 -35 1 -17 -12 -23 -12 -32 -1 -12 14 2 29
74 81 46 33 75 62 164 163 35 39 68 72 72 72 16 0 9 -23 -16 -55 -13 -18 -22
-35 -19 -37 2 -3 22 -2 44 2 22 4 40 5 40 2 0 -2 7 1 16 9 8 7 13 21 11 31 -3
10 -1 16 3 13 5 -3 12 0 17 7 4 7 14 13 21 13 6 0 12 5 13 10 0 6 7 17 15 26
12 13 12 18 3 21 -9 3 -10 6 -2 11 6 4 19 0 27 -9 9 -9 23 -13 31 -10 8 3 15
1 15 -4 0 -17 92 18 121 46 16 15 30 26 30 23 1 -2 5 -86 8 -186 l6 -182 25
20 c24 20 24 20 3 14 l-23 -6 1 203 c1 112 4 193 6 180 4 -23 5 -23 20 -5 8
10 12 12 8 6 -3 -7 -1 -13 4 -13 6 0 11 4 11 9 0 9 38 24 54 22 17 -3 36 22
31 40 -5 14 -2 17 9 13 9 -3 16 -1 16 6 0 6 4 9 9 6 11 -7 96 9 136 25 36 15
53 18 128 20 31 1 57 6 57 11 0 4 11 8 24 8 13 0 31 10 40 23 9 12 14 16 10 9
-5 -11 -2 -11 16 0 17 10 24 10 27 1 2 -7 10 -10 16 -7 7 2 67 5 134 7 95 3
127 7 150 21 16 10 7 -1 -20 -25 -38 -35 -46 -48 -41 -66 3 -13 10 -20 15 -17
5 3 7 10 4 15 -4 5 3 21 14 35 l20 25 -6 -36 -6 -37 34 7 c59 12 69 16 69 31
0 8 7 14 16 14 8 0 12 -4 9 -10 -4 -6 15 -10 49 -10 60 0 75 10 50 34 -18 19
-53 21 -89 4 -21 -9 -31 -9 -46 0 -10 7 -26 12 -35 12 -12 0 -14 3 -6 13 14
17 172 139 172 134 0 -3 -32 -30 -70 -61 -39 -31 -70 -62 -69 -69 0 -9 2 -9 5
-1 3 7 14 10 24 7 11 -3 18 -8 16 -12 -2 -3 15 -4 39 -3 47 4 85 -11 85 -33 0
-9 16 -16 48 -20 69 -10 122 -25 162 -45 45 -24 112 -93 144 -150 14 -25 26
-38 26 -30 0 13 1 13 10 0 5 -8 10 -12 10 -7 0 4 24 -6 53 -23 30 -16 63 -30
75 -30 35 0 26 -17 -23 -46 -49 -28 -62 -43 -17 -20 38 20 102 31 102 18 0 -6
-24 -21 -52 -35 -29 -13 -63 -33 -76 -43 -23 -19 -23 -19 -5 -59 22 -48 145
-236 167 -254 13 -11 9 -18 -34 -52 -27 -22 -58 -56 -69 -77 -11 -20 -20 -30
-21 -21 0 9 11 33 25 53 14 20 25 39 25 42 0 2 -18 -5 -40 -16 -23 -12 -38
-25 -35 -29 2 -5 -3 -8 -12 -7 -11 1 -27 -18 -45 -54 -17 -33 -28 -46 -28 -33
0 23 41 87 73 114 15 13 2 10 -43 -10 -36 -17 -64 -35 -62 -41 1 -6 -2 -9 -7
-6 -11 7 -38 -33 -56 -82 -10 -27 -14 -31 -14 -15 -1 12 3 33 9 47 l10 26 -35
-15 c-20 -8 -45 -21 -56 -29 l-21 -14 21 -7 c42 -13 19 -20 -52 -17 -55 3 -83
0 -112 -14 -22 -10 -47 -18 -55 -19 -8 -1 -21 -3 -28 -4 -7 0 -10 -6 -7 -11 4
-6 3 -9 -2 -8 -15 4 -51 -13 -56 -26 -3 -8 -22 -19 -41 -26 -25 -8 -38 -19
-42 -37 l-7 -26 -17 23 c-17 22 -20 23 -51 10 -19 -8 -63 -33 -99 -56 -81 -52
-130 -77 -130 -67 0 5 23 21 50 36 28 16 50 30 50 33 0 3 -5 2 -12 -2 -6 -4
-70 -31 -142 -61 -72 -30 -117 -52 -101 -49 17 3 48 7 70 10 22 3 58 8 80 12
22 3 74 9 115 13 l75 8 -55 3 c-47 2 -51 3 -25 10 17 4 42 8 58 9 27 1 27 0
27 -61 0 -59 11 -70 23 -23 4 18 5 18 6 -2 0 -13 6 -23 12 -23 6 0 8 8 6 18
-8 27 -17 119 -11 105 3 -7 16 -13 29 -13 23 0 35 -29 35 -86 0 -13 5 -24 11
-24 7 0 9 18 5 53 l-6 52 15 -40 c8 -22 18 -46 20 -54 3 -8 8 -11 11 -8 3 3
-2 29 -10 58 -9 29 -14 55 -11 57 3 3 5 0 5 -6 0 -7 15 -12 34 -12 19 0 38 -5
42 -11 5 -9 -1 -10 -20 -5 -18 4 -25 3 -21 -4 3 -5 30 -10 58 -10 29 0 97 -7
152 -15 154 -23 187 -26 182 -12 -3 9 17 12 70 13 42 1 78 6 82 11 3 6 27 -4
55 -23 50 -35 44 -47 -9 -16 -28 17 -33 17 -80 1 -27 -10 -42 -18 -32 -18 11
-1 34 -8 53 -17 32 -15 42 -15 136 0 113 19 173 45 190 81 6 14 15 25 21 25
17 0 111 51 135 72 l22 21 1 -84 c0 -95 8 -212 15 -218 2 -2 4 111 4 253 0
203 -3 256 -12 250 -9 -6 -9 -3 1 9 21 26 6 61 -48 109 -47 42 -104 68 -150
68 -17 0 -27 11 -43 48 -11 26 -28 65 -37 87 -10 22 -28 67 -41 99 -22 57 -23
59 -5 72 23 17 37 18 54 2 10 -10 15 -10 18 -1 2 7 10 10 16 8 7 -2 37 -6 68
-8 31 -2 68 -12 84 -23 16 -10 26 -13 22 -6 -13 19 5 14 37 -12 28 -23 28 -24
8 -35 -14 -7 -18 -17 -15 -31 3 -11 10 -17 15 -14 6 4 14 0 19 -7 5 -8 9 194
9 479 l0 492 -1500 0 -1500 0 0 -454z m2134 301 c-2 -7 -14 -19 -27 -26 -21
-13 -21 -12 2 13 27 29 33 32 25 13z m-54 -41 c0 -2 -8 -10 -17 -17 -16 -13
-17 -12 -4 4 13 16 21 21 21 13z m43 -268 c37 -14 34 -22 -12 -38 -36 -11 -41
-11 -70 11 -30 22 -31 24 -14 37 18 13 45 10 96 -10z m-88 -48 l29 -30 -30 3
c-16 2 -40 9 -52 16 -19 10 -21 15 -11 27 17 21 32 17 64 -16z m-272 -12 c-17
-18 -36 -43 -42 -55 -13 -26 -52 -31 -70 -9 -17 20 24 48 57 39 18 -4 23 -2
20 8 -2 7 9 20 26 30 43 23 44 23 9 -13z m430 4 c16 -17 15 -20 -6 -38 -13
-11 -28 -19 -35 -16 -7 2 -12 -1 -12 -7 0 -21 -27 -11 -39 15 -6 15 -10 28 -9
29 11 9 65 34 74 35 6 0 18 -8 27 -18z m-373 -11 c-1 -24 -80 -79 -80 -55 0
19 52 73 65 68 8 -4 15 -9 15 -13z m540 -60 c14 -50 13 -51 -14 -51 -44 0 -73
18 -85 50 -20 59 15 70 49 15 28 -45 38 -46 12 -1 -14 24 -17 36 -9 39 19 7
36 -12 47 -52z m-388 24 c-2 -11 -12 -29 -22 -39 -18 -19 -19 -19 -26 8 -4 16
-1 32 6 42 18 21 46 13 42 -11z m126 -15 c13 -16 20 -30 16 -30 -15 0 -64 42
-59 51 10 15 20 10 43 -21z m136 4 c13 -35 7 -44 -34 -44 -47 0 -50 10 -14 39
32 25 40 26 48 5z m-177 -38 c-4 -11 -87 -37 -87 -26 0 13 37 40 45 33 4 -5 2
3 -5 16 l-12 23 31 -18 c17 -10 30 -23 28 -28z m-412 3 c-10 -15 -25 -10 -19
6 4 8 10 12 15 9 5 -3 7 -10 4 -15z m131 -20 c-3 -17 -6 -41 -6 -52 0 -11 -3
-17 -7 -13 -4 4 -6 23 -4 42 1 20 -2 34 -9 34 -6 0 -8 5 -5 10 3 6 13 10 22
10 12 0 14 -7 9 -31z m204 27 c0 -2 -8 -10 -17 -17 -16 -13 -17 -12 -4 4 13
16 21 21 21 13z m170 -6 c0 -5 -5 -10 -11 -10 -5 0 -7 5 -4 10 3 6 8 10 11 10
2 0 4 -4 4 -10z m-1566 -62 c-9 -15 -25 -8 -33 15 -13 33 -1 43 20 16 9 -13
15 -27 13 -31z m1106 12 c0 -23 -5 -40 -11 -40 -6 0 -9 -7 -6 -14 4 -10 1 -13
-9 -9 -7 3 -14 14 -14 25 0 11 -5 28 -10 39 -9 16 -7 21 12 29 36 14 38 12 38
-30z m385 -40 c0 -43 -1 -45 -32 -48 -21 -2 -37 -12 -48 -29 -12 -18 -20 -22
-28 -14 -7 7 -5 16 7 30 19 21 16 71 -4 71 -25 0 -6 19 28 28 66 18 77 13 77
-38z m96 41 c-11 -7 -11 -12 2 -32 14 -22 14 -28 -1 -61 -19 -43 -33 -50 -26
-14 4 23 -17 56 -35 56 -4 0 -6 14 -3 30 4 27 8 30 41 30 24 0 31 -3 22 -9z
m175 -9 c16 -10 26 -49 19 -72 -9 -29 -34 -25 -41 8 -8 32 -23 54 -33 47 -4
-2 -8 2 -8 10 0 16 43 21 63 7z m-1521 -442 c-10 -11 -22 -20 -28 -20 -5 0 1
9 14 20 31 25 37 25 14 0z m-700 -20 c5 -15 -8 -60 -18 -60 -1 0 -3 18 -4 40
-1 42 11 54 22 20z m2339 -128 c3 -5 -1 -9 -9 -9 -8 0 -12 4 -9 9 3 4 7 8 9 8
2 0 6 -4 9 -8z m472 -39 c-11 -11 -48 -14 -41 -3 3 5 16 10 27 10 12 0 18 -3
14 -7z m54 -14 c0 -6 -4 -7 -10 -4 -5 3 -10 11 -10 16 0 6 5 7 10 4 6 -3 10
-11 10 -16z m-2740 -128 c0 -17 -81 -100 -127 -129 -71 -44 -109 -52 -48 -9
61 43 105 88 109 113 2 13 10 18 24 16 11 -2 23 2 27 8 8 12 15 13 15 1z m-75
-31 c-8 -13 -66 -43 -71 -37 -5 5 55 45 69 46 5 1 5 -4 2 -9z m1625 -80 c0 -5
-2 -10 -4 -10 -3 0 -8 5 -11 10 -3 6 -1 10 4 10 6 0 11 -4 11 -10z m209 -44
c-3 -3 -11 5 -18 17 -13 21 -12 21 5 5 10 -10 16 -20 13 -22z m-1871 -113
c-10 -2 -28 -2 -40 0 -13 2 -5 4 17 4 22 1 32 -1 23 -4z m40 -45 c-12 -64 -18
-73 -18 -27 0 41 10 79 20 79 4 0 3 -24 -2 -52z m95 8 c-4 -29 0 -55 11 -77
18 -36 16 -48 -4 -24 -19 23 -28 18 -23 -12 3 -24 2 -25 -6 -8 -5 11 -13 37
-16 58 -5 32 -10 38 -26 34 -15 -4 -19 0 -19 18 0 25 34 54 66 54 20 1 21 -3
17 -43z m47 20 c0 -8 -4 -18 -10 -21 -5 -3 -10 3 -10 14 0 12 5 21 10 21 6 0
10 -6 10 -14z m-170 -58 c0 -45 -2 -49 -13 -34 -14 19 -11 86 4 86 5 0 9 -23
9 -52z m167 -10 c-3 -8 -6 -5 -6 6 -1 11 2 17 5 13 3 -3 4 -12 1 -19z m27 -64
c3 -8 2 -12 -4 -9 -6 3 -10 10 -10 16 0 14 7 11 14 -7z m-204 -34 c0 -5 -4
-10 -10 -10 -5 0 -10 5 -10 10 0 6 5 10 10 10 6 0 10 -4 10 -10z m1630 0 c-34
-11 -80 -12 -80 -2 0 5 24 9 53 10 40 0 46 -2 27 -8z m-120 -10 c0 -7 -119
-30 -128 -24 -1 0 0 7 3 15 6 16 125 24 125 9z m-160 -20 c0 -8 -21 -13 -97
-24 -14 -2 -23 2 -23 10 0 12 27 19 93 22 15 1 27 -2 27 -8z m-150 -19 c0 -5
-23 -11 -51 -15 -29 -4 -65 -10 -82 -13 -23 -5 -29 -3 -25 8 3 8 18 17 34 20
45 10 124 10 124 0z m-176 -31 c-10 -9 -107 -31 -112 -25 -2 2 -1 12 2 23 5
14 17 19 53 21 26 1 49 4 52 7 3 3 7 0 9 -6 3 -7 0 -15 -4 -20z m42 -188 c-9
-8 -26 10 -26 26 1 15 2 15 15 -2 8 -11 13 -21 11 -24z m60 6 c-16 -9 -36 -3
-36 11 0 5 12 6 26 3 22 -4 24 -6 10 -14z m364 1 c0 -5 -4 -7 -10 -4 -5 3 -22
-7 -37 -22 -26 -28 -23 -13 5 20 17 19 42 23 42 6z m1090 -19 c0 -5 -4 -10
-10 -10 -5 0 -10 -7 -10 -17 0 -9 -3 -14 -6 -10 -8 8 5 47 17 47 5 0 9 -4 9
-10z m-1487 -15 c-3 -9 -8 -14 -10 -11 -3 3 -2 9 2 15 9 16 15 13 8 -4z m1669
-49 c8 -15 8 -17 -3 -10 -19 12 -52 11 -61 -1 -4 -5 -8 0 -8 11 0 18 5 21 31
20 18 -1 35 -9 41 -20z m-132 -6 c0 -5 -5 -10 -11 -10 -5 0 -7 5 -4 10 3 6 8
10 11 10 2 0 4 -4 4 -10z m-1258 -88 c10 -20 17 -36 15 -38 -1 -1 -44 -13 -94
-27 -91 -25 -93 -25 -93 -5 0 11 9 31 20 45 11 14 20 34 20 45 0 17 6 19 58
17 54 -2 58 -4 74 -37z m315 26 c3 7 25 12 59 12 46 0 54 -3 54 -19 0 -10 9
-30 20 -44 l20 -25 -77 -42 c-65 -35 -84 -41 -130 -39 -45 2 -53 5 -53 22 0
10 9 31 19 46 11 15 23 40 27 57 10 42 13 45 36 31 16 -9 22 -9 25 1z m-599
-49 c16 -25 15 -25 -21 -34 -30 -8 -35 3 -15 35 16 25 20 25 36 -1z m-598 1
c0 -6 -31 -9 -77 -8 -78 1 -78 1 -23 8 87 11 100 11 100 0z m60 6 c0 -11 -19
-15 -25 -6 -3 5 1 10 9 10 9 0 16 -2 16 -4z m-66 -48 c-3 -13 -8 -25 -10 -27
-2 -3 -48 -6 -102 -7 -89 -3 -94 -2 -67 11 22 10 25 14 11 14 -37 2 -8 12 55
20 114 15 121 14 113 -11z m116 -53 c-7 -8 -16 -15 -21 -15 -5 0 -9 7 -9 15 0
9 9 15 21 15 18 0 19 -2 9 -15z m-135 -14 c-10 -9 -59 -16 -80 -11 -12 3 41
17 70 19 12 1 15 -3 10 -8z m273 -127 c-15 -16 -88 -32 -88 -19 0 9 61 34 85
35 18 0 18 -1 3 -16z"/>
<path d="M1500 2508 c-52 -7 -85 -21 -161 -66 -68 -40 -95 -61 -92 -72 4 -11
3 -12 -4 -2 -8 10 -16 10 -39 -4 -24 -14 -33 -29 -43 -72 -21 -92 -27 -102
-60 -102 -21 0 -30 6 -34 22 -4 14 -1 26 8 31 8 4 15 17 15 27 0 11 5 20 10
20 14 0 -11 38 -29 45 -18 7 -53 -25 -47 -42 3 -7 -7 -27 -21 -44 -31 -36 -42
-87 -32 -144 7 -37 5 -42 -29 -72 -20 -18 -32 -32 -25 -33 6 0 14 4 18 10 3 5
43 34 89 64 46 31 93 66 103 78 10 13 25 24 32 26 8 2 39 22 70 46 31 23 106
78 168 122 96 67 110 81 102 97 -9 16 -8 16 8 6 15 -9 36 -4 113 30 l95 41
-75 -1 c-41 -1 -104 -6 -140 -11z m-20 -79 c0 -11 -11 -11 -29 0 -7 5 -10 14
-6 20 5 9 10 9 21 0 8 -6 14 -15 14 -20z m-100 -34 c0 -16 -27 -57 -47 -70
-26 -17 -27 -16 -14 17 5 13 12 31 15 41 5 14 46 26 46 12z m-70 -12 c0 -5 -4
-15 -10 -23 -11 -18 -25 -7 -17 15 6 15 27 21 27 8z"/>
<path d="M2404 2238 l-19 -23 23 19 c21 18 27 26 19 26 -2 0 -12 -10 -23 -22z"/>
<path d="M475 2190 c-3 -5 -2 -10 4 -10 5 0 13 5 16 10 3 6 2 10 -4 10 -5 0
-13 -4 -16 -10z"/>
<path d="M385 2100 c-27 -27 -45 -53 -41 -57 4 -4 10 -3 14 4 8 11 110 11 129
0 7 -4 14 -3 18 3 3 5 1 10 -4 10 -6 0 -11 6 -11 14 0 7 -7 27 -15 42 -8 16
-15 25 -15 20 0 -5 -6 -4 -13 2 -10 9 -25 0 -62 -38z"/>
<path d="M2076 1605 c-11 -8 -15 -15 -9 -15 6 0 16 7 23 15 16 19 11 19 -14 0z"/>
<path d="M1866 1501 c-4 -7 -5 -15 -2 -18 9 -9 19 4 14 18 -4 11 -6 11 -12 0z"/>
<path d="M2336 1262 c-3 -5 10 -8 29 -8 18 1 31 4 28 9 -6 10 -51 9 -57 -1z"/>
<path d="M1281 1213 c0 -6 -4 -20 -7 -30 -5 -14 -4 -15 5 -7 7 7 11 20 8 30
-3 11 -5 14 -6 7z"/>
<path d="M620 1051 c-24 -7 -18 -19 8 -15 6 1 56 3 110 4 68 2 88 5 67 10 -38
10 -152 10 -185 1z"/>
<path d="M2662 1005 c0 -16 2 -22 5 -12 2 9 2 23 0 30 -3 6 -5 -1 -5 -18z"/>
<path d="M756 880 c-11 -23 -15 -43 -10 -52 5 -7 7 -21 5 -32 -4 -26 7 -66 19
-66 6 0 10 10 10 23 1 19 2 19 15 -8 13 -29 13 -27 14 43 1 44 -3 72 -10 72
-5 0 -7 5 -4 10 3 6 2 10 -4 10 -6 0 -8 6 -5 14 3 8 2 16 -3 19 -4 3 -17 -12
-27 -33z"/>
<path d="M2555 900 c3 -5 8 -10 11 -10 2 0 4 5 4 10 0 6 -5 10 -11 10 -5 0 -7
-4 -4 -10z"/>
<path d="M7 799 c7 -7 15 -10 18 -7 3 3 -2 9 -12 12 -14 6 -15 5 -6 -5z"/>
<path d="M2542 785 c0 -16 2 -22 5 -12 2 9 2 23 0 30 -3 6 -5 -1 -5 -18z"/>
<path d="M220 789 c0 -5 5 -7 10 -4 6 3 10 8 10 11 0 2 -4 4 -10 4 -5 0 -10
-5 -10 -11z"/>
<path d="M45 780 c-16 -7 -17 -9 -3 -9 9 -1 20 4 23 9 7 11 7 11 -20 0z"/>
<path d="M756 705 c-3 -8 -1 -15 4 -15 13 0 22 18 11 24 -5 3 -11 -1 -15 -9z"/>
</g>
</svg>
