<?xml version="1.0" standalone="no"?>
<!DOCTYPE svg PUBLIC "-//W3C//DTD SVG 20010904//EN"
 "http://www.w3.org/TR/2001/REC-SVG-20010904/DTD/svg10.dtd">
<svg version="1.0" xmlns="http://www.w3.org/2000/svg"
 width="300.000000pt" height="300.000000pt" viewBox="0 0 300.000000 300.000000"
 preserveAspectRatio="xMidYMid meet">

<g transform="translate(0.000000,300.000000) scale(0.100000,-0.100000)"
fill="#000000" stroke="none">
<path d="M0 2853 c0 -181 6 -227 29 -217 31 13 80 22 86 15 4 -3 21 -7 38 -8
18 0 52 -4 77 -8 25 -4 70 -8 100 -8 30 -1 58 -6 62 -11 3 -5 26 -11 50 -13
92 -6 139 -13 156 -20 9 -5 32 -8 50 -8 17 0 32 -2 32 -6 0 -6 31 -12 110 -23
14 -2 39 -9 55 -16 36 -15 61 -21 94 -20 14 0 27 -4 31 -10 3 -5 30 -16 60
-24 72 -19 123 -39 131 -50 4 -5 12 -5 18 -2 6 4 11 2 11 -4 0 -7 7 -9 16 -6
9 4 22 2 28 -2 18 -15 48 -23 41 -12 -7 11 66 -20 75 -32 3 -3 19 -10 35 -14
17 -4 41 -15 54 -25 13 -10 27 -17 31 -14 4 2 8 -18 9 -45 1 -41 -2 -50 -19
-55 -30 -10 -24 -22 9 -17 16 2 38 -1 50 -7 14 -8 21 -8 21 -1 0 5 9 10 20 10
11 0 20 5 20 10 0 6 -18 10 -40 10 -39 0 -40 1 -40 35 0 21 -5 35 -12 36 -7 0
2 5 21 10 27 8 37 7 52 -7 11 -9 22 -15 25 -11 3 3 22 -1 41 -9 19 -9 38 -13
41 -10 3 4 13 -1 23 -10 10 -9 19 -11 23 -6 12 20 56 -12 62 -46 3 -18 10 -35
15 -38 5 -3 -1 -15 -12 -27 -12 -12 -25 -31 -29 -43 -8 -19 -13 -20 -71 -13
-35 4 -65 13 -67 19 -3 7 -17 27 -33 44 -22 23 -28 26 -23 11 6 -17 4 -17 -11
3 -14 19 -25 22 -58 20 -30 -2 -41 -8 -43 -21 -1 -10 -10 -27 -18 -36 -9 -10
-16 -31 -16 -47 0 -16 -4 -36 -10 -44 -6 -9 -5 -17 3 -22 6 -4 8 -10 4 -14 -9
-9 -34 22 -48 59 -11 27 -20 31 -71 27 -19 -1 -38 10 -67 39 -37 37 -39 42
-30 73 18 64 13 78 -27 78 l-37 0 7 -62 c5 -50 3 -65 -11 -80 -9 -10 -20 -38
-24 -61 -5 -34 -8 -38 -14 -21 -6 19 -17 23 -90 29 -80 6 -85 8 -110 41 -28
36 -66 45 -107 23 -16 -9 -24 -7 -42 10 -23 22 -86 45 -86 32 0 -18 28 -43 64
-55 36 -13 38 -15 41 -62 3 -47 -2 -44 -19 10 -5 14 -14 17 -46 14 -22 -2 -41
0 -43 5 -1 5 -52 10 -112 13 -61 2 -194 11 -297 19 -259 21 -240 23 -236 -22
3 -37 4 -38 53 -45 323 -42 466 -59 605 -73 91 -10 169 -21 175 -26 5 -5 17
-9 27 -9 9 0 34 -11 54 -25 45 -31 68 -32 88 -3 24 33 92 27 128 -13 31 -34
67 -38 92 -10 16 17 27 19 89 14 70 -5 121 -28 97 -43 -12 -7 -3 -40 11 -40 5
0 9 -16 9 -35 0 -29 5 -37 25 -45 22 -8 24 -14 19 -37 -4 -16 -11 -34 -16 -40
-24 -31 22 -59 50 -31 17 17 15 57 -3 64 -19 8 -20 44 -1 44 8 0 21 6 28 14
11 10 80 14 310 18 288 5 339 10 304 30 -18 10 -411 31 -498 26 -55 -3 -71 3
-47 18 6 3 8 16 5 29 -5 21 -2 23 56 29 53 5 65 3 83 -14 32 -30 70 -26 97 10
19 26 28 30 69 30 38 0 48 -4 52 -20 7 -28 52 -26 91 3 37 29 64 36 181 48 50
5 177 18 282 30 106 11 198 18 205 16 7 -3 -3 -6 -22 -6 -59 -2 -78 -10 -73
-32 4 -14 11 -18 24 -14 12 4 21 1 25 -9 3 -9 11 -13 17 -9 5 3 15 0 21 -8 6
-8 36 -27 66 -42 30 -15 66 -34 80 -42 14 -7 44 -21 68 -31 69 -28 59 -39 -48
-49 -75 -6 -138 -21 -153 -35 -5 -4 4 -16 20 -27 23 -16 48 -20 140 -21 l111
-3 1 656 2 655 -1501 0 -1500 0 0 -147z m1859 -569 c2 -2 -18 -4 -45 -3 -36 0
-44 3 -29 9 18 7 63 3 74 -6z m61 -94 c0 -7 34 -14 130 -27 51 -7 62 -6 106 3
18 3 34 2 37 -3 3 -5 -6 -8 -21 -6 -37 5 -64 -19 -71 -64 -5 -29 -11 -38 -26
-38 -13 0 -19 6 -17 17 2 15 -6 16 -83 11 -71 -5 -85 -4 -85 9 0 8 -11 25 -24
37 -23 22 -23 24 -8 50 11 21 21 26 39 23 13 -2 23 -8 23 -12z m514 -61 l71
-2 -60 -7 c-71 -9 -180 -12 -173 -5 2 3 23 6 46 7 36 1 40 3 31 19 -5 10 -9
21 -8 26 0 4 5 -2 11 -14 10 -20 19 -23 82 -24z m-977 -113 c-7 -13 -15 -22
-19 -20 -13 8 -9 42 5 47 21 7 26 -2 14 -27z m1336 7 c-7 -2 -21 -2 -30 0 -10
3 -4 5 12 5 17 0 24 -2 18 -5z m-1283 -184 c0 -12 -37 -12 -44 0 -7 11 14 20
32 13 6 -2 12 -8 12 -13z"/>
<path d="M2079 2133 c-13 -16 -12 -17 4 -4 9 7 17 15 17 17 0 8 -8 3 -21 -13z"/>
<path d="M1461 2244 c0 -11 3 -14 6 -6 3 7 2 16 -1 19 -3 4 -6 -2 -5 -13z"/>
<path d="M1064 1830 c-88 -4 -185 -11 -215 -15 -51 -8 -52 -9 -24 -16 17 -5
155 -12 307 -15 l277 -7 -11 31 -12 32 -81 -2 c-44 0 -152 -4 -241 -8z"/>
<path d="M2772 1628 c-21 -6 -30 -13 -25 -20 23 -39 -3 -88 -48 -88 -21 0
-101 -42 -94 -49 7 -7 -46 -61 -61 -61 -6 0 -26 -16 -43 -36 -25 -28 -29 -39
-21 -49 6 -8 10 -26 8 -42 -3 -25 -8 -29 -57 -36 -41 -7 -63 -5 -98 8 -27 11
-54 14 -71 10 -47 -12 -216 -14 -224 -2 -5 8 -22 7 -58 -1 -28 -7 -64 -12 -79
-12 -15 0 -36 -6 -46 -14 -17 -12 -11 -13 48 -13 81 0 94 -8 35 -21 -42 -10
-42 -10 -10 -12 17 -1 38 -3 45 -4 6 0 12 -8 12 -16 0 -9 11 -15 29 -17 16 -1
32 -7 36 -13 4 -6 13 -10 20 -8 7 2 14 -2 17 -8 2 -7 -19 -13 -57 -17 -104
-11 -95 -23 13 -19 56 2 113 2 127 0 22 -4 19 -6 -17 -16 -23 -7 -71 -15 -107
-17 -35 -3 -91 -14 -123 -24 -51 -17 -54 -19 -25 -20 17 -1 32 -6 32 -12 0 -5
5 -7 12 -3 8 5 9 2 5 -11 -7 -16 -2 -17 55 -11 35 4 78 9 97 13 23 4 32 2 27
-5 -3 -6 -28 -14 -54 -17 -69 -10 -75 -11 -94 -20 -32 -13 -19 -23 22 -18 35
5 39 3 34 -11 -5 -13 2 -16 45 -16 28 0 51 -4 51 -10 0 -5 -15 -10 -34 -10
-19 0 -38 -4 -41 -10 -3 -6 -13 -10 -22 -10 -13 0 -14 2 -2 18 12 15 12 16 -2
5 -26 -20 -116 -34 -223 -34 -88 0 -102 3 -120 21 -20 21 -21 21 -1 14 15 -5
17 -4 9 5 -7 8 -19 9 -34 3 l-24 -9 22 -12 c12 -6 22 -19 22 -28 0 -13 -3 -14
-12 -5 -7 7 -21 12 -33 12 -16 0 -17 2 -5 10 17 11 10 13 -43 10 -25 -1 -39 3
-43 14 -3 8 -12 12 -20 9 -8 -3 -14 0 -14 6 0 6 -15 11 -32 12 -30 0 -31 1
-10 9 12 5 22 12 22 16 0 3 -7 3 -16 0 -12 -5 -15 -2 -10 9 3 9 2 13 -4 10 -6
-3 -13 1 -16 9 -3 9 -11 16 -16 16 -6 0 -5 -6 2 -15 10 -12 9 -15 -6 -14 -11
1 -30 5 -44 9 l-25 8 25 1 c20 1 22 3 10 11 -12 8 -10 10 9 10 33 0 19 12 -20
16 -18 2 -38 9 -45 15 -7 5 -18 9 -26 8 -7 -1 -26 3 -41 9 -16 7 -34 12 -40
12 -8 0 -8 3 1 9 25 16 -13 30 -108 41 -52 6 -103 13 -115 16 -68 16 -255 27
-255 15 0 -4 6 -8 13 -8 85 -5 132 -13 143 -25 12 -12 -1 -14 -93 -13 -118 2
-275 -13 -268 -25 3 -4 22 -11 42 -14 78 -14 93 -18 93 -27 0 -5 -21 -7 -47
-4 -77 8 -113 15 -113 23 0 4 -21 8 -46 9 -42 1 -44 0 -27 -13 16 -13 13 -14
-37 -10 -113 9 -230 37 -257 63 -7 6 -13 18 -13 26 0 18 -28 42 -58 52 -13 4
-27 18 -33 32 -6 16 -15 23 -27 21 -16 -3 -17 -42 -20 -611 l-2 -607 1500 0
1500 0 0 480 c0 284 -4 480 -9 480 -5 0 -16 -19 -23 -42 -14 -42 -16 -43 -61
-44 -51 -2 -52 -2 -37 26 9 17 8 19 -12 11 -14 -5 -25 -19 -28 -37 -4 -20 -8
-25 -14 -16 -6 11 -11 10 -25 -2 -22 -20 -62 -25 -68 -8 -3 8 8 18 26 25 17 6
31 18 31 27 0 8 3 25 6 37 10 37 -22 41 -57 7 -26 -24 -41 -30 -97 -34 -39 -3
-85 0 -110 7 -48 14 -110 14 -118 1 -3 -4 -16 -8 -29 -8 -13 0 -36 -11 -51
-25 -21 -20 -37 -25 -73 -25 -25 1 -53 0 -61 -1 -34 -5 -61 2 -58 13 6 18 59
29 75 16 10 -8 13 -6 13 6 0 10 -9 16 -25 16 -27 0 -34 17 -11 26 8 3 32 7 53
8 21 1 53 9 71 19 21 12 38 15 50 9 9 -5 37 -10 62 -11 24 -1 50 -7 56 -12 24
-20 138 8 157 38 4 7 18 13 29 13 12 0 32 10 45 22 l23 22 29 -28 c29 -28 29
-28 62 -10 19 10 45 17 59 16 14 -1 45 4 70 11 l45 14 3 174 c2 96 0 194 -3
217 -6 39 -9 43 -28 37 -12 -3 -26 -6 -32 -6 -5 1 -23 2 -40 4 -28 2 -30 5
-28 37 7 95 0 114 -40 122 -12 2 -37 0 -55 -4z m-212 -393 c-35 -20 -62 -19
-36 0 11 8 29 15 40 15 19 -1 19 -2 -4 -15z m-80 -15 c-8 -5 -17 -7 -19 -4 -3
3 1 9 9 14 8 5 17 7 19 4 3 -3 -1 -9 -9 -14z m-450 0 c0 -5 -7 -10 -16 -10 -8
0 -12 5 -9 10 3 6 10 10 16 10 5 0 9 -4 9 -10z m716 -326 c-22 -16 -56 -19
-56 -5 0 11 29 23 40 16 5 -3 12 0 15 6 4 5 10 7 13 4 4 -4 -2 -13 -12 -21z
m-336 -19 c-7 -9 -15 -13 -18 -10 -3 2 1 11 8 20 7 9 15 13 18 10 3 -2 -1 -11
-8 -20z m263 -13 c-3 -12 -9 -22 -14 -22 -4 0 -20 -5 -36 -12 -15 -6 -34 -10
-41 -9 -7 1 -22 -5 -34 -14 -28 -19 -42 -19 -34 0 4 12 -1 14 -27 10 -25 -5
-29 -4 -20 6 7 7 44 16 83 20 47 5 79 15 97 29 30 24 34 22 26 -8z m-303 2 c0
-9 -7 -14 -17 -12 -25 5 -28 28 -4 28 12 0 21 -6 21 -16z m-1280 -40 c30 -3
62 -8 70 -11 29 -11 -33 -19 -99 -12 -47 5 -76 3 -100 -7 -18 -8 -52 -14 -75
-14 l-41 1 55 29 c43 22 64 27 95 23 22 -2 65 -7 95 -9z m1130 -75 c0 -10 1
-19 3 -19 1 0 19 6 40 14 38 13 77 7 113 -16 18 -12 143 -18 149 -8 3 6 21 10
40 10 19 0 44 4 58 9 13 5 39 10 58 12 19 2 40 7 47 12 8 7 12 5 12 -6 0 -17
-73 -46 -135 -54 -22 -3 -50 -12 -62 -20 -19 -13 -26 -13 -39 -2 -9 7 -41 12
-82 11 -50 0 -69 3 -80 16 -9 12 -15 13 -18 5 -3 -7 -11 -11 -17 -9 -7 1 -9 1
-4 -1 15 -9 6 -19 -28 -32 -19 -7 -40 -9 -45 -6 -6 4 -24 3 -41 0 -22 -5 -29
-11 -24 -22 6 -18 -22 -66 -34 -58 -5 3 -11 -2 -15 -10 -9 -25 -25 -17 -43 20
-15 32 -21 35 -58 35 -23 0 -57 5 -76 12 -34 12 -34 12 -9 19 14 4 42 7 63 8
21 1 62 14 94 31 31 17 62 30 70 30 8 0 21 7 29 15 9 8 13 15 9 15 -3 0 -3 5
0 10 9 15 25 2 25 -21z m576 -32 c4 -4 2 -8 -4 -8 -7 -1 -15 -2 -19 -4 -48
-13 -67 -20 -109 -40 -50 -24 -74 -24 -39 0 11 8 29 23 40 34 11 10 29 21 40
23 31 6 83 3 91 -5z m143 -6 c17 -11 6 -17 -44 -26 -41 -8 -42 -1 -3 21 29 15
30 15 47 5z m-1072 -87 c-3 -3 -12 -4 -19 -1 -8 3 -5 6 6 6 11 1 17 -2 13 -5z
m120 -90 c-3 -3 -12 -4 -19 -1 -8 3 -5 6 6 6 11 1 17 -2 13 -5z m31 -197 l24
-22 -34 -7 c-63 -13 -160 -50 -165 -64 -3 -8 -9 -14 -14 -14 -5 0 -35 -15 -67
-32 -31 -18 -66 -34 -77 -34 -11 -1 -51 -7 -90 -13 -38 -6 -83 -9 -100 -7 -16
2 -47 4 -67 5 -54 1 -47 21 7 21 33 0 50 5 62 20 10 11 23 20 29 20 7 0 14 6
16 14 2 7 34 40 73 72 63 54 75 60 130 65 33 4 103 5 155 2 79 -4 99 -8 118
-26z m-804 -118 c36 -28 33 -36 -15 -44 -23 -4 -65 -18 -95 -32 -54 -24 -94
-27 -101 -7 -2 6 8 16 22 24 13 7 27 21 30 31 15 46 114 63 159 28z m1346 -20
c0 -23 -52 -60 -79 -57 -31 4 -36 33 -5 33 12 1 29 8 38 18 20 19 46 23 46 6z
m-1187 -16 c3 -5 -8 -9 -24 -10 -16 -1 -29 2 -29 7 0 12 47 13 53 3z"/>
<path d="M2962 1625 c-11 -13 -9 -15 8 -15 11 0 20 7 20 15 0 19 -11 19 -28 0z"/>
<path d="M2025 1330 c-13 -6 -15 -9 -5 -9 8 0 22 4 30 9 18 12 2 12 -25 0z"/>
<path d="M2141 1323 c-6 -10 -11 -13 -11 -7 0 6 -13 11 -29 11 -20 0 -28 -4
-24 -14 6 -15 76 -17 108 -3 18 8 17 9 -8 9 -16 1 -26 5 -22 11 3 6 4 10 1 10
-3 0 -10 -8 -15 -17z"/>
<path d="M1795 1240 c3 -5 8 -10 11 -10 2 0 4 5 4 10 0 6 -5 10 -11 10 -5 0
-7 -4 -4 -10z"/>
<path d="M855 1210 l-30 -8 33 -1 c17 0 32 4 32 9 0 6 -1 9 -2 9 -2 -1 -16 -5
-33 -9z"/>
<path d="M640 1191 c-27 -5 -31 -8 -15 -12 11 -3 34 0 50 7 32 14 22 15 -35 5z"/>
<path d="M717 1189 c8 -8 25 -9 60 -1 l48 10 -59 1 c-44 1 -57 -2 -49 -10z"/>
<path d="M130 1178 c0 -20 32 -48 54 -48 12 0 16 -5 13 -14 -8 -19 45 -40 102
-40 121 1 217 7 226 14 6 5 24 10 40 13 17 2 2 5 -32 6 -35 0 -67 7 -75 14
-19 19 -102 40 -126 33 -17 -6 -111 10 -179 30 -17 4 -23 2 -23 -8z"/>
<path d="M550 1156 c0 -2 18 -6 39 -8 22 -2 37 0 35 4 -5 8 -74 11 -74 4z"/>
<path d="M673 1143 c-13 -2 -23 -8 -23 -13 0 -5 14 -4 30 1 27 10 42 21 23 18
-5 -1 -18 -4 -30 -6z"/>
<path d="M468 1133 c6 -2 18 -2 25 0 6 3 1 5 -13 5 -14 0 -19 -2 -12 -5z"/>
<path d="M1560 890 c-10 -6 -5 -9 18 -8 22 1 29 4 20 9 -16 11 -20 11 -38 -1z"/>
<path d="M1928 873 c7 -3 16 -2 19 1 4 3 -2 6 -13 5 -11 0 -14 -3 -6 -6z"/>
</g>
</svg>
