<?xml version="1.0" standalone="no"?>
<!DOCTYPE svg PUBLIC "-//W3C//DTD SVG 20010904//EN"
 "http://www.w3.org/TR/2001/REC-SVG-20010904/DTD/svg10.dtd">
<svg version="1.0" xmlns="http://www.w3.org/2000/svg"
 width="300.000000pt" height="300.000000pt" viewBox="0 0 300.000000 300.000000"
 preserveAspectRatio="xMidYMid meet">

<g transform="translate(0.000000,300.000000) scale(0.100000,-0.100000)"
fill="#000000" stroke="none">
<path d="M0 1906 c0 -602 3 -1097 8 -1100 4 -2 64 2 132 9 129 14 204 21 325
29 84 6 531 20 563 18 37 -3 26 24 -50 110 l-71 83 95 -93 c86 -84 97 -93 129
-91 19 2 41 -1 49 -6 30 -18 -80 117 -245 301 -269 300 -358 405 -341 398 9
-3 16 -10 16 -16 0 -5 4 -7 8 -4 12 7 164 -150 347 -359 211 -241 263 -295
286 -295 10 0 19 4 19 10 0 5 7 7 15 4 8 -4 15 -4 15 0 0 3 -37 81 -82 174
-46 92 -100 207 -122 255 -40 90 -76 150 -56 94 18 -51 10 -43 -32 33 -22 41
-41 76 -42 76 0 1 -18 4 -38 8 l-38 7 35 -76 c19 -42 31 -74 27 -71 -12 7
-126 235 -121 241 3 2 15 -15 28 -39 l21 -44 98 -7 c53 -3 120 -9 149 -14 l52
-8 3 51 3 51 9 -40 c5 -22 18 -59 28 -82 15 -32 18 -50 11 -70 -5 -16 -6 -46
-3 -68 30 -185 69 -287 140 -368 71 -80 146 -114 276 -124 116 -8 144 -1 208
58 107 98 142 236 96 380 -15 45 -26 66 -31 57 -6 -10 -13 -8 -31 8 -13 11
-33 21 -46 22 -22 1 -23 -2 -20 -65 2 -46 7 -68 17 -71 9 -3 11 0 6 8 -6 9 -2
9 16 0 34 -18 38 -24 9 -15 -21 7 -23 6 -13 -6 10 -12 8 -15 -7 -15 -10 0 -16
4 -14 8 3 4 -5 12 -16 18 -11 6 -19 14 -19 18 6 38 -3 70 -21 75 -18 5 -20 0
-20 -48 0 -30 -5 -57 -10 -60 -6 -4 -10 6 -10 22 0 15 -3 45 -6 65 -6 33 -10
37 -35 36 -16 -1 -33 2 -37 6 -4 5 2 7 13 6 36 -4 55 0 55 11 0 5 -5 7 -12 3
-8 -5 -9 -2 -5 9 3 10 2 17 -4 17 -6 0 -7 5 -3 12 5 8 2 9 -9 5 -10 -4 -17 -2
-17 4 0 7 -10 9 -23 5 -18 -4 -23 -2 -22 12 0 10 4 23 9 30 5 8 -1 12 -19 12
-15 0 -24 4 -20 10 4 6 11 8 16 5 5 -3 6 1 2 10 -5 13 -7 14 -14 3 -7 -10 -9
-10 -9 0 0 6 -8 12 -17 12 -15 0 -16 -2 -3 -10 13 -9 13 -10 0 -9 -8 1 -26 4
-40 8 -25 7 -24 8 8 15 17 4 32 11 32 14 0 4 -12 25 -26 46 -23 34 -30 38 -58
33 -17 -2 -40 -1 -51 4 -16 6 -14 8 13 8 38 1 39 3 8 39 -13 15 -33 37 -43 48
-17 21 -73 42 -73 28 0 -3 13 -23 28 -43 38 -48 51 -74 18 -36 -30 36 -34 23
-6 -23 12 -19 16 -31 11 -28 -11 7 -81 130 -81 143 0 4 5 1 10 -7 8 -13 10
-13 10 2 0 9 5 18 11 20 16 5 -38 89 -61 95 -10 3 -17 10 -14 17 9 22 -32 49
-63 42 -27 -7 -27 -7 -8 8 11 8 16 16 10 16 -5 0 -3 5 5 10 11 7 6 10 -21 10
-28 0 -38 5 -42 20 -3 13 0 20 9 20 21 0 17 21 -5 27 -17 4 -36 41 -27 51 2 2
27 -8 55 -22 28 -13 51 -23 51 -21 0 2 -9 25 -21 52 -24 58 -66 95 -91 82 -9
-5 -26 -9 -38 -9 -20 0 -20 -1 5 -50 14 -27 21 -50 16 -50 -5 0 -16 18 -25 40
-9 22 -31 71 -49 107 l-32 67 -5 -34 c-5 -33 -7 -29 -38 57 -17 51 -32 104
-32 119 0 27 1 27 16 8 14 -18 15 -18 9 6 -6 23 -5 24 9 7 15 -19 33 -6 20 15
-5 7 -3 8 5 4 7 -5 10 -14 7 -22 -3 -8 -1 -14 4 -14 6 0 27 -34 47 -75 39 -82
58 -96 24 -19 -15 34 -18 51 -11 58 8 8 9 6 4 -8 -5 -13 -4 -17 4 -12 7 4 14
-3 18 -19 3 -14 10 -25 16 -25 5 0 7 -4 3 -9 -3 -5 -1 -12 5 -16 6 -4 8 -10 5
-15 -3 -4 2 -10 10 -14 8 -3 15 -10 15 -15 0 -14 42 -83 47 -77 2 2 -8 43 -22
91 -15 48 -25 89 -22 91 2 3 14 -18 26 -46 22 -51 38 -68 25 -27 -14 46 5 9
52 -103 29 -69 50 -107 52 -95 9 61 12 66 31 55 10 -5 22 -22 26 -37 3 -15 15
-39 25 -53 l19 -26 -49 -39 -49 -39 20 -28 c11 -15 18 -31 16 -35 -2 -5 12
-34 32 -66 26 -42 50 -66 87 -87 l52 -29 77 90 76 90 -26 80 c-16 46 -41 97
-58 117 -17 21 -32 38 -33 40 -1 3 -42 -19 -77 -42 -24 -16 -30 -17 -38 -5 -5
8 -8 25 -8 39 0 25 0 25 9 3 10 -24 26 -29 49 -14 11 7 11 13 1 32 l-13 24 23
-20 23 -20 -17 32 c-23 45 -20 54 5 16 29 -46 44 -41 19 7 -22 44 -26 65 -9
54 11 -7 7 142 -7 283 -3 28 -6 142 -7 252 l-2 201 -39 0 -38 0 6 -62 c11
-109 25 -372 21 -377 -3 -2 -7 -2 -9 0 -4 4 -36 377 -36 418 l0 21 -700 0
-700 0 0 -1094z m348 682 c32 -51 91 -147 129 -213 38 -66 91 -151 116 -188
51 -75 55 -85 32 -94 -20 -7 -39 18 -60 76 -8 24 -61 123 -118 220 -131 223
-170 291 -164 291 3 0 32 -42 65 -92z m-144 -28 c28 -42 31 -50 18 -50 -4 0
-18 20 -30 45 -27 56 -23 57 12 5z m416 5 c0 -5 -5 -3 -10 5 -5 8 -10 20 -10
25 0 6 5 3 10 -5 5 -8 10 -19 10 -25z m32 -50 c3 4 9 1 14 -6 4 -8 3 -10 -4
-5 -17 10 -16 8 33 -98 24 -53 41 -96 37 -96 -5 0 -30 48 -56 108 -52 116 -65
150 -44 114 8 -12 17 -20 20 -17z m-417 -236 c41 -59 75 -112 75 -118 0 -22
-19 -10 -40 27 -13 20 -25 31 -27 25 -3 -7 -10 -13 -18 -13 -15 0 -141 188
-131 197 7 7 8 6 75 -81 43 -55 61 -72 42 -38 -6 9 -32 46 -58 81 -37 52 -42
61 -20 45 15 -10 61 -67 102 -125z m748 -128 c-15 -23 -30 -41 -34 -41 -4 0
-9 -7 -13 -15 -6 -17 31 -125 43 -125 4 0 14 -18 21 -41 18 -53 30 -59 23 -12
-7 46 11 34 22 -14 6 -31 5 -32 -32 -38 -21 -3 -50 -8 -65 -10 -23 -4 -31 1
-43 25 -21 40 -18 62 3 25 l17 -30 3 29 c2 17 -13 68 -38 128 -48 117 -48 144
0 33 37 -86 51 -95 20 -14 -24 64 -24 70 -3 44 15 -19 15 -19 9 8 -5 21 -4 27
5 21 8 -5 11 -2 7 7 -16 43 -15 58 1 24 22 -45 26 -38 10 18 -13 48 -7 55 21
27 31 -31 34 -20 10 39 -28 72 -24 76 10 9 l30 -57 -27 -40z m-608 53 c9 -15
12 -23 6 -20 -11 7 -35 46 -28 46 3 0 12 -12 22 -26z m1040 -83 c8 -17 11 -32
6 -35 -7 -5 -31 42 -31 60 0 12 12 0 25 -25z m145 -23 c0 -5 -5 -7 -12 -5 -7
1 -12 -3 -13 -10 0 -6 -3 -14 -7 -18 -3 -4 -5 0 -4 9 1 8 5 19 9 22 4 4 1 14
-6 22 -11 13 -9 14 11 1 12 -8 22 -17 22 -21z m-1025 -94 c9 -15 12 -23 6 -20
-11 7 -35 46 -28 46 3 0 12 -12 22 -26z m945 22 c0 -1 -27 -24 -60 -50 -33
-26 -60 -45 -60 -42 0 4 112 96 118 96 1 0 2 -2 2 -4z m-858 -38 c-19 -19 -14
-30 7 -18 11 5 30 10 43 10 19 0 16 -4 -16 -21 -21 -11 -47 -18 -57 -16 -16 4
-17 2 -8 -14 14 -27 -6 -24 -25 3 -18 25 -21 42 -6 33 6 -3 22 3 36 14 29 23
45 28 26 9z m-93 -54 c-12 -15 -11 -16 9 -10 30 10 28 -6 -6 -41 -15 -15 -35
-39 -45 -53 -13 -19 -13 -16 3 17 28 59 25 62 -16 22 -25 -23 -33 -27 -26 -13
16 31 3 37 -19 10 -13 -17 -25 -22 -43 -19 -36 7 -22 31 28 45 22 6 48 19 56
29 15 18 61 40 69 33 2 -2 -2 -11 -10 -20z m361 -90 c0 -2 -4 -4 -9 -4 -8 0
-41 71 -41 88 0 4 11 -13 25 -37 14 -23 25 -45 25 -47z m184 36 c-6 -5 -24 21
-24 34 0 6 6 1 14 -10 8 -10 12 -21 10 -24z m451 -23 c8 -20 13 -37 10 -37 -5
0 -35 67 -35 78 0 11 10 -5 25 -41z m-1191 18 c-4 -8 -11 -12 -16 -9 -6 4 -5
10 3 15 19 12 19 11 13 -6z m966 -48 c0 -12 0 -11 -24 28 l-17 30 20 -24 c12
-13 21 -28 21 -34z m-470 13 c0 -4 -6 -10 -12 -13 -8 -3 -13 4 -13 18 0 18 3
21 13 13 6 -6 12 -14 12 -18z m-472 -15 c-3 -3 -9 2 -12 12 -6 14 -5 15 5 6 7
-7 10 -15 7 -18z m760 -30 c-2 -3 -51 -7 -109 -9 -66 -3 -90 -2 -64 3 45 9
181 14 173 6z m-547 -202 c13 -16 12 -17 -3 -4 -10 7 -18 15 -18 17 0 8 8 3
21 -13z m929 -7 c0 -3 -4 -8 -10 -11 -5 -3 -10 -1 -10 4 0 6 5 11 10 11 6 0
10 -2 10 -4z m290 -246 c0 -5 -2 -10 -4 -10 -3 0 -8 5 -11 10 -3 6 -1 10 4 10
6 0 11 -4 11 -10z m-770 -54 c0 -12 -5 -7 -19 24 -11 24 -11 24 3 6 9 -11 16
-24 16 -30z m30 -46 c6 -11 8 -20 6 -20 -3 0 -10 9 -16 20 -6 11 -8 20 -6 20
3 0 10 -9 16 -20z m-575 -204 c150 -96 235 -157 235 -168 0 -5 -24 9 -52 30
-29 21 -109 76 -178 122 -69 45 -129 87 -135 93 -14 14 4 4 130 -77z m474
-115 c19 -17 33 -33 30 -35 -3 -3 -34 25 -70 62 -35 37 -48 53 -29 35 19 -17
50 -45 69 -62z m708 3 c-9 -9 -28 6 -21 18 4 6 10 6 17 -1 6 -6 8 -13 4 -17z"/>
<path d="M1870 2949 c0 -27 4 -48 9 -45 12 8 13 96 1 96 -6 0 -10 -23 -10 -51z"/>
<path d="M1909 2713 c-1 -159 -3 -301 -4 -318 -1 -16 -3 -38 -4 -49 0 -10 -6
-16 -14 -13 -9 3 -12 -46 -14 -227 -1 -138 1 -221 6 -206 5 14 10 50 11 80 1
30 5 75 9 100 7 37 9 24 11 -70 l3 -115 8 111 c5 62 13 143 18 180 l8 69 2
-66 c0 -36 -3 -146 -8 -245 -17 -318 -20 -409 -11 -389 4 11 14 95 21 185 16
195 27 168 22 -55 -2 -98 0 -143 6 -130 8 16 10 9 10 -29 1 -44 2 -48 14 -31
13 16 14 15 12 -13 -1 -17 2 -29 7 -26 4 3 8 10 8 16 0 21 143 568 147 564 3
-2 -23 -132 -56 -288 -73 -345 -89 -437 -89 -508 1 -30 2 -50 4 -45 2 6 15 51
29 100 34 121 22 35 -15 -115 -35 -137 -60 -249 -59 -258 0 -4 9 16 20 43 l19
50 -5 -45 c-7 -56 7 -67 85 -69 43 0 59 4 79 22 24 21 23 19 -4 -18 -65 -90
-176 -215 -191 -215 -1 0 1 12 5 28 4 15 12 26 17 25 12 -2 53 36 66 62 6 14
1 11 -16 -8 -28 -30 -52 -36 -42 -11 5 13 4 14 -7 6 -8 -7 -20 -30 -27 -52 -7
-22 -16 -40 -20 -40 -4 0 -20 -19 -35 -42 -16 -24 -43 -57 -62 -75 -18 -17
-33 -36 -33 -42 0 -6 -4 -11 -10 -11 -12 0 -2 27 23 61 10 15 20 39 22 55 1
16 6 45 9 64 l7 35 -23 -40 c-12 -22 -22 -42 -23 -45 0 -3 -6 -15 -13 -27 -7
-13 -9 -23 -5 -23 4 0 -1 -6 -12 -13 -10 -8 -15 -19 -11 -26 4 -6 -1 -24 -11
-39 -10 -15 -18 -36 -18 -46 0 -11 -6 -21 -12 -23 -7 -3 -13 2 -13 11 0 9 -8
16 -20 16 -12 0 -21 7 -22 18 0 9 -2 22 -3 27 -2 6 -3 34 -4 64 0 30 -4 52 -7
49 -5 -5 -16 -120 -16 -173 0 -14 -7 -21 -19 -21 -12 0 -18 5 -15 13 3 7 -2
13 -10 13 -9 0 -18 -9 -21 -20 -7 -26 -23 -26 -23 0 0 11 -7 20 -15 20 -8 0
-15 6 -15 14 0 8 -11 17 -25 20 -15 4 -22 11 -19 20 3 8 -3 23 -13 33 -11 11
-17 25 -15 31 2 7 -7 16 -21 21 -13 5 -47 36 -76 68 l-52 58 21 -45 22 -45
-59 58 c-50 49 -64 57 -96 57 l-37 0 41 -37 c23 -21 43 -36 44 -33 1 3 9 -1
18 -9 10 -7 17 -9 17 -3 0 10 -29 26 -42 24 -5 -1 -8 5 -8 14 0 13 3 14 13 5
8 -6 16 -9 19 -6 3 3 22 -15 42 -40 21 -25 44 -45 53 -45 12 0 13 -3 4 -14 -6
-7 -8 -22 -4 -32 6 -16 3 -15 -24 4 -17 12 -34 22 -38 22 -3 0 -22 12 -40 26
-36 27 -67 25 -43 -3 11 -14 10 -15 -12 -8 -37 11 -111 48 -117 59 -3 5 -1 6
4 3 19 -12 82 -16 89 -6 4 6 11 6 20 -2 33 -27 10 11 -31 51 -25 24 -45 38
-45 31 0 -6 -5 -9 -10 -6 -6 3 -22 -3 -36 -14 l-27 -21 39 -2 c22 0 46 -1 56
0 22 2 43 -24 27 -34 -8 -4 -9 -3 -5 4 5 9 -21 12 -98 12 -64 0 -106 -4 -106
-10 0 -5 24 -10 53 -10 33 0 61 -6 78 -18 49 -33 99 -77 99 -86 0 -6 -5 -5
-12 2 -7 7 -20 12 -29 12 -10 0 -24 6 -31 13 -17 17 -102 67 -114 67 -5 0 11
-13 36 -29 25 -16 58 -43 74 -60 17 -17 35 -31 41 -31 7 0 20 -9 30 -20 10
-11 28 -20 40 -20 11 0 25 -4 30 -9 6 -5 27 -13 48 -16 39 -8 48 3 22 25 -8 7
-15 17 -15 23 0 5 8 3 18 -6 10 -10 25 -17 33 -17 9 0 28 -14 44 -30 16 -17
35 -28 42 -26 8 3 13 -2 13 -13 0 -11 -6 -21 -12 -24 -17 -5 8 -37 28 -37 8 0
14 -9 14 -20 0 -11 5 -20 10 -20 6 0 10 -3 10 -8 0 -4 -21 -7 -47 -8 -27 0
-86 -4 -133 -8 -47 -5 -83 -6 -80 -3 3 4 32 8 64 11 68 6 86 15 30 17 -21 1
-52 5 -69 9 -28 7 -27 8 15 10 42 2 43 3 15 10 -16 4 -25 8 -18 9 7 0 10 8 7
16 -5 12 1 14 27 10 19 -3 28 -3 22 1 -7 3 -13 10 -13 16 0 6 11 3 25 -6 30
-20 45 -20 45 -1 0 8 -12 18 -27 21 -16 4 -34 11 -40 16 -7 6 -20 7 -29 4 -9
-3 -32 3 -51 15 -19 12 -49 22 -65 21 -17 0 -48 10 -69 24 -21 13 -43 24 -48
24 -6 0 -45 16 -88 36 -43 19 -73 31 -68 26 11 -10 91 -52 145 -77 19 -8 53
-26 75 -40 22 -14 44 -26 48 -28 5 -1 5 -11 1 -21 -4 -11 -9 -14 -13 -7 -4 6
-29 14 -57 17 -39 4 -46 3 -34 -6 13 -10 12 -11 -5 -5 -28 10 -105 13 -100 4
8 -12 -98 -16 -120 -5 -12 6 -87 11 -182 11 -164 0 -192 7 -93 23 41 7 21 8
-80 5 -89 -3 -130 -1 -121 5 20 14 -23 21 -159 23 -230 3 -250 2 -250 -23 0
-21 1 -21 158 -14 175 8 203 8 210 1 14 -14 -23 -19 -176 -21 -92 -2 -173 -3
-179 -4 -8 0 -13 -14 -13 -34 0 -31 3 -34 38 -41 41 -7 153 -44 165 -55 4 -4
-30 3 -77 15 -47 11 -88 24 -92 28 -4 4 -13 7 -21 7 -10 0 -13 -28 -13 -129 0
-115 2 -130 18 -134 16 -4 16 -5 0 -6 -15 -1 -18 -10 -18 -51 l0 -50 1500 0
1500 0 0 156 c0 121 -3 154 -12 148 -10 -6 -10 -4 0 7 6 7 12 16 12 19 0 13
-107 2 -139 -14 -18 -10 -35 -15 -37 -13 -3 2 9 10 26 17 16 7 30 16 30 21 0
5 27 9 60 9 l60 0 0 65 c0 73 0 73 -87 56 -24 -5 -43 -5 -43 -1 0 13 29 20 81
20 46 0 49 1 49 26 0 26 -1 26 -51 22 -29 -3 -45 -2 -37 3 7 5 30 9 51 9 34 0
37 2 37 30 l0 30 -194 0 c-106 0 -215 2 -242 5 -27 2 -40 2 -29 -1 42 -12 34
-21 -22 -26 -32 -3 -89 -15 -128 -26 -38 -11 -95 -23 -125 -25 l-55 -5 40 13
c22 7 48 14 57 14 9 1 20 6 24 13 4 6 3 8 -2 5 -6 -3 -16 -2 -23 2 -9 6 -3 15
23 30 30 19 56 23 168 29 95 5 122 8 93 13 -34 6 -31 7 20 5 41 -1 59 -5 58
-13 -2 -9 4 -10 21 -3 13 4 88 8 167 7 l144 -1 3 51 3 51 -251 7 c-137 4 -250
11 -250 16 0 4 27 30 60 57 l60 48 83 -2 c135 -4 267 -13 276 -19 5 -2 12 2
15 11 3 8 6 245 6 527 -1 452 -2 510 -15 493 -12 -16 -15 -17 -15 -4 0 8 7 21
15 28 13 11 15 86 15 551 l0 539 -479 0 c-448 0 -480 -1 -484 -17 -4 -17 -5
-17 -6 0 -1 14 -11 17 -61 17 l-60 0 -1 -287z m122 85 c-6 -145 -11 -181 -27
-165 -4 3 -1 68 5 144 20 238 30 248 22 21z m953 78 c-3 -9 -10 -16 -15 -16
-6 0 -5 9 1 21 13 24 24 20 14 -5z m-325 -254 c-11 -34 -25 -62 -30 -62 -5 0
-2 17 7 38 9 20 21 50 26 65 20 55 17 19 -3 -41z m325 53 c-4 -8 -11 -15 -16
-15 -6 0 -5 6 2 15 7 8 14 15 16 15 2 0 1 -7 -2 -15z m-763 -179 c-11 -71 -23
-131 -26 -134 -3 -3 -10 -1 -16 5 -6 6 -7 23 0 49 24 95 39 162 46 199 18 89
14 0 -4 -119z m89 82 c-7 -35 -17 -70 -21 -78 -12 -21 -11 0 1 52 5 24 12 56
15 72 3 15 9 26 12 22 3 -3 0 -34 -7 -68z m646 37 c0 -14 -5 -25 -11 -25 -5 0
-4 -4 3 -8 9 -6 10 -16 1 -40 -13 -39 -30 -32 -27 11 1 29 23 87 32 87 2 0 3
-11 2 -25z m14 -99 c0 -3 -4 -8 -10 -11 -5 -3 -10 -1 -10 4 0 6 5 11 10 11 6
0 10 -2 10 -4z m-93 -32 c2 -5 -9 -10 -24 -11 -16 0 -20 1 -10 4 9 2 14 9 11
15 -4 6 -1 9 6 6 8 -2 15 -9 17 -14z m-67 -69 c-14 -27 -18 -49 -14 -72 5 -28
2 -37 -25 -62 -20 -19 -31 -39 -31 -58 0 -20 -3 -24 -9 -14 -15 23 -4 93 24
152 13 30 25 59 25 66 0 18 32 45 41 36 5 -5 0 -26 -11 -48z m129 33 c-2 -2
-30 -28 -62 -58 -38 -36 -57 -49 -57 -38 0 26 73 98 100 98 13 0 21 -1 19 -2z
m-635 -322 c-3 -15 -8 -25 -11 -23 -2 3 -1 17 3 31 3 15 8 25 11 23 2 -3 1
-17 -3 -31z m-384 14 c0 -5 -4 -10 -10 -10 -5 0 -10 5 -10 10 0 6 5 10 10 10
6 0 10 -4 10 -10z m554 -216 c-36 -93 -70 -181 -76 -196 -5 -16 -14 -28 -19
-28 -4 0 -2 17 5 38 42 114 147 364 152 359 2 -2 -26 -80 -62 -173z m-204 66
c-13 -49 -26 -88 -28 -85 -3 2 6 45 19 94 13 50 25 88 28 86 2 -3 -7 -45 -19
-95z m601 -121 c-19 -42 -71 -103 -71 -82 0 6 7 16 15 23 8 7 15 20 15 30 0
19 36 70 50 70 5 0 1 -19 -9 -41z m49 7 c0 -2 -7 -9 -15 -16 -13 -11 -14 -10
-9 4 5 14 24 23 24 12z m-197 -92 c-19 -20 -42 -54 -51 -75 -9 -22 -20 -39
-24 -39 -16 0 -7 35 19 74 41 62 55 76 73 76 13 0 9 -9 -17 -36z m-80 -174 c6
0 -6 -9 -28 -20 -45 -23 -45 -23 -45 -11 0 17 32 42 47 37 8 -3 20 -6 26 -6z
m-18 -51 c-10 -15 -65 -41 -65 -30 0 13 53 50 63 44 4 -2 5 -9 2 -14z m-85 1
c0 -5 -14 -17 -31 -25 -29 -16 -30 -16 -20 4 14 26 51 42 51 21z m-309 -73
c-10 -9 -11 -8 -5 6 3 10 9 15 12 12 3 -3 0 -11 -7 -18z m419 -121 c0 -3 -4
-8 -10 -11 -5 -3 -10 -1 -10 4 0 6 5 11 10 11 6 0 10 -2 10 -4z m-65 -32 c-38
-20 -45 -17 -15 5 13 11 28 17 33 14 5 -3 -4 -11 -18 -19z m-312 -61 c-14 -38
-32 -87 -40 -110 -8 -24 -19 -43 -24 -43 -13 0 -13 3 32 108 44 104 48 112 54
112 2 0 -7 -30 -22 -67z m252 47 c-3 -5 -11 -10 -16 -10 -6 0 -7 5 -4 10 3 6
11 10 16 10 6 0 7 -4 4 -10z m330 -10 c-6 -9 -82 -50 -94 -50 -17 0 73 58 92
59 5 1 5 -4 2 -9z m80 0 c-3 -5 -12 -10 -18 -10 -7 0 -6 4 3 10 19 12 23 12
15 0z m-489 -23 c-24 -15 -47 -38 -64 -63 -7 -10 -5 -5 3 13 15 32 50 64 70
62 5 0 1 -6 -9 -12z m299 -55 c-6 -5 -32 -28 -60 -52 l-50 -43 52 51 c28 29
55 52 59 52 5 0 4 -4 -1 -8z m220 -32 c-8 -13 -448 -400 -589 -518 -61 -51
-122 -95 -136 -98 -14 -2 -38 -9 -55 -14 -28 -9 -29 -9 -10 6 11 9 41 26 66
39 26 14 82 53 125 87 l78 63 -109 3 c-108 3 -109 3 -131 -25 -18 -23 -20 -29
-7 -31 8 -2 23 4 34 14 19 17 20 17 13 0 -7 -17 -2 -18 55 -14 43 3 58 1 51
-6 -6 -6 -38 -11 -71 -11 -41 -1 -63 -6 -69 -16 -7 -11 -3 -15 20 -19 28 -5
25 -8 -52 -48 -46 -23 -89 -43 -95 -42 -7 0 -13 -4 -13 -9 0 -5 -8 -11 -17
-14 -10 -4 -29 -14 -43 -24 l-25 -17 18 21 c10 11 15 23 10 25 -4 3 -2 3 4 2
12 -3 62 42 64 58 1 5 2 11 3 16 1 4 10 19 20 34 11 18 17 40 14 61 -3 27 0
33 17 35 11 0 15 -2 10 -6 -6 -4 -11 -15 -12 -26 -1 -12 14 -1 45 34 68 77 82
102 31 53 -34 -33 -53 -43 -78 -43 -25 0 -32 -4 -27 -15 6 -17 -45 -100 -83
-132 -14 -12 -22 -22 -17 -23 10 0 -24 -29 -35 -30 -8 0 30 74 62 121 13 20
56 75 94 123 l70 87 44 -3 c42 -3 45 -1 104 62 65 69 66 66 5 -17 -40 -55 -48
-74 -23 -53 9 8 29 10 51 7 20 -4 46 -1 57 4 14 8 18 8 13 0 -4 -6 0 -12 11
-12 49 -4 64 -7 77 -18 11 -9 55 23 222 163 115 96 210 175 212 175 2 1 0 -3
-3 -9z m-126 -476 c2 -2 -73 -4 -168 -4 -116 0 -170 3 -166 10 6 10 323 4 334
-6z m-356 -1 c-7 -2 -19 -2 -25 0 -7 3 -2 5 12 5 14 0 19 -2 13 -5z m191 -22
c3 -4 -53 -8 -124 -8 -72 1 -130 5 -130 9 0 11 247 10 254 -1z m51 -1 c18 -8
17 -9 -7 -9 -16 -1 -28 4 -28 9 0 12 8 12 35 0z m190 -10 c11 -4 -22 -7 -72
-6 -51 1 -93 5 -93 9 0 10 137 7 165 -3z m-472 -37 c-13 -2 -33 -2 -45 0 -13
2 -3 4 22 4 25 0 35 -2 23 -4z m372 -63 c-39 -10 -123 -12 -128 -2 -3 4 32 8
76 9 57 1 73 -1 52 -7z m-1394 -17 c13 -16 12 -17 -3 -4 -17 13 -22 21 -14 21
2 0 10 -8 17 -17z m1352 -30 c-7 -2 -19 -2 -25 0 -7 3 -2 5 12 5 14 0 19 -2
13 -5z m-66 -9 c-8 -8 -126 -23 -301 -39 -25 -2 -35 0 -28 7 5 5 41 12 78 14
38 2 89 8 114 13 53 10 146 14 137 5z m-367 -14 c0 -13 -79 -52 -95 -46 -7 2
-18 -1 -24 -7 -7 -7 -15 -12 -19 -13 -4 0 -14 -3 -22 -7 -8 -3 -28 -10 -45
-16 -27 -9 -24 -10 20 -6 94 10 270 17 265 12 -3 -3 -34 -7 -69 -8 -78 -3
-112 -9 -106 -19 2 -4 71 -5 153 -2 95 2 152 0 156 -6 4 -6 -36 -13 -109 -17
-63 -4 -115 -11 -115 -15 0 -12 195 -25 373 -25 l158 0 -57 -17 c-32 -9 -61
-15 -66 -12 -5 3 -25 0 -45 -7 -21 -6 -52 -13 -70 -14 -27 -2 -31 0 -21 12 10
12 6 14 -18 11 -19 -2 -28 1 -27 10 4 16 -2 15 -40 -5 -18 -9 -36 -16 -40 -15
-4 1 -18 -3 -30 -9 -19 -9 -19 -8 3 10 31 25 10 28 -27 4 -26 -17 -27 -17 -20
0 9 25 -13 22 -57 -8 -44 -30 -47 -30 -39 -7 6 15 5 15 -10 3 -10 -8 -20 -11
-23 -8 -3 3 8 13 26 22 43 22 31 31 -13 10 -19 -9 -55 -18 -78 -20 -24 -2 -63
-6 -86 -10 -27 -5 -43 -4 -43 3 0 5 -25 13 -55 17 -93 11 -69 22 40 17 109 -5
179 3 170 19 -4 5 -15 9 -26 9 -13 0 -18 -4 -13 -12 5 -8 -13 -10 -71 -5 -43
4 -100 7 -128 7 -40 0 -48 3 -43 15 3 9 0 15 -8 15 -9 0 -12 8 -8 25 3 18 11
25 28 25 13 0 34 10 46 22 12 12 29 23 38 24 8 1 24 5 35 9 20 8 20 8 1 -13
-17 -20 -17 -22 -2 -22 9 0 32 6 51 14 18 8 36 12 39 9 3 -3 12 -1 19 5 8 7
34 14 58 17 24 3 53 12 64 20 25 17 25 17 25 5z m-520 -10 c0 -5 -7 -10 -15
-10 -8 0 -15 5 -15 10 0 6 7 10 15 10 8 0 15 -4 15 -10z m-1713 -26 c-3 -3
-12 -4 -19 -1 -8 3 -5 6 6 6 11 1 17 -2 13 -5z m388 -44 c-4 -6 -45 -9 -98 -8
l-92 2 90 6 c50 3 94 7 98 8 5 1 5 -2 2 -8z m2180 0 c-11 -5 -27 -9 -35 -9 -9
0 -8 4 5 9 11 5 27 9 35 9 9 0 8 -4 -5 -9z m205 1 l45 -8 -50 -3 c-27 -2 -70
-2 -95 -1 -25 1 -58 -2 -73 -8 -18 -7 -26 -7 -22 -1 3 6 13 10 21 10 8 0 14 5
14 10 0 12 95 12 160 1z m-1594 -22 c8 -14 -20 -10 -41 5 -18 13 -18 14 8 9
15 -3 30 -9 33 -14z m-1138 1 c-26 -5 -60 -5 -75 0 -21 6 -8 8 47 8 71 0 72
-1 28 -8z m937 -8 c-3 -3 -11 0 -18 7 -9 10 -8 11 6 5 10 -3 15 -9 12 -12z
m-665 -36 c0 -2 -9 -6 -20 -9 -11 -3 -18 -1 -14 4 5 9 34 13 34 5z m-57 -13
c-7 -2 -19 -2 -25 0 -7 3 -2 5 12 5 14 0 19 -2 13 -5z m-123 -13 c0 -5 -4 -10
-10 -10 -5 0 -10 5 -10 10 0 6 5 10 10 10 6 0 10 -4 10 -10z m1520 -23 c0 -5
-7 -6 -16 -3 -9 3 -23 6 -31 6 -12 0 -13 3 -3 15 9 11 16 12 31 2 10 -6 19
-16 19 -20z m-160 8 c0 -8 -9 -10 -25 -7 -14 2 -25 8 -25 12 0 4 11 8 25 8 14
0 25 -6 25 -13z m40 -5 c0 -5 -7 -7 -15 -4 -8 4 -12 10 -9 15 6 11 24 2 24
-11z m175 10 c3 -5 1 -10 -4 -10 -6 0 -11 5 -11 10 0 6 2 10 4 10 3 0 8 -4 11
-10z m81 -8 c-12 -13 -17 -12 -36 1 -21 15 -21 15 14 14 31 -1 34 -3 22 -15z
m-1619 2 c-3 -3 -12 -4 -19 -1 -8 3 -5 6 6 6 11 1 17 -2 13 -5z m953 -24 c-36
-12 -80 -12 -80 0 0 6 24 10 53 9 41 -1 47 -3 27 -9z m-183 -24 c4 -4 -11 -5
-34 -4 -23 2 -39 6 -37 10 6 9 61 4 71 -6z m71 7 c-10 -2 -26 -2 -35 0 -10 3
-2 5 17 5 19 0 27 -2 18 -5z m232 -2 l45 -7 -55 -11 c-30 -6 -93 -21 -140 -33
-106 -27 -170 -35 -170 -22 0 5 15 10 33 10 17 0 55 7 82 15 28 9 71 19 98 22
54 7 62 22 15 28 -30 3 -29 4 7 5 22 0 60 -3 85 -7z m-422 -8 c-10 -2 -28 -2
-40 0 -13 2 -5 4 17 4 22 1 32 -1 23 -4z m-168 -7 c0 -3 -4 -8 -10 -11 -5 -3
-10 -1 -10 4 0 6 5 11 10 11 6 0 10 -2 10 -4z m806 -6 c19 0 34 -4 34 -9 0 -5
-22 -9 -50 -9 -27 0 -47 4 -44 9 7 11 1 11 -30 -1 -17 -6 -27 -6 -32 2 -4 6
-3 8 4 4 6 -3 14 -1 18 5 4 6 19 9 36 5 17 -3 46 -6 64 -6z m80 -27 c-3 -8 -6
-22 -6 -30 0 -12 -3 -13 -15 -3 -8 6 -19 9 -25 5 -14 -9 -12 2 6 30 16 25 49
24 40 -2z m-1248 -10 c-10 -2 -26 -2 -35 0 -10 3 -2 5 17 5 19 0 27 -2 18 -5z
m544 -20 c45 3 63 2 46 -3 -31 -9 -265 -25 -258 -17 5 5 69 15 109 16 8 1 11
8 7 19 -5 15 -4 14 9 -2 13 -17 23 -18 87 -13z m845 1 c17 -23 3 -30 -28 -14
-17 10 -23 9 -30 -1 -7 -12 -9 -12 -9 0 0 7 -6 11 -15 7 -8 -3 -15 0 -16 7 0
9 -2 9 -6 0 -7 -20 -23 -15 -23 6 0 18 6 20 57 17 41 -2 60 -8 70 -22z m-1467
6 c0 -5 -14 -7 -32 -3 -46 8 -48 13 -5 13 21 0 37 -4 37 -10z m-129 -17 c13
-17 13 -17 -6 -3 -11 8 -22 16 -24 17 -2 2 0 3 6 3 6 0 17 -8 24 -17z m1772 0
c21 -12 1 -20 -48 -18 -39 1 -61 7 -73 19 -16 17 -14 18 48 11 36 -4 68 -9 73
-12z m52 -13 c3 -5 -1 -10 -9 -10 -8 0 -18 5 -21 10 -3 6 1 10 9 10 8 0 18 -4
21 -10z m-1396 -9 c8 -5 -18 -11 -71 -15 -111 -10 -201 -28 -205 -43 -5 -15
27 -32 80 -43 37 -7 38 -8 11 -9 -45 -2 -90 17 -109 45 -8 13 -22 24 -30 24
-8 0 -29 9 -47 20 -18 11 -28 20 -23 20 6 0 21 -7 34 -16 25 -18 59 -16 236
10 115 18 108 17 124 7z m1296 -48 c14 -21 25 -48 25 -60 0 -35 -15 -27 -18 8
-1 18 -12 45 -23 60 -11 16 -18 29 -15 29 3 0 17 -17 31 -37z m108 0 c-7 -2
-19 -2 -25 0 -7 3 -2 5 12 5 14 0 19 -2 13 -5z m72 -13 c-3 -5 -12 -7 -20 -3
-21 7 -19 13 6 13 11 0 18 -4 14 -10z m-1989 -10 c-16 -5 -36 -6 -43 -1 -9 5
2 8 29 8 39 1 41 1 14 -7z m1660 -27 c-10 -10 -19 5 -10 18 6 11 8 11 12 0 2
-7 1 -15 -2 -18z m-971 7 c3 -6 -1 -7 -9 -4 -18 7 -21 14 -7 14 6 0 13 -4 16
-10z m98 -7 c-13 -2 -33 -2 -45 0 -13 2 -3 4 22 4 25 0 35 -2 23 -4z m-233
-18 c0 -2 -13 -11 -30 -20 -25 -13 -29 -13 -24 -1 6 16 54 35 54 21z"/>
<path d="M2067 720 c-10 -16 -16 -30 -14 -30 2 0 13 14 25 30 13 17 19 30 14
30 -4 0 -16 -13 -25 -30z"/>
<path d="M2163 683 c4 -3 -3 -17 -15 -30 -29 -31 -10 -29 25 2 33 31 33 35 5
35 -12 0 -18 -3 -15 -7z"/>
<path d="M2119 653 c-13 -16 -12 -17 4 -4 16 13 21 21 13 21 -2 0 -10 -8 -17
-17z"/>
<path d="M2267 373 c-12 -11 -7 -24 6 -16 6 4 20 6 30 5 9 -2 17 2 17 7 0 12
-43 15 -53 4z"/>
<path d="M1883 2545 c0 -44 2 -61 4 -37 2 23 2 59 0 80 -2 20 -4 1 -4 -43z"/>
<path d="M1871 2394 c0 -11 3 -14 6 -6 3 7 2 16 -1 19 -3 4 -6 -2 -5 -13z"/>
<path d="M1230 2051 c0 -5 7 -12 16 -15 14 -5 15 -4 4 9 -14 17 -20 19 -20 6z"/>
<path d="M1843 1985 c0 -38 2 -53 4 -32 2 20 2 52 0 70 -2 17 -4 1 -4 -38z"/>
<path d="M1250 1997 c0 -3 12 -12 26 -22 15 -9 23 -12 20 -6 -7 11 -46 35 -46
28z"/>
<path d="M1902 1855 c0 -16 2 -22 5 -12 2 9 2 23 0 30 -3 6 -5 -1 -5 -18z"/>
<path d="M1421 1775 c-1 -5 21 -35 49 -65 27 -30 49 -50 49 -45 1 6 -21 35
-49 65 -27 30 -49 51 -49 45z"/>
<path d="M1350 1742 c6 -13 14 -21 18 -18 3 4 -2 14 -12 24 -18 16 -18 16 -6
-6z"/>
<path d="M1515 1700 c10 -11 20 -20 23 -20 3 0 -3 9 -13 20 -10 11 -20 20 -23
20 -3 0 3 -9 13 -20z"/>
<path d="M1583 1610 c13 -23 29 -40 40 -40 22 0 22 5 -4 46 -11 19 -29 34 -39
34 -17 0 -17 -2 3 -40z"/>
<path d="M1630 1635 c0 -13 32 -66 36 -62 6 6 -23 67 -31 67 -3 0 -5 -2 -5 -5z"/>
<path d="M1780 1546 c0 -2 7 -7 16 -10 8 -3 12 -2 9 4 -6 10 -25 14 -25 6z"/>
<path d="M648 1503 c17 -21 52 -58 78 -83 30 -29 21 -15 -26 38 -78 86 -102
108 -52 45z"/>
<path d="M1817 1495 c18 -14 44 -40 58 -58 15 -18 22 -23 17 -12 -13 26 -61
74 -87 87 -11 5 -6 -2 12 -17z"/>
<path d="M1781 1454 c0 -11 3 -14 6 -6 3 7 2 16 -1 19 -3 4 -6 -2 -5 -13z"/>
<path d="M1767 1414 c-13 -14 -7 -32 14 -37 16 -4 20 -1 17 15 -3 22 -19 33
-31 22z"/>
<path d="M1100 835 c13 -14 26 -25 28 -25 3 0 -5 11 -18 25 -13 14 -26 25 -28
25 -3 0 5 -11 18 -25z"/>
<path d="M1220 831 c5 -11 15 -23 21 -27 6 -3 3 5 -6 20 -20 30 -30 35 -15 7z"/>
<path d="M1511 772 c22 -53 35 -64 24 -21 -3 13 -15 35 -26 49 -18 23 -18 21
2 -28z"/>
<path d="M1464 793 c4 -9 2 -19 -3 -22 -5 -4 -3 -16 5 -31 14 -23 14 -23 9 -2
-11 38 3 24 25 -25 11 -25 22 -44 25 -41 7 7 -14 66 -38 106 -20 34 -33 43
-23 15z"/>
<path d="M1728 783 c-4 -51 -3 -75 4 -79 4 -3 8 18 8 45 0 48 -8 71 -12 34z"/>
<path d="M1923 780 c-6 -14 -13 -41 -17 -60 -6 -34 -5 -34 14 9 12 25 19 52
17 60 -3 12 -7 9 -14 -9z"/>
<path d="M1330 763 c8 -3 23 -13 33 -21 16 -15 17 -14 11 1 -10 26 34 22 57
-5 l19 -23 -13 27 c-11 26 -16 28 -67 27 -30 0 -48 -3 -40 -6z"/>
<path d="M1582 756 c7 -8 15 -12 17 -11 5 6 -10 25 -20 25 -5 0 -4 -6 3 -14z"/>
<path d="M1885 760 c4 -6 11 -8 16 -5 14 9 11 15 -7 15 -8 0 -12 -5 -9 -10z"/>
<path d="M1028 745 c-2 -2 -105 -7 -229 -11 -123 -3 -239 -9 -257 -13 -18 -3
90 -5 240 -3 150 2 276 8 281 13 4 5 4 7 1 4 -4 -3 -12 0 -19 5 -7 5 -14 8
-17 5z"/>
<path d="M320 719 c-67 -5 -62 -6 48 -7 67 -1 122 2 122 7 0 9 -54 9 -170 0z"/>
<path d="M949 706 c-4 -3 -830 -20 -912 -19 -30 1 -37 -2 -35 -15 3 -15 24
-17 198 -15 107 2 274 8 370 13 96 6 224 12 283 15 60 2 111 6 114 8 5 6 -12
18 -18 13z"/>
<path d="M1290 666 c0 -2 8 -10 18 -17 15 -13 16 -12 3 4 -13 16 -21 21 -21
13z"/>
<path d="M1905 659 c-4 -6 -5 -12 -2 -15 2 -3 7 2 10 11 7 17 1 20 -8 4z"/>
<path d="M2455 610 l-20 -9 20 0 c11 0 29 4 40 9 l20 9 -20 0 c-11 0 -29 -4
-40 -9z"/>
<path d="M2356 591 c-4 -7 -5 -15 -2 -18 9 -9 19 4 14 18 -4 11 -6 11 -12 0z"/>
<path d="M27 572 c-35 -4 -35 -22 1 -23 89 -5 644 10 651 17 3 3 -85 4 -197 2
-111 -2 -202 0 -202 5 0 7 -188 6 -253 -1z"/>
<path d="M1161 536 c2 -2 15 -9 29 -15 24 -11 24 -11 6 3 -16 13 -49 24 -35
12z"/>
<path d="M7 523 c7 -2 19 -2 26 0 6 3 1 5 -13 5 -14 0 -19 -2 -13 -5z"/>
<path d="M686 521 c-8 -12 56 -21 69 -10 13 13 27 11 19 -2 -5 -9 6 -10 41 -6
27 3 60 1 73 -4 17 -7 21 -6 16 3 -5 8 -2 9 9 5 10 -3 17 -3 17 2 0 4 -41 11
-92 15 -121 8 -146 8 -152 -3z"/>
<path d="M535 510 c-44 -4 -57 -7 -35 -9 55 -5 104 0 115 10 6 6 6 8 0 7 -6
-1 -41 -4 -80 -8z"/>
<path d="M956 510 c-19 -6 -19 -7 2 -12 14 -4 20 -2 16 4 -5 7 3 8 22 4 53
-14 105 -16 98 -4 -5 8 -1 9 12 4 10 -4 15 -4 12 0 -10 9 -139 13 -162 4z"/>
<path d="M1495 360 c3 -5 8 -10 11 -10 2 0 4 5 4 10 0 6 -5 10 -11 10 -5 0 -7
-4 -4 -10z"/>
</g>
</svg>
