<?xml version="1.0" standalone="no"?>
<!DOCTYPE svg PUBLIC "-//W3C//DTD SVG 20010904//EN"
 "http://www.w3.org/TR/2001/REC-SVG-20010904/DTD/svg10.dtd">
<svg version="1.0" xmlns="http://www.w3.org/2000/svg"
 width="300.000000pt" height="300.000000pt" viewBox="0 0 300.000000 300.000000"
 preserveAspectRatio="xMidYMid meet">

<g transform="translate(0.000000,300.000000) scale(0.100000,-0.100000)"
fill="#000000" stroke="none">
<path d="M0 2716 c0 -275 1 -284 20 -289 11 -3 20 -11 19 -19 0 -10 -2 -10 -6
0 -2 6 -11 12 -19 12 -10 0 -14 -13 -14 -46 0 -39 3 -45 16 -40 9 4 74 18 143
32 69 14 136 28 149 31 19 4 22 1 22 -23 0 -16 10 -110 22 -209 22 -186 20
-242 -9 -231 -14 6 -14 4 -2 -11 8 -9 9 -14 3 -10 -6 4 -19 -2 -29 -13 -10
-12 -13 -20 -7 -20 7 0 12 5 12 10 0 6 5 10 11 10 5 0 7 -5 4 -10 -4 -7 3 -9
20 -6 17 3 25 1 22 -7 -2 -6 -88 -76 -190 -155 -155 -119 -187 -148 -187 -168
l0 -26 38 29 c20 16 53 40 72 52 l35 23 -26 -24 c-14 -12 -47 -38 -72 -55
l-47 -33 0 -80 0 -80 33 -2 c17 0 38 -1 45 -1 6 1 12 -1 12 -3 0 -10 -66 -63
-79 -64 -20 0 -12 -249 9 -276 14 -17 14 -18 -2 -6 -15 12 -17 1 -17 -153 -1
-154 0 -169 19 -193 80 -103 132 -182 120 -182 -5 0 -10 5 -10 10 0 6 -10 10
-22 11 -13 0 -17 3 -10 6 21 8 13 21 -11 15 -20 -5 -21 -4 -8 11 7 10 9 17 3
17 -6 0 -23 20 -38 44 -19 30 -31 41 -36 33 -4 -7 -8 -81 -8 -165 l0 -153 22
15 c12 9 42 16 65 16 32 0 45 5 53 19 14 27 13 78 -2 84 -7 2 -10 8 -6 12 13
14 28 -6 28 -37 l0 -30 52 6 c29 3 58 5 63 5 6 -1 62 -3 125 -5 l115 -4 -28
25 c-27 24 -64 35 -52 15 4 -6 12 -7 18 -4 8 4 7 2 -1 -7 -21 -22 -36 10 -16
36 37 51 40 66 15 86 -27 22 -41 17 -41 -14 0 -20 0 -20 -15 -1 -14 18 -14 18
-15 -5 0 -16 -4 -21 -14 -18 -8 3 -17 1 -20 -6 -2 -7 -5 -4 -5 7 -1 12 -6 16
-16 12 -10 -3 -15 1 -15 14 0 10 -9 22 -21 25 -15 5 -18 9 -9 15 9 6 8 11 -6
19 -17 11 -16 11 6 5 22 -6 23 -5 11 10 -7 9 -20 16 -27 16 -8 0 -14 5 -14 10
0 23 49 -5 54 -30 3 -22 26 -60 35 -60 4 0 7 24 6 53 -1 43 -7 57 -33 86 -18
18 -29 37 -26 42 3 5 -3 9 -13 10 -10 0 -13 3 -6 6 10 3 9 12 -3 35 -11 22
-13 37 -6 52 10 23 2 58 -13 57 -6 0 -9 6 -7 14 1 7 -8 15 -22 19 -13 3 -26
12 -29 20 -9 23 42 -2 71 -34 29 -32 56 -120 32 -105 -5 3 -10 -1 -10 -10 0
-9 4 -13 10 -10 5 3 10 0 10 -7 1 -8 6 -6 15 6 14 18 16 18 77 -14 35 -18 75
-42 91 -52 15 -11 27 -16 27 -11 0 4 4 3 8 -4 5 -8 17 -3 38 17 l31 27 -71 34
c-39 19 -74 39 -78 44 -6 7 -11 7 -15 0 -5 -5 -17 -12 -28 -13 -15 -3 -17 -1
-9 8 6 6 22 12 36 14 13 1 40 14 59 28 45 34 73 47 106 52 15 3 53 12 83 20
30 9 66 16 80 16 22 0 25 -5 28 -36 2 -38 2 -39 -53 -19 -11 4 6 -8 38 -27 31
-18 70 -45 85 -59 72 -68 201 -117 378 -144 90 -13 189 -17 178 -6 -2 3 3 15
11 28 15 23 8 32 -10 13 -7 -6 -9 19 -7 68 4 73 15 108 32 97 5 -3 20 -1 34 5
17 6 26 6 26 0 0 -6 -6 -10 -13 -10 -22 0 -45 -32 -52 -70 -6 -35 -5 -37 61
-85 36 -27 73 -50 80 -51 17 -3 61 -30 108 -68 33 -26 44 -29 138 -33 57 -3
106 -8 110 -12 5 -4 -8 -5 -27 -3 -53 6 -105 -6 -105 -25 0 -15 2 -15 18 0 10
10 25 17 33 17 9 0 7 -5 -6 -12 -11 -6 -26 -18 -33 -26 -7 -10 -12 -11 -12 -4
0 7 -7 12 -15 12 -8 0 -15 9 -15 20 0 20 -6 20 -152 19 -116 0 -148 -3 -133
-11 21 -12 35 -28 35 -40 0 -4 -11 4 -25 17 -28 29 -35 30 -78 10 l-32 -16 22
19 22 20 -32 -3 c-18 -2 -35 -3 -39 -4 -5 -1 -8 -23 -8 -51 0 -27 -4 -50 -8
-50 -5 0 -7 -14 -4 -30 3 -23 0 -30 -13 -30 -13 0 -16 -6 -11 -25 5 -20 3 -23
-11 -18 -12 5 -14 3 -9 -8 4 -8 0 -5 -8 5 -9 11 -16 25 -16 31 0 7 -18 12 -41
13 -22 1 -46 5 -52 9 -13 7 4 -17 37 -54 24 -28 16 -29 -24 -5 -16 10 -27 22
-23 25 3 4 -1 7 -9 7 -18 0 -28 20 -28 56 0 14 -7 35 -16 49 -12 18 -14 36 -8
72 9 64 -2 52 -14 -14 -8 -46 -7 -55 9 -69 11 -10 19 -22 19 -28 0 -6 -14 4
-30 21 -34 37 -46 42 -30 13 6 -10 8 -37 4 -58 -5 -34 -3 -41 22 -61 27 -21
29 -21 36 -4 6 15 7 14 5 -5 -2 -19 5 -26 36 -37 21 -7 39 -15 40 -17 1 -2 16
-19 32 -38 33 -37 11 -25 -42 24 -37 33 -42 29 -16 -12 15 -24 13 -23 -22 8
-29 26 -36 30 -31 15 5 -18 5 -18 -6 -3 -7 9 -18 25 -25 35 -10 16 -11 15 -7
-7 l5 -25 -14 24 c-11 18 -16 20 -20 10 -3 -8 -6 -2 -6 13 -1 31 -35 54 -91
60 -37 4 -80 27 -80 42 0 5 -7 17 -15 26 -14 15 -14 20 5 41 11 13 19 18 18
10 -2 -7 3 -16 10 -18 8 -3 12 6 12 27 0 21 9 38 28 55 15 14 21 25 13 25 -10
0 -10 5 3 25 17 25 13 51 -5 40 -5 -4 -12 1 -15 10 -5 11 -10 13 -19 5 -16
-13 -48 -2 -42 14 4 9 -11 12 -49 11 -77 -3 -113 -30 -112 -86 0 -22 6 -43 13
-45 6 -3 12 -19 13 -37 0 -21 -2 -27 -8 -17 -7 12 -11 12 -26 -1 -16 -12 -17
-12 -11 4 6 15 4 16 -16 6 -21 -12 -21 -11 -7 6 14 17 14 18 -10 5 -22 -12
-23 -11 -13 2 11 12 9 14 -7 13 -11 -1 -24 -6 -29 -11 -10 -10 -43 -115 -38
-121 2 -1 17 1 33 5 16 4 40 7 53 6 13 -1 32 6 42 15 11 9 28 24 40 34 11 10
23 16 27 13 3 -3 3 -7 1 -9 -2 -2 -21 -16 -41 -31 -21 -16 -38 -34 -38 -41 0
-17 -37 -26 -43 -11 -4 11 -20 12 -78 7 -8 0 -34 -24 -57 -52 -23 -29 -42 -48
-42 -43 0 5 -27 -20 -61 -56 -34 -36 -52 -51 -41 -35 11 17 52 62 91 101 39
39 71 73 71 75 0 2 -47 4 -104 4 -85 0 -107 -3 -123 -18 -26 -23 -64 -22 -70
2 -6 25 -57 23 -76 -4 -13 -16 -13 -21 0 -33 13 -13 12 -18 -7 -36 -16 -17
-33 -21 -80 -21 l-60 0 0 -132 0 -133 1218 0 c1353 0 1360 0 1323 59 -7 11
-11 10 -20 -5 -10 -18 -10 -18 -11 4 0 12 -5 22 -12 22 -9 0 -9 3 0 12 10 10
15 10 23 -2 9 -12 10 -12 5 3 -3 10 -6 20 -6 21 0 1 -14 1 -31 -2 -17 -3 -28
-9 -26 -16 16 -37 19 -50 12 -44 -4 4 -14 3 -21 -3 -8 -7 -14 -6 -20 2 -5 8
-3 9 6 4 17 -10 3 35 -17 55 -14 13 -14 13 -4 -7 12 -24 15 -44 3 -27 -4 6
-20 16 -37 22 -18 6 -23 11 -12 11 10 1 16 5 13 10 -4 5 -22 5 -43 1 -25 -6
-40 -5 -44 2 -4 6 -11 8 -17 4 -6 -3 -12 -3 -15 1 -2 5 -3 4 -2 -2 1 -5 -2
-21 -7 -35 -9 -24 -11 -22 -38 35 -16 33 -30 62 -30 65 0 3 66 17 146 30 159
26 163 28 208 115 10 18 16 23 16 13 0 -9 8 -19 18 -21 12 -3 11 -5 -6 -6 -20
-1 -21 -3 -11 -23 11 -20 10 -21 -3 -10 -13 10 -18 8 -32 -14 -17 -24 -17 -25
1 -15 16 8 19 6 20 -11 2 -25 36 -112 70 -180 l23 -48 -32 -1 c-18 -1 -44 -5
-58 -9 -14 -5 78 -8 213 -9 l237 -1 0 170 c0 113 -4 170 -11 170 -5 0 -7 5 -3
12 12 19 11 57 -2 62 -7 3 -15 -9 -19 -30 -3 -19 -12 -37 -19 -40 -12 -4 -261
77 -273 90 -3 3 -5 37 -5 76 2 90 21 120 72 116 81 -8 202 -50 243 -84 16 -14
17 -5 17 180 0 213 -4 227 -55 214 -14 -4 -25 -2 -25 4 0 5 18 10 40 10 l41 0
-3 137 -3 138 -30 -4 c-16 -1 -33 -8 -37 -15 -6 -8 -8 -7 -8 2 0 13 6 16 53
26 26 6 27 9 27 66 0 40 -4 60 -12 60 -9 0 -9 3 0 12 7 7 12 44 12 95 l0 83
-32 -2 c-18 -1 -42 2 -53 6 -11 4 -16 4 -10 -1 13 -11 17 -33 6 -33 -5 0 -12
6 -14 13 -4 9 -6 9 -6 -1 -1 -7 -5 -10 -11 -7 -5 3 -10 2 -10 -3 0 -5 13 -15
30 -22 47 -20 25 -30 -32 -14 -29 7 -54 11 -56 9 -8 -7 84 -28 123 -27 71 1 7
-15 -86 -21 l-86 -6 -116 92 -116 91 37 18 c45 21 50 21 82 5 122 -65 127 -67
159 -61 18 4 28 10 22 13 -13 9 31 61 51 61 8 0 23 -9 33 -20 17 -19 17 -20
-1 -20 -18 -1 -18 -1 -1 -14 14 -11 15 -15 5 -19 -7 -3 1 -6 19 -6 17 -1 35
-5 38 -11 16 -25 25 -5 25 55 l0 64 -65 36 c-36 20 -65 39 -65 42 0 3 29 -11
65 -31 58 -32 65 -34 65 -16 0 14 -31 35 -125 85 -119 64 -146 85 -107 85 12
1 9 5 -10 16 -30 16 -38 27 -13 18 11 -5 15 1 15 21 0 15 -4 24 -10 20 -6 -3
-10 -1 -10 5 0 6 -4 9 -9 5 -12 -7 -26 35 -14 44 4 3 9 29 10 56 3 78 15 155
24 155 5 0 9 -8 9 -17 0 -13 6 -10 20 12 17 26 18 32 5 52 -8 12 -15 24 -15
26 0 9 52 -2 66 -14 13 -11 14 -9 9 14 -6 23 -4 27 15 27 11 0 18 5 15 10 -9
14 -45 12 -43 -2 2 -7 -5 -12 -14 -10 -10 2 -18 -1 -18 -5 0 -4 -11 -8 -25 -8
-21 0 -23 2 -10 11 18 13 20 34 3 34 -6 0 -9 3 -5 6 3 3 55 -2 117 -11 61 -10
113 -15 116 -12 6 6 -4 8 -151 33 -130 23 -107 30 30 10 58 -9 110 -16 115
-16 6 0 10 118 10 316 l0 315 -122 -3 c-68 -2 -132 -7 -143 -12 -16 -6 -17 -6
-5 3 11 8 -37 11 -178 11 -159 0 -197 -3 -220 -16 -25 -15 -26 -15 -7 0 18 15
0 16 -249 16 l-268 -1 6 -42 c4 -22 12 -47 18 -54 6 -8 8 -16 4 -20 -3 -3 -6
-1 -6 5 0 7 -4 12 -9 12 -5 0 -9 -18 -9 -40 0 -22 2 -40 5 -40 3 0 17 8 31 18
48 33 58 34 23 3 -34 -30 -43 -47 -42 -84 0 -15 -3 -15 -20 5 -20 22 -20 22 0
-9 12 -17 21 -36 21 -43 0 -7 7 -10 15 -6 24 9 17 -12 -10 -30 -15 -10 -38
-15 -60 -12 -20 2 -31 0 -26 -5 11 -11 71 -13 96 -3 19 8 19 8 1 -6 -16 -13
-17 -19 -7 -50 6 -20 21 -44 32 -54 21 -19 59 -27 59 -12 0 4 -4 8 -9 8 -6 0
-9 9 -8 20 1 11 4 20 8 20 4 0 15 3 24 7 16 5 17 -1 12 -73 -4 -43 -6 -87 -7
-98 0 -12 -5 -16 -16 -12 -8 3 -40 3 -69 0 -47 -6 -53 -9 -51 -29 5 -39 15
-45 83 -45 l66 0 -6 -120 -6 -120 23 0 c30 0 50 -24 43 -52 -4 -12 -1 -28 5
-35 8 -10 7 -12 -6 -7 -10 4 -18 0 -22 -11 -5 -13 -9 -14 -15 -4 -6 10 -10 10
-23 0 -11 -9 -20 -10 -35 -2 -16 9 -20 8 -23 -10 -2 -11 -19 -29 -38 -41 l-35
-21 28 27 c15 15 27 38 27 52 0 44 -31 178 -44 188 -7 6 -19 27 -26 46 -17 45
-59 102 -70 95 -5 -3 -11 -1 -15 5 -10 16 -73 8 -70 -10 2 -8 4 -21 4 -28 1
-9 12 -13 36 -11 19 2 39 -1 44 -6 7 -7 -2 -10 -24 -9 -26 2 -35 -2 -36 -15 0
-9 -11 7 -24 34 -27 57 -32 48 -10 -15 14 -39 14 -44 -2 -56 -16 -11 -19 -9
-29 19 -11 31 -11 32 -16 7 -4 -18 -6 -14 -7 15 -2 51 -22 79 -50 70 -27 -8
-18 -25 9 -18 18 5 20 0 20 -56 0 -70 -12 -73 -29 -7 -6 25 -15 47 -20 51 -6
3 -5 -10 1 -31 5 -20 8 -38 5 -40 -2 -3 -10 16 -17 42 -13 45 -13 45 -24 21
-10 -24 -12 -25 -31 -10 l-20 16 20 -7 c15 -5 17 -4 9 4 -6 6 -33 13 -60 16
-67 6 -84 13 -84 32 0 12 -7 7 -20 -13 -11 -17 -20 -23 -20 -15 0 12 -2 12 -9
1 -5 -8 -11 -9 -15 -3 -3 6 -2 13 4 17 12 7 -9 32 -31 36 -17 4 -79 -23 -79
-34 0 -5 -5 -5 -12 -1 -6 4 -8 3 -4 -4 3 -6 -2 -15 -11 -21 -10 -6 -13 -11 -8
-11 7 0 7 -3 0 -8 -21 -15 -59 -77 -58 -94 1 -10 -2 -18 -7 -18 -9 0 -24 -68
-35 -158 -6 -45 -4 -55 11 -67 12 -9 14 -14 6 -15 -7 0 -24 11 -37 25 -29 28
-30 27 -11 -17 16 -36 49 -208 42 -215 -2 -2 -34 -5 -70 -6 -55 -2 -66 1 -66
14 0 9 7 22 15 29 18 15 15 63 -5 118 -8 23 -15 30 -20 22 -11 -18 -30 20 -30
59 0 23 4 29 15 25 8 -4 15 -1 15 5 0 6 -9 11 -20 11 -12 0 -17 5 -14 14 8 21
-27 29 -47 10 -21 -19 -27 -70 -7 -58 8 5 9 0 5 -17 -4 -13 -7 -35 -7 -49 -1
-22 -2 -23 -13 -8 -16 21 -41 8 -62 -32 -12 -24 -12 -29 0 -33 7 -3 19 -16 26
-29 6 -13 8 -20 4 -16 -5 4 -14 3 -22 -3 -16 -14 -17 3 -1 19 9 9 -3 12 -54
12 -58 0 -66 2 -62 18 2 9 0 31 -5 47 -7 23 -10 25 -11 10 -1 -11 -2 -26 -1
-32 3 -18 -16 -16 -23 2 -3 8 -1 15 5 15 6 0 9 6 6 13 -2 6 -10 11 -16 10 -6
-2 -11 8 -11 21 0 13 -3 31 -6 40 -3 9 -1 16 5 16 6 0 11 -6 11 -14 0 -7 11
-21 25 -30 13 -9 30 -34 36 -56 11 -34 16 -40 41 -40 15 0 28 4 28 9 0 4 -11
6 -25 3 -23 -4 -25 -2 -25 36 0 23 -4 44 -10 47 -5 3 -10 11 -10 18 0 8 3 8
12 -1 7 -7 19 -12 27 -12 13 1 13 3 -2 15 -25 18 -18 49 13 54 23 3 22 5 -15
22 l-40 18 32 0 c30 1 32 3 23 25 -5 13 -6 26 -4 29 3 3 6 26 6 50 0 45 0 46
41 52 27 5 42 4 45 -4 2 -6 8 -9 13 -5 5 3 9 -2 9 -10 0 -13 13 -16 70 -16
l70 0 0 -30 0 -30 -67 -1 c-47 0 -62 -3 -48 -9 15 -6 16 -9 5 -11 -8 -2 28 -5
80 -8 91 -6 95 -7 92 -28 -2 -13 2 -23 9 -23 9 0 10 24 6 94 -3 51 -7 97 -8
102 -1 5 -1 32 0 61 1 40 5 53 19 57 16 6 18 18 18 113 0 72 3 108 11 110 7 3
10 10 7 17 -3 8 1 20 8 27 7 8 13 32 14 54 0 22 3 65 8 96 7 52 6 56 -19 69
-21 11 -25 20 -23 54 l1 41 4 -37 c3 -21 11 -39 20 -42 20 -8 32 9 26 34 -3
10 0 21 6 24 6 4 11 15 11 25 0 16 51 51 73 51 3 0 8 -24 10 -52 l3 -53 2 56
c1 40 6 59 17 63 8 3 15 10 15 17 0 12 -72 8 -104 -6 -14 -6 -17 -5 -12 3 5 9
-127 12 -548 12 l-556 0 0 -284z m148 218 c-21 -19 -43 -34 -50 -34 -7 0 1 9
19 20 18 11 38 28 45 39 7 11 15 18 18 15 3 -3 -12 -21 -32 -40z m2561 42 c-9
-9 -172 -66 -176 -62 -2 2 33 18 79 34 79 30 107 37 97 28z m-865 -22 c3 -8 2
-12 -4 -9 -6 3 -10 10 -10 16 0 14 7 11 14 -7z m746 6 c-8 -5 -19 -10 -25 -10
-5 0 -3 5 5 10 8 5 20 10 25 10 6 0 3 -5 -5 -10z m-1500 -20 c-12 -23 -19 -24
-40 -9 -12 8 -11 9 6 4 14 -4 24 0 28 10 3 8 8 15 11 15 3 0 1 -9 -5 -20z
m-233 -67 c-3 -10 -5 -2 -5 17 0 19 2 27 5 18 2 -10 2 -26 0 -35z m70 25 c-3
-8 -6 -5 -6 6 -1 11 2 17 5 13 3 -3 4 -12 1 -19z m87 -2 c-4 -9 -17 -16 -33
-15 -24 0 -25 1 -5 9 12 5 25 14 29 20 10 16 17 6 9 -14z m-554 -11 c-7 -8
-16 -15 -21 -15 -5 0 -1 9 8 20 9 11 19 17 21 15 3 -3 -1 -11 -8 -20z m1495
15 c-3 -5 -16 -15 -28 -21 -21 -10 -21 -9 2 10 25 23 36 27 26 11z m-1466 -17
c-12 -15 -12 -16 4 -10 10 4 16 3 13 -2 -9 -14 36 -21 53 -9 9 6 4 -1 -12 -15
-27 -26 -28 -26 -47 -7 -11 11 -25 20 -32 20 -6 0 -3 9 7 20 22 24 33 27 14 3z
m418 -25 c-3 -8 -6 -5 -6 6 -1 11 2 17 5 13 3 -3 4 -12 1 -19z m103 -20 c0 -5
-11 -1 -25 8 -14 9 -25 18 -25 20 0 2 11 -2 25 -8 14 -6 25 -15 25 -20z m-522
-15 c-10 -2 -26 -2 -35 0 -10 3 -2 5 17 5 19 0 27 -2 18 -5z m532 -60 c-11
-17 -11 -17 -6 0 3 10 6 24 7 30 0 9 2 9 5 0 3 -7 0 -20 -6 -30z m-222 -189
c-4 -3 -12 5 -18 18 -12 22 -12 22 6 6 10 -10 15 -20 12 -24z m-710 -1 c-10
-2 -28 -2 -40 0 -13 2 -5 4 17 4 22 1 32 -1 23 -4z m82 -1 c0 -5 -13 -7 -30
-4 -16 2 -30 6 -30 8 0 2 14 4 30 4 17 0 30 -4 30 -8z m130 -12 c0 -5 -2 -10
-4 -10 -3 0 -8 5 -11 10 -3 6 -1 10 4 10 6 0 11 -4 11 -10z m709 -57 c1 -7 -3
-13 -9 -13 -5 0 -10 15 -9 33 0 27 2 29 9 12 5 -11 9 -26 9 -32z m1147 0 c-3
-8 -1 -11 4 -8 12 8 13 -25 1 -44 -5 -8 -14 -10 -21 -6 -9 5 -11 4 -6 -3 11
-18 -20 -15 -38 4 -18 18 -21 45 -6 60 17 17 72 14 66 -3z m522 -78 c2 -27 1
-47 -2 -44 -3 2 -6 21 -8 42 -2 31 -6 37 -26 37 -14 0 -21 4 -17 11 4 5 17 9
28 7 19 -3 22 -11 25 -53z m-2378 18 c0 -14 -2 -15 -9 -4 -5 7 -14 10 -20 7
-6 -4 -11 -2 -11 3 0 6 9 11 20 11 12 0 20 -7 20 -17z m-122 -18 c2 -10 -2
-21 -10 -26 -22 -14 -33 -10 -13 4 10 8 15 19 11 26 -6 9 -11 9 -22 0 -9 -7
-14 -8 -14 -1 0 26 43 24 48 -3z m55 18 c-7 -2 -19 -2 -25 0 -7 3 -2 5 12 5
14 0 19 -2 13 -5z m2427 -35 c0 -3 -9 -4 -20 -1 -23 6 -22 5 -14 27 6 15 8 15
20 -1 7 -10 14 -21 14 -25z m-2550 15 c0 -5 -11 -8 -25 -8 -14 0 -25 3 -25 8
0 4 11 7 25 7 14 0 25 -3 25 -7z m1100 -108 c0 -18 -5 -25 -19 -25 -28 0 -35
17 -10 23 12 3 18 10 14 16 -3 6 -1 11 4 11 6 0 11 -11 11 -25z m1090 -33 c0
-14 -48 -33 -55 -22 -4 6 -3 15 0 20 7 12 55 13 55 2z m-1126 -18 c3 -9 6 -23
6 -32 0 -17 -28 -52 -42 -52 -4 0 1 9 12 20 17 17 28 60 16 60 -3 0 -15 -18
-27 -40 -30 -54 -35 -44 -7 14 23 49 32 55 42 30z m1605 -20 c-9 -11 -15 -12
-23 -4 -8 8 -7 13 4 20 20 12 33 1 19 -16z m-1889 12 c0 -2 3 -11 6 -20 3 -9
1 -16 -6 -16 -6 0 -9 4 -5 10 3 5 -9 14 -27 19 l-33 9 33 1 c17 1 32 -1 32 -3z
m1694 -22 c-15 -6 -5 -46 10 -41 6 2 10 12 10 21 -1 9 5 16 13 16 13 0 14 -9
8 -47 -5 -27 -7 -58 -7 -70 2 -26 -3 -27 -44 -13 -29 10 -29 11 -26 75 3 59 6
65 25 64 12 0 17 -3 11 -5z m-1617 -87 c5 -67 4 -77 -11 -77 -13 0 -16 12 -16
73 0 65 6 94 17 84 2 -2 6 -38 10 -80z m-69 18 c-6 -6 -98 7 -98 14 0 3 20 5
45 3 38 -3 45 -1 46 14 1 14 3 12 6 -4 3 -13 3 -25 1 -27z m-243 -28 l7 -47
-36 2 c-35 3 -36 4 -35 43 1 24 3 31 6 17 3 -15 10 -22 21 -20 13 3 16 12 14
38 -5 53 15 25 23 -33z m1331 -35 c-13 -12 -16 7 -9 54 l8 49 3 -49 c2 -26 1
-51 -2 -54z m-346 62 c0 -2 -12 -4 -27 -4 -21 0 -24 3 -14 9 13 8 41 5 41 -5z
m-1101 -104 c1 -20 8 -45 16 -57 13 -19 13 -21 -5 -26 -11 -3 -18 -1 -14 4 11
18 -6 28 -33 18 -23 -8 -24 -8 -13 6 7 8 19 15 26 15 11 0 13 14 9 63 -3 43
-2 54 4 37 5 -14 9 -41 10 -60z m1909 35 c12 -4 20 -10 18 -14 -3 -4 7 -6 23
-3 17 2 32 -2 42 -14 13 -16 12 -16 -7 -6 -16 9 -28 8 -48 -1 -27 -12 -36 -29
-13 -24 8 1 11 -8 9 -25 -1 -16 1 -28 7 -28 5 0 8 -14 7 -31 -2 -20 4 -33 15
-40 10 -5 20 -22 24 -38 3 -15 16 -34 28 -40 12 -6 14 -9 5 -7 -11 3 -18 0
-18 -8 0 -7 -6 -19 -14 -25 -8 -6 -16 -22 -18 -36 -4 -19 1 -26 24 -36 33 -14
51 -35 22 -27 -10 3 -28 9 -39 13 l-20 8 20 -16 c18 -15 18 -16 3 -17 -10 0
-18 1 -18 3 -11 71 -11 80 5 97 22 24 15 95 -11 119 -16 15 -16 15 -10 -3 5
-16 4 -17 -9 -6 -12 10 -15 9 -16 -6 0 -11 -3 -14 -6 -6 -7 18 -67 48 -61 30
3 -7 -3 -25 -13 -39 -18 -26 -18 -27 2 -53 11 -14 27 -26 36 -26 8 0 13 -6 10
-12 -2 -7 -11 -12 -20 -10 -8 1 -18 -2 -22 -8 -3 -5 -10 -10 -16 -10 -5 0 -4
9 3 19 10 16 7 26 -16 62 -19 28 -23 40 -13 36 11 -4 14 -2 11 7 -3 8 0 17 7
22 8 5 10 3 4 -6 -5 -8 -4 -11 3 -6 6 4 9 13 6 20 -6 16 21 39 38 34 7 -3 18
2 25 11 14 18 17 32 6 29 -5 0 -15 2 -23 5 -8 4 -44 8 -80 9 l-65 3 0 37 c0
28 5 39 20 44 11 3 22 7 25 9 55 24 74 25 128 10z m-805 -2 c-13 -2 -33 -2
-45 0 -13 2 -3 4 22 4 25 0 35 -2 23 -4z m127 -12 c0 -13 -49 -20 -57 -8 -3 5
-2 8 3 5 5 -3 18 -2 29 3 11 4 21 8 23 8 1 1 2 -3 2 -8z m-122 -48 c-10 -2
-28 -2 -40 0 -13 2 -5 4 17 4 22 1 32 -1 23 -4z m961 -45 c28 -6 48 -15 45
-20 -7 -11 -52 -10 -59 2 -3 6 -11 10 -16 10 -6 0 -7 -4 -4 -10 8 -13 3 -13
-32 1 -22 8 -24 12 -13 19 19 12 19 12 79 -2z m-467 -10 c19 -16 31 -48 18
-48 -6 0 -10 7 -10 15 0 9 -7 18 -16 22 -17 6 -54 -28 -54 -51 0 -8 -5 -18
-11 -22 -8 -4 -9 1 -4 17 7 21 6 22 -9 10 -28 -24 -17 -4 19 33 38 40 44 42
67 24z m-494 -15 c-10 -2 -26 -2 -35 0 -10 3 -2 5 17 5 19 0 27 -2 18 -5z
m320 -13 c18 0 15 -40 -4 -47 -9 -3 -20 0 -25 8 -6 10 -9 10 -9 2 0 -7 -4 -13
-9 -13 -5 0 -9 14 -9 31 1 26 4 30 22 25 12 -3 27 -6 34 -6z m756 -5 c-4 -8
-11 -12 -16 -9 -6 4 -5 10 3 15 19 12 19 11 13 -6z m-2347 -37 c-3 -7 -5 -2
-5 12 0 14 2 19 5 13 2 -7 2 -19 0 -25z m85 -31 c-20 -19 -32 -26 -32 -17 0
15 52 62 59 54 3 -3 -9 -19 -27 -37z m1556 29 c-26 -19 -22 -26 16 -26 25 0
39 7 50 22 20 28 30 19 16 -16 -13 -36 -13 -49 2 -40 7 4 8 3 4 -4 -5 -8 -13
-9 -25 -3 -13 7 -18 6 -18 -3 0 -8 16 -21 34 -30 31 -15 33 -18 19 -31 -15
-15 -36 -10 -98 23 -4 2 -6 -6 -5 -17 1 -12 4 -21 7 -21 3 0 5 -14 6 -31 1
-17 -2 -27 -5 -22 -9 12 -145 10 -153 -3 -7 -10 -33 -212 -41 -309 -3 -36 -4
-34 -11 23 -8 56 -11 62 -32 62 -17 0 -24 -6 -24 -20 0 -11 -6 -20 -14 -20 -9
0 -12 8 -8 25 2 15 0 25 -7 25 -6 0 -11 9 -11 19 0 15 7 19 34 18 19 0 34 -5
33 -11 -1 -5 6 -12 15 -14 12 -2 19 4 22 20 9 38 28 172 27 193 0 10 4 25 10
31 11 13 16 42 19 119 1 38 4 44 9 25 5 -17 9 -21 15 -12 4 7 23 11 43 10 25
-2 40 3 47 15 6 9 18 17 26 17 12 -1 12 -3 -2 -14z m116 5 c3 -5 -1 -14 -8
-20 -12 -10 -13 -8 -9 8 6 23 9 25 17 12z m111 -52 c14 -1 16 -3 4 -6 -24 -6
-23 -63 1 -63 10 0 20 7 24 15 6 17 46 21 46 5 0 -5 -9 -10 -20 -10 -14 0 -18
-5 -13 -17 5 -12 3 -14 -7 -8 -9 5 -11 4 -6 -3 10 -16 38 -15 62 3 27 21 40
18 20 -4 -15 -16 -15 -19 -1 -24 12 -5 13 -11 3 -34 -7 -15 -21 -37 -31 -48
-10 -11 -24 -32 -32 -48 -13 -26 -12 -29 9 -38 24 -11 56 -58 56 -81 0 -7 -8
2 -17 20 -9 19 -26 38 -38 42 -25 10 -38 33 -25 46 16 17 15 50 -3 77 -16 24
-47 41 -32 17 3 -6 -2 -13 -12 -17 -37 -13 -53 -39 -43 -72 6 -24 5 -31 -5
-31 -17 0 -27 28 -19 53 4 11 1 23 -7 29 -11 8 -10 9 4 4 15 -5 16 -3 6 16
-10 18 -8 24 15 41 14 10 24 23 20 28 -3 5 -1 9 5 9 7 0 8 17 4 48 -4 35 -13
53 -34 70 -16 13 -29 28 -29 33 0 6 17 -3 37 -20 21 -17 47 -32 58 -32z m495
30 c0 -4 -7 -6 -15 -3 -8 4 -15 10 -15 15 0 4 7 6 15 3 8 -4 15 -10 15 -15z
m-1092 -6 c-10 -2 -26 -2 -35 0 -10 3 -2 5 17 5 19 0 27 -2 18 -5z m756 -18
c-9 -14 -19 -23 -22 -20 -5 4 26 45 35 45 2 0 -4 -11 -13 -25z m-2010 -26
c-16 -17 -38 -35 -49 -40 -11 -6 0 8 25 30 54 48 65 53 24 10z m1956 -30 c0
-5 -4 -9 -8 -9 -5 0 -9 7 -9 15 0 8 4 12 9 9 4 -3 8 -9 8 -15z m-1474 -15 c-4
-9 -9 -15 -11 -12 -3 3 -3 13 1 22 4 9 9 15 11 12 3 -3 3 -13 -1 -22z m769 16
c-28 -12 -45 -12 -45 0 0 6 15 10 33 9 27 0 29 -2 12 -9z m-1232 -31 c-7 -7
-19 -9 -27 -6 -18 7 -22 27 -5 27 5 0 7 -5 3 -11 -4 -7 -1 -10 7 -7 8 3 13 12
11 19 -3 11 -1 12 9 2 10 -10 10 -16 2 -24z m1134 -61 c-2 -18 -4 -6 -4 27 0
33 2 48 4 33 2 -15 2 -42 0 -60z m-927 21 c0 -10 -4 -19 -8 -21 -5 -1 -23 -23
-40 -47 -18 -24 -32 -37 -32 -29 0 8 14 33 31 56 24 33 30 49 25 70 -6 26 -6
26 9 8 8 -11 15 -28 15 -37z m-306 23 c-33 -30 -135 -100 -117 -82 30 31 117
98 122 93 3 -2 0 -7 -5 -11z m1336 -12 c0 -5 -12 -10 -27 -9 l-28 1 25 8 c14
4 26 8 28 9 1 1 2 -3 2 -9z m1100 -8 c0 -11 -34 -42 -47 -42 -19 0 -16 37 4
48 16 10 43 6 43 -6z m105 -27 c72 -41 134 -85 80 -57 -66 35 -178 102 -170
102 6 0 46 -20 90 -45z m-2129 24 c3 -6 3 -14 -2 -18 -5 -3 -16 -14 -24 -24
-13 -17 -12 -21 10 -39 14 -11 18 -18 9 -15 -9 3 -22 1 -29 -3 -22 -14 -33 0
-13 16 11 8 13 13 6 14 -7 0 -13 12 -13 26 0 19 4 25 15 21 19 -8 31 13 14 24
-11 7 -11 9 3 9 9 0 20 -5 24 -11z m-379 -42 c-2 -6 -9 -13 -17 -15 -7 -3 -10
0 -6 6 3 5 -1 13 -10 16 -8 3 -12 10 -9 16 8 13 48 -7 42 -23z m2403 -2 c-7
-8 -17 -15 -23 -15 -5 0 -2 9 8 20 21 23 35 19 15 -5z m69 16 c21 -13 5 -41
-23 -41 -30 0 -42 16 -26 35 14 17 29 19 49 6z m-1102 -23 c-3 -8 -6 -5 -6 6
-1 11 2 17 5 13 3 -3 4 -12 1 -19z m324 -61 c-1 -28 -4 -70 -6 -92 -2 -23 1
-42 8 -47 6 -4 8 -10 4 -14 -26 -27 -36 58 -20 174 7 58 17 45 14 -21z m788
18 c-18 -25 -40 -45 -48 -45 -13 1 -13 2 2 11 15 9 16 13 5 27 -11 15 -11 15
3 5 13 -11 19 -8 38 17 12 17 24 30 27 30 3 0 -9 -20 -27 -45z m-1953 -47 c-9
-104 -14 -125 -32 -132 -11 -4 -12 -1 -5 12 5 9 12 55 16 102 4 47 9 88 12 93
12 21 15 -1 9 -75z m641 35 c6 -2 14 8 17 24 5 31 -1 -65 -11 -171 l-6 -69 52
7 c28 4 59 9 69 12 14 5 14 4 2 -4 -8 -5 -41 -15 -72 -22 -33 -8 -58 -19 -58
-26 0 -9 10 -10 41 -3 62 14 72 4 12 -11 -29 -8 -53 -18 -53 -23 0 -5 -7 -4
-15 3 -13 11 -15 1 -15 -81 0 -112 -12 -165 -40 -172 -47 -12 -177 15 -270 56
-19 9 -47 18 -62 22 -16 3 -28 10 -28 15 0 6 9 6 25 0 20 -7 32 -6 51 6 13 9
28 14 32 10 3 -4 0 -11 -8 -16 -13 -8 -12 -12 4 -27 14 -14 20 -15 23 -5 4 10
8 10 21 0 13 -11 15 -10 10 14 -5 24 -3 26 15 17 14 -8 18 -8 13 0 -4 6 5 29
21 51 l28 40 70 -3 70 -2 3 36 3 36 -60 6 c-33 4 -75 13 -93 20 -30 12 -26 13
62 11 90 -3 92 -2 35 6 -33 6 -80 17 -105 25 -25 8 -33 13 -19 10 70 -13 167
-17 172 -8 4 7 -21 13 -64 17 -88 9 -98 13 -92 36 3 10 0 27 -6 39 -11 20 -9
21 31 22 26 1 33 3 18 6 -48 8 -57 14 -32 24 16 6 22 17 22 38 0 37 38 63 97
66 25 2 47 6 50 9 4 3 11 -4 17 -16 6 -12 16 -23 23 -25z m1045 31 c-12 -8
-30 -13 -40 -11 -13 4 -12 5 5 6 12 0 25 6 28 11 3 6 11 10 18 10 6 0 1 -7
-11 -16z m-2229 -15 c-4 -15 -8 -17 -14 -8 -8 14 -3 29 11 29 4 0 6 -9 3 -21z
m144 -21 c-3 -8 -6 -5 -6 6 -1 11 2 17 5 13 3 -3 4 -12 1 -19z m1224 -58 c-5
-41 -9 -52 -10 -30 -1 39 11 120 16 105 1 -6 -1 -39 -6 -75z m-632 16 c1 -11
9 -28 19 -39 9 -11 11 -17 5 -13 -8 4 -13 2 -14 -6 -1 -21 -29 75 -28 97 l0
20 9 -20 c5 -11 9 -29 9 -39z m-379 35 c8 11 13 10 32 -10 13 -13 18 -21 11
-17 -8 4 -10 -5 -6 -32 4 -28 0 -41 -15 -55 -19 -17 -19 -17 -15 7 3 13 0 32
-5 43 -8 13 -7 22 5 35 13 15 13 16 -6 11 -12 -3 -21 -10 -21 -15 0 -5 -4 -6
-10 -3 -6 4 -10 -11 -10 -37 0 -48 -13 -80 -23 -55 -3 8 -2 31 3 50 4 20 5 38
2 41 -3 4 0 6 7 6 7 0 9 5 6 10 -3 6 -1 10 5 10 6 0 8 5 4 13 -5 7 -1 7 10 -2
15 -13 19 -13 26 0z m-386 -17 c3 -8 2 -12 -4 -9 -6 3 -10 10 -10 16 0 14 7
11 14 -7z m71 0 c33 -8 80 -114 79 -179 -2 -89 -4 -105 -12 -105 -4 0 -6 31
-4 68 4 59 0 77 -23 126 -14 31 -31 54 -36 51 -5 -4 -6 0 -3 8 3 9 -3 16 -15
20 -12 3 -21 1 -21 -4 0 -5 5 -9 10 -9 6 0 10 -14 10 -31 0 -17 5 -40 12 -52
10 -20 10 -21 -5 -8 -10 7 -17 20 -17 28 0 8 -5 11 -12 7 -6 -4 -8 -3 -5 3 4
6 1 16 -6 22 -19 15 -10 74 10 67 8 -4 25 -9 38 -12z m2022 -6 c-3 -8 -6 -5
-6 6 -1 11 2 17 5 13 3 -3 4 -12 1 -19z m-2157 8 c0 -2 -20 -16 -45 -32 -25
-15 -45 -35 -46 -43 0 -11 -2 -12 -6 -3 -3 7 1 20 9 29 21 26 88 64 88 49z
m1340 -41 c10 3 21 2 24 -3 3 -5 -9 -13 -27 -17 -32 -7 -32 -7 -7 -15 14 -4
18 -8 9 -9 -11 -1 -16 -10 -15 -31 1 -16 2 -30 3 -30 1 0 9 12 18 28 l15 27
-2 -29 c-2 -23 -9 -31 -32 -38 -17 -4 -32 -5 -34 -3 -3 2 2 41 9 87 8 50 15
72 17 55 3 -22 7 -27 22 -22z m625 -24 c-25 -24 -31 -26 -37 -12 -13 30 -5 37
47 40 17 1 16 -3 -10 -28z m-928 13 c-3 -3 -12 -4 -19 -1 -8 3 -5 6 6 6 11 1
17 -2 13 -5z m1127 -10 c3 -8 2 -12 -4 -9 -6 3 -10 10 -10 16 0 14 7 11 14 -7z
m-1857 -26 c-3 -7 -5 -2 -5 12 0 14 2 19 5 13 2 -7 2 -19 0 -25z m-68 -22 c-9
-8 -10 -7 -5 7 3 10 7 24 7 30 1 7 3 4 6 -7 3 -10 -1 -23 -8 -30z m684 28 c9
-9 -4 -35 -14 -28 -5 3 -9 -15 -9 -40 0 -39 -3 -46 -20 -46 -11 0 -20 5 -20
10 0 6 -7 10 -15 10 -9 0 -16 10 -16 25 -1 14 -2 30 -3 37 -2 17 83 46 97 32z
m1067 -5 c0 -6 -8 -13 -19 -16 -14 -3 -17 -12 -15 -39 1 -21 -2 -34 -10 -34
-7 0 -11 -12 -11 -27 1 -16 -3 -34 -8 -41 -7 -9 -5 -11 9 -6 19 7 19 7 0 -14
-11 -12 -15 -22 -11 -22 5 0 4 -5 -3 -12 -7 -7 -12 -20 -12 -31 0 -10 -4 -15
-10 -12 -5 3 -10 -3 -10 -14 0 -12 -4 -21 -10 -21 -15 0 -12 22 9 71 10 24 19
66 20 92 1 27 6 60 12 74 5 14 8 28 5 30 -9 9 -47 -43 -45 -62 2 -35 -1 -46
-11 -40 -14 9 -12 55 3 85 9 17 21 25 40 25 15 1 32 6 39 13 15 15 38 16 38 1z
m-1465 -9 c4 -6 10 -8 15 -5 5 3 5 -8 0 -25 -5 -18 -5 -30 1 -30 5 0 7 -13 4
-30 -4 -21 -1 -30 9 -30 7 0 19 -7 26 -15 14 -16 60 -21 60 -6 0 5 -9 13 -21
16 -16 5 -18 9 -8 21 10 12 10 17 0 27 -10 9 -11 8 -5 -7 5 -13 4 -17 -4 -12
-19 11 -14 34 8 41 11 3 20 13 20 21 0 10 14 14 53 15 28 0 65 2 82 4 16 2 33
-1 37 -8 15 -23 8 -71 -13 -94 -12 -12 -30 -46 -40 -75 -16 -47 -18 -50 -19
-21 0 17 4 43 10 57 7 20 6 26 -5 26 -8 0 -19 -8 -25 -17 -9 -16 -13 -15 -40
17 -17 19 -30 29 -30 24 0 -18 48 -64 67 -64 16 -1 16 -2 -2 -15 -56 -40 -59
-55 -12 -55 27 -1 30 -3 17 -13 -8 -7 -24 -30 -35 -52 -11 -22 -24 -44 -30
-48 -5 -5 13 -6 40 -2 36 4 46 3 35 -4 -8 -6 -36 -14 -62 -17 -33 -4 -48 -11
-48 -21 0 -44 -80 -117 -102 -95 -6 6 -12 28 -14 49 -1 21 -3 40 -4 43 -1 3
-2 39 -2 80 1 54 -2 70 -9 55 -6 -14 -8 -6 -3 28 6 53 29 106 37 85 3 -9 8
-10 16 -3 10 11 9 17 -17 95 -3 8 -4 19 -3 23 1 5 -3 6 -9 2 -5 -3 -10 2 -10
13 0 30 22 43 35 22z m-629 -49 c-3 -20 -6 -44 -6 -53 0 -20 -28 -17 -61 5
-19 14 -19 15 16 23 39 10 44 29 8 29 -29 -1 -29 9 -1 22 41 18 51 13 44 -26z
m411 17 c-3 -8 -6 -5 -6 6 -1 11 2 17 5 13 3 -3 4 -12 1 -19z m1143 -62 c0
-80 -1 -84 -20 -79 -19 5 -20 7 -5 29 9 14 15 46 15 79 0 30 2 55 5 55 3 0 5
-38 5 -84z m290 65 c48 -12 66 -28 54 -48 -6 -10 -22 -20 -35 -24 l-24 -5 23
-8 c13 -4 26 -5 29 -2 4 3 17 -1 29 -9 13 -8 30 -12 39 -8 10 3 21 0 26 -8 13
-21 11 -39 -5 -33 -17 7 -40 -31 -30 -48 4 -7 3 -8 -4 -4 -7 4 -12 2 -12 -4 0
-6 6 -13 14 -16 8 -3 17 -17 20 -30 4 -14 11 -22 16 -19 5 3 12 0 16 -6 4 -8
3 -9 -4 -5 -16 10 -15 -9 3 -47 14 -29 14 -30 0 -13 -21 27 -19 7 5 -54 23
-59 19 -65 -9 -12 -20 36 -20 36 -21 9 0 -15 7 -43 15 -63 8 -19 10 -32 5 -29
-14 9 -12 -1 7 -38 15 -31 15 -31 -2 -17 -16 14 -17 12 -10 -20 4 -19 7 -37 7
-40 1 -22 -4 -30 -17 -30 -8 0 -15 -4 -15 -10 0 -5 -7 -10 -15 -10 -8 0 -15
-4 -15 -10 0 -13 27 -26 70 -34 41 -7 140 -48 140 -57 0 -7 -13 -11 -114 -30
l-68 -13 -30 37 c-17 20 -35 37 -41 37 -7 0 -12 18 -12 44 0 36 -6 51 -30 78
-16 18 -21 25 -9 15 28 -23 31 -22 50 15 23 45 15 185 -15 250 -11 26 -21 56
-21 67 0 24 -18 28 -26 6 -4 -8 -12 -15 -20 -15 -8 0 -14 -4 -14 -9 0 -16 39
0 43 18 3 11 5 10 6 -6 1 -16 -6 -23 -29 -28 -17 -4 -30 -13 -30 -21 0 -9 5
-12 10 -9 6 3 15 3 21 -1 14 -8 -8 -24 -35 -24 -16 0 -18 6 -14 62 3 35 3 57
0 50 -7 -23 -22 -12 -16 12 3 15 -4 44 -20 80 -20 45 -24 65 -19 101 l6 45 51
-1 c28 -1 62 -4 76 -8z m-1241 -71 c-1 -23 -3 -27 -6 -12 -5 26 -18 28 -32 5
-6 -10 -11 -13 -11 -6 0 6 4 14 9 17 5 4 7 20 4 37 -4 29 -4 30 16 12 15 -12
21 -28 20 -53z m-89 50 c0 -5 -5 -10 -11 -10 -5 0 -7 5 -4 10 3 6 8 10 11 10
2 0 4 -4 4 -10z m524 -51 c9 -90 8 -155 -3 -143 -12 12 -24 204 -13 204 5 0
12 -28 16 -61z m582 2 c0 -11 -5 -17 -13 -14 -17 6 -17 20 0 26 6 3 12 6 12 6
1 1 1 -7 1 -18z m614 -36 c0 -5 -5 -3 -10 5 -5 8 -10 20 -10 25 0 6 5 3 10 -5
5 -8 10 -19 10 -25z m-1313 -5 c3 -11 12 -20 19 -20 8 0 14 -10 14 -25 0 -25
0 -25 33 -10 l32 16 -29 -24 c-18 -16 -24 -27 -17 -31 6 -4 11 -11 11 -16 0
-14 -86 -6 -104 9 -21 17 -21 71 -1 71 9 0 15 9 15 25 0 30 20 33 27 5z m163
6 c0 -3 -4 -8 -10 -11 -5 -3 -10 -1 -10 4 0 6 5 11 10 11 6 0 10 -2 10 -4z
m1214 -17 c-3 -5 0 -9 5 -9 6 0 11 4 11 9 0 5 9 7 21 4 14 -4 19 -12 17 -27
-4 -28 -81 -41 -115 -18 -21 13 -23 13 -23 -2 0 -10 4 -14 10 -11 6 3 7 -1 4
-10 -4 -9 2 -25 11 -35 10 -11 13 -20 8 -20 -6 0 -14 7 -17 16 -5 12 -13 14
-34 9 -24 -5 -25 -5 -10 7 9 7 18 28 20 47 2 24 8 35 21 37 11 1 21 5 23 7 9
8 54 5 48 -4z m-630 -5 c9 -3 16 -10 16 -16 0 -5 -6 -6 -12 -2 -10 6 -10 4 0
-8 10 -12 10 -18 1 -23 -8 -6 -6 -11 6 -18 15 -8 22 -5 37 13 l18 22 0 -26 c0
-31 -67 -109 -114 -133 -57 -29 -178 -63 -227 -63 -42 0 -49 -3 -49 -20 0 -11
-4 -20 -9 -20 -5 0 -4 16 1 38 6 20 13 64 15 96 5 60 23 62 23 3 0 -37 25 -45
61 -18 17 13 37 20 45 17 22 -9 17 2 -18 33 -26 23 -39 28 -62 24 -22 -5 -28
-3 -24 8 2 8 17 15 32 17 21 3 36 -5 62 -32 19 -19 34 -43 34 -53 1 -17 2 -16
17 2 11 15 14 15 10 3 -7 -21 19 -58 30 -42 5 6 19 15 32 19 21 6 22 9 8 17
-10 5 -17 14 -17 20 0 7 5 6 15 -2 11 -10 22 -6 54 17 39 27 51 43 32 43 -6 0
-13 -4 -16 -10 -11 -18 -23 -10 -30 20 -4 16 -15 32 -26 35 -10 4 -19 11 -19
16 0 11 16 4 43 -19 16 -14 17 -13 17 11 0 19 -6 27 -22 30 -23 4 -23 4 -1 6
12 0 28 -2 37 -5z m-1219 -54 c22 18 30 -31 18 -109 -6 -36 -7 -75 -3 -86 5
-15 0 -23 -24 -35 -30 -15 -32 -15 -67 12 l-37 28 6 -45 c3 -27 1 -45 -5 -45
-6 0 -13 28 -17 63 -12 104 -19 139 -25 128 -4 -6 -8 14 -9 44 -1 32 2 55 8
55 5 0 10 -5 10 -11 0 -15 60 -3 78 15 12 12 17 11 34 -6 15 -15 22 -17 33 -8z
m122 8 c-3 -8 -6 -5 -6 6 -1 11 2 17 5 13 3 -3 4 -12 1 -19z m790 -15 c-3 -10
-5 -4 -5 12 0 17 2 24 5 18 2 -7 2 -21 0 -30z m142 33 c-2 -2 -15 -9 -29 -15
-24 -11 -24 -11 -6 3 16 13 49 24 35 12z m39 -60 c-2 -12 -8 -10 -28 6 -24 20
-24 20 -2 14 17 -6 22 -3 23 11 1 17 2 17 6 1 2 -10 3 -24 1 -32z m892 -4 c0
-4 -12 -9 -27 -10 -22 -1 -24 0 -13 8 18 12 40 13 40 2z m-233 -18 c-3 -3 -12
-4 -19 -1 -8 3 -5 6 6 6 11 1 17 -2 13 -5z m153 -4 c34 0 37 -2 33 -21 -4 -14
-8 -17 -13 -9 -5 9 -9 9 -14 1 -4 -6 -4 -11 1 -11 4 0 16 -14 25 -30 9 -16 32
-39 50 -51 l33 -21 -29 7 c-26 5 -28 4 -17 -9 8 -9 28 -15 49 -15 51 1 92 -7
106 -21 8 -9 -1 -10 -39 -5 -116 14 -111 11 -177 93 l-63 76 -6 -49 c-7 -47
-18 -147 -19 -170 0 -5 -7 1 -15 15 -17 29 -20 18 -4 -12 6 -12 13 -40 14 -63
l3 -41 -34 4 c-21 3 -31 8 -27 15 4 6 0 8 -10 4 -24 -9 -93 18 -89 34 2 8 8
57 13 109 5 52 16 110 26 128 16 31 19 32 72 31 36 -2 56 2 59 10 2 7 11 10
19 7 8 -3 32 -6 53 -6z m264 -16 c32 -14 55 -28 53 -31 -3 -2 -29 8 -57 22
-38 19 -56 23 -63 16 -13 -13 -77 -15 -77 -2 0 6 19 12 43 14 23 2 43 4 43 5
1 1 27 -10 58 -24z m-1654 -4 c0 -5 -7 -10 -15 -10 -8 0 -18 0 -22 -1 -4 0 -9
4 -11 10 -2 6 8 11 22 11 14 0 26 -4 26 -10z m1639 -14 c37 -20 53 -40 45 -60
-9 -23 -44 -20 -71 6 -22 21 -30 48 -16 61 9 9 10 9 42 -7z m-185 -11 c-10 -8
-23 -14 -29 -14 -5 0 -1 6 9 14 11 8 24 15 30 15 5 0 1 -7 -10 -15z m307 -7
c-4 -12 -14 -24 -22 -26 -11 -3 -11 -1 1 7 13 9 13 11 1 11 -11 0 -9 4 5 15
25 19 25 19 15 -7z m-876 -8 c-3 -5 -12 -10 -18 -10 -7 0 -6 4 3 10 19 12 23
12 15 0z m-994 -94 l16 -44 -60 -11 c-34 -6 -62 -9 -63 -8 -2 1 -7 22 -13 45
-6 31 -6 42 2 39 6 -2 14 -14 18 -28 3 -13 11 -23 17 -21 7 1 12 -3 12 -9 0
-6 8 -3 18 7 15 16 17 16 20 1 2 -9 9 -14 18 -10 13 5 13 8 1 22 -22 25 -31
61 -15 61 7 0 20 -20 29 -44z m954 29 l50 -14 -63 5 c-44 4 -62 2 -57 -5 3 -6
16 -12 28 -12 17 -1 15 -3 -8 -9 -30 -7 -23 -15 19 -22 11 -2 21 -8 23 -14 2
-7 -11 -9 -42 -4 -25 4 -47 9 -49 11 -3 2 1 21 7 42 13 41 17 42 92 22z m745
-10 c19 -14 30 -25 24 -25 -10 1 -73 50 -63 50 3 0 20 -11 39 -25z m-1770 5
c0 -5 -5 -10 -11 -10 -5 0 -7 5 -4 10 3 6 8 10 11 10 2 0 4 -4 4 -10z m790 3
c-27 -10 -70 -56 -70 -75 0 -24 11 -23 71 8 27 15 52 25 54 22 7 -7 -100 -58
-122 -58 -16 0 -20 7 -21 35 -2 46 26 75 71 74 17 0 25 -3 17 -6z m-775 -22
c-3 -6 -14 -11 -23 -11 -13 0 -13 2 4 14 21 15 30 14 19 -3z m1020 -21 c3 -5
2 -10 -4 -10 -5 0 -13 5 -16 10 -3 6 -2 10 4 10 5 0 13 -4 16 -10z m-128 -30
c16 0 42 -17 76 -51 l52 -52 -47 37 c-57 45 -69 46 -29 4 17 -18 31 -37 31
-43 0 -5 -5 -3 -10 5 -5 8 -10 11 -10 7 0 -5 -12 -1 -27 7 -40 21 -95 37 -88
26 4 -6 12 -10 20 -10 8 0 17 -5 20 -10 4 -7 -3 -9 -22 -6 -26 5 -26 5 3 -5
17 -6 43 -21 58 -33 l27 -21 -33 2 c-18 1 -36 2 -40 2 -4 1 -5 7 -2 15 11 29
-54 30 -83 0 -17 -16 -17 -38 0 -28 6 4 3 -3 -8 -16 -19 -23 -19 -23 -1 -16
20 7 20 7 0 -15 -10 -11 -18 -29 -16 -39 2 -14 -3 -18 -18 -17 -12 1 -19 6
-16 14 3 7 2 12 -2 12 -18 -3 -22 3 -12 20 9 18 8 19 -20 11 -36 -10 -38 -5
-7 20 16 14 19 21 11 30 -9 9 -17 9 -33 0 -25 -13 -73 -3 -50 11 8 4 18 4 23
-1 5 -5 19 4 34 21 14 17 31 28 38 25 8 -4 21 -9 29 -12 10 -4 19 6 31 35 18
46 60 85 82 76 7 -3 25 -5 39 -5z m-1167 -39 c0 -14 -13 -21 -59 -31 -85 -18
-95 -8 -20 23 78 32 79 32 79 8z m424 -36 c22 -17 22 -17 -21 -39 -44 -22 -50
-21 -101 21 l-45 37 49 16 c53 17 51 18 118 -35z m253 49 c-3 -3 -12 -4 -19
-1 -8 3 -5 6 6 6 11 1 17 -2 13 -5z m169 -12 c-16 -2 -32 0 -37 5 -5 5 7 7 29
4 34 -5 35 -6 8 -9z m77 11 c-7 -2 -21 -2 -30 0 -10 3 -4 5 12 5 17 0 24 -2
18 -5z m-793 -23 c0 -5 -2 -10 -4 -10 -3 0 -8 5 -11 10 -3 6 -1 10 4 10 6 0
11 -4 11 -10z m910 0 c0 -5 -4 -10 -9 -10 -6 0 -13 5 -16 10 -3 6 1 10 9 10 9
0 16 -4 16 -10z m-451 -19 c24 -15 1 -34 -35 -28 -19 3 -36 1 -39 -4 -4 -5 8
-9 25 -9 25 0 31 -4 28 -17 -2 -13 -15 -19 -46 -21 -23 -2 -42 0 -42 3 0 3 10
24 23 45 22 41 53 52 86 31z m143 -20 c4 -3 3 -13 -2 -21 -8 -12 -10 -12 -10
-1 0 11 -3 11 -15 1 -13 -11 -14 -10 -8 6 5 15 4 17 -8 8 -16 -12 -89 -16 -89
-5 0 21 27 29 74 24 28 -3 54 -8 58 -12z m1278 10 c0 -5 -9 -7 -20 -4 -11 3
-20 7 -20 9 0 2 9 4 20 4 11 0 20 -4 20 -9z m-1094 -37 c17 -14 17 -15 1 -10
-10 3 -28 1 -39 -5 -27 -14 -38 -1 -14 17 25 18 28 18 52 -2z m1389 -14 c10
-11 16 -20 13 -20 -3 0 -13 9 -23 20 -10 11 -16 20 -13 20 3 0 13 -9 23 -20z
m-1675 -10 c-9 -17 -50 -30 -50 -16 0 20 16 36 36 36 22 0 23 -3 14 -20z m125
0 c16 -26 -3 -37 -54 -30 -55 7 -67 13 -56 29 8 14 102 14 110 1z m833 -32
c18 -18 14 -28 -11 -28 -30 0 -40 10 -26 27 14 16 22 16 37 1z m702 -8 c0 -5
-2 -10 -4 -10 -3 0 -8 5 -11 10 -3 6 -1 10 4 10 6 0 11 -4 11 -10z m-1220 -40
c0 -5 -5 -10 -11 -10 -5 0 -7 5 -4 10 3 6 8 10 11 10 2 0 4 -4 4 -10z m840
-32 l45 -41 -51 36 c-28 20 -54 34 -58 30 -3 -3 -6 -1 -6 5 0 22 25 11 70 -30z
m-2431 -20 c-8 -15 -14 -18 -17 -10 -3 10 -11 7 -28 -9 -13 -12 -24 -18 -24
-12 0 19 66 68 78 57 2 -1 -2 -13 -9 -26z m342 9 c37 -15 46 -23 42 -38 -8
-30 -24 -34 -19 -5 3 15 1 24 -5 21 -5 -4 -9 -13 -9 -21 0 -8 -4 -12 -10 -9
-5 3 -10 15 -10 27 0 16 -5 19 -24 14 -27 -7 -57 18 -34 27 7 3 15 5 18 4 3
-1 26 -10 51 -20z m1074 13 c-3 -5 -10 -10 -16 -10 -5 0 -9 5 -9 10 0 6 7 10
16 10 8 0 12 -4 9 -10z m65 -6 c0 -8 -4 -12 -10 -9 -5 3 -10 10 -10 16 0 5 5
9 10 9 6 0 10 -7 10 -16z m877 -6 c-3 -8 -6 -5 -6 6 -1 11 2 17 5 13 3 -3 4
-12 1 -19z m-917 -5 c-1 -19 -16 -31 -29 -24 -7 5 -10 14 -7 20 8 12 36 15 36
4z m915 -23 c3 -5 1 -10 -4 -10 -6 0 -11 5 -11 10 0 6 2 10 4 10 3 0 8 -4 11
-10z m-1948 -30 c-26 -22 -32 -19 -18 9 7 12 17 18 26 15 12 -5 10 -10 -8 -24z
m2138 9 c15 -7 12 -8 -14 -4 -24 4 -40 0 -54 -12 -19 -18 -20 -17 -8 5 12 23
41 28 76 11z m-2395 -59 c4 -3 13 -16 20 -30 9 -19 5 -17 -18 10 -17 19 -31
42 -31 50 0 10 3 9 11 -5 6 -11 14 -22 18 -25z m1987 -1 c68 -27 92 -34 126
-38 4 -1 7 -6 7 -12 0 -8 -4 -8 -14 0 -12 10 -17 8 -25 -7 -9 -16 -7 -21 9
-25 24 -6 28 -47 4 -47 -11 0 -14 -5 -9 -17 4 -10 17 -46 29 -80 14 -40 26
-61 36 -61 8 1 35 0 60 -2 33 -2 38 -4 18 -7 -31 -5 -36 -18 -12 -27 9 -4 14
-9 11 -13 -4 -3 -13 -1 -21 6 -11 9 -15 8 -20 -4 -9 -25 -50 -15 -54 13 -3 17
-10 22 -34 22 -22 0 -29 -4 -25 -14 4 -11 -1 -14 -21 -12 -33 3 -63 -20 -55
-42 4 -12 1 -11 -10 3 -11 15 -12 22 -4 27 9 6 8 11 -3 18 -13 8 -13 11 -1 19
22 14 4 33 -20 21 -15 -9 -17 -15 -9 -30 5 -10 6 -21 2 -24 -18 -11 -45 3 -79
40 -22 23 -38 34 -40 27 -3 -7 8 -23 23 -37 20 -17 29 -34 29 -59 1 -20 -2
-34 -7 -31 -5 4 -7 13 -3 21 3 9 3 24 -1 35 -6 19 -6 19 -20 1 -9 -12 -13 -14
-14 -4 0 7 -6 11 -14 8 -9 -4 -16 1 -18 10 -2 13 -17 17 -66 19 -34 1 -64 3
-66 5 -2 2 -7 26 -11 53 l-8 48 62 -7 c37 -4 61 -3 61 3 0 5 -12 7 -26 4 -21
-4 -25 -1 -22 14 5 29 36 54 67 54 17 0 33 5 36 10 3 6 2 10 -4 10 -6 0 -19
17 -29 38 l-19 39 34 21 c18 12 42 22 52 22 11 0 23 5 26 10 8 13 3 14 92 -21z
m-2047 -9 c0 -5 -2 -10 -4 -10 -3 0 -8 5 -11 10 -3 6 -1 10 4 10 6 0 11 -4 11
-10z m-213 -72 c-3 -7 -5 -2 -5 12 0 14 2 19 5 13 2 -7 2 -19 0 -25z m2580
-10 c-3 -7 -5 -2 -5 12 0 14 2 19 5 13 2 -7 2 -19 0 -25z m-17 -118 c-7 -44
-16 -82 -20 -85 -4 -3 -4 14 1 38 4 23 11 64 14 90 4 27 9 46 12 43 3 -3 0
-41 -7 -86z m-633 35 c0 -8 -4 -12 -9 -9 -5 3 -6 10 -3 15 9 13 12 11 12 -6z
m-237 -22 c12 -15 20 -38 18 -52 -3 -25 -5 -26 -78 -26 l-75 0 -3 40 c-4 49
15 65 74 65 34 0 47 -5 64 -27z m170 -7 c0 -2 -8 -10 -17 -17 -16 -13 -17 -12
-4 4 13 16 21 21 21 13z m-981 -102 c3 -2 0 -9 -6 -15 -8 -8 -18 -5 -35 11
l-23 23 30 -8 c16 -3 32 -9 34 -11z m708 -10 c-3 -3 -12 -4 -19 -1 -8 3 -5 6
6 6 11 1 17 -2 13 -5z m420 -14 c-1 -23 -32 -27 -40 -6 -4 10 2 16 16 19 12 2
23 5 24 6 1 0 1 -8 0 -19z m-698 -52 c-1 -68 -6 -61 -11 15 -2 26 0 47 4 47 5
0 7 -28 7 -62z m541 52 c0 -5 -4 -10 -10 -10 -5 0 -10 5 -10 10 0 6 5 10 10
10 6 0 10 -4 10 -10z m535 0 c3 -6 -1 -7 -9 -4 -18 7 -21 14 -7 14 6 0 13 -4
16 -10z m-1428 -6 c-3 -3 -12 -4 -19 -1 -8 3 -5 6 6 6 11 1 17 -2 13 -5z m513
-4 c0 -5 -5 -10 -11 -10 -5 0 -7 5 -4 10 3 6 8 10 11 10 2 0 4 -4 4 -10z
m-470 -10 c8 -5 12 -11 10 -14 -3 -2 -14 2 -24 10 -22 15 -10 19 14 4z m1347
4 c-3 -3 -12 -4 -19 -1 -8 3 -5 6 6 6 11 1 17 -2 13 -5z m-2181 -29 c-9 -9
-16 -13 -16 -8 0 12 22 34 28 28 2 -2 -3 -11 -12 -20z m2059 15 c-3 -5 -12
-10 -18 -10 -7 0 -6 4 3 10 19 12 23 12 15 0z m-1022 -35 c10 0 36 -44 37 -60
0 -5 -12 4 -28 21 -15 17 -35 34 -44 37 -10 4 -18 11 -18 17 0 7 8 6 23 -2 12
-7 26 -12 30 -13z m142 15 c3 -5 1 -10 -4 -10 -6 0 -11 5 -11 10 0 6 2 10 4
10 3 0 8 -4 11 -10z m65 0 c0 -5 -4 -10 -10 -10 -5 0 -10 5 -10 10 0 6 5 10
10 10 6 0 10 -4 10 -10z m239 -6 c2 -2 -12 -3 -32 -2 -20 1 -34 5 -31 10 5 7
52 1 63 -8z m51 0 c0 -2 -9 -4 -21 -4 -11 0 -18 4 -14 10 5 8 35 3 35 -6z
m-170 -22 c0 -28 -2 -27 -18 4 -9 16 -8 21 4 21 8 0 14 -10 14 -25z m-1380 -7
c0 -8 -4 -16 -9 -19 -5 -3 -8 5 -7 18 1 25 16 26 16 1z m2424 9 c3 -8 2 -12
-4 -9 -6 3 -10 10 -10 16 0 14 7 11 14 -7z m-454 -25 c0 -5 -4 -9 -10 -9 -5 0
-10 7 -10 16 0 8 5 12 10 9 6 -3 10 -10 10 -16z m-757 4 c-7 -2 -19 -2 -25 0
-7 3 -2 5 12 5 14 0 19 -2 13 -5z m94 1 c-3 -3 -12 -4 -19 -1 -8 3 -5 6 6 6
11 1 17 -2 13 -5z m43 2 c0 -11 -19 -15 -25 -6 -3 5 1 10 9 10 9 0 16 -2 16
-4z m-173 -113 c-2 -21 -4 -6 -4 32 0 39 2 55 4 38 2 -18 2 -50 0 -70z m1067
-79 c3 -8 2 -12 -4 -9 -6 3 -10 10 -10 16 0 14 7 11 14 -7z"/>
<path d="M2120 2485 c0 -2 10 -10 23 -16 20 -11 21 -11 8 4 -13 16 -31 23 -31
12z"/>
<path d="M2284 2028 c-10 -15 1 -19 27 -9 13 5 22 10 19 11 -25 7 -41 7 -46
-2z"/>
<path d="M1920 1868 c0 -4 7 -8 15 -8 18 0 20 -16 3 -23 -8 -3 -6 -6 5 -6 11
-1 17 6 17 22 0 16 -6 23 -20 23 -11 0 -20 -4 -20 -8z"/>
<path d="M1923 1794 c-17 -13 -16 -14 12 -8 37 8 39 10 21 17 -8 3 -22 -1 -33
-9z"/>
<path d="M1975 1780 c-3 -5 1 -10 10 -10 9 0 13 5 10 10 -3 6 -8 10 -10 10 -2
0 -7 -4 -10 -10z"/>
<path d="M2287 1690 c16 -28 19 -29 30 -13 18 24 16 30 -9 37 -38 10 -40 7
-21 -24z"/>
<path d="M2711 1736 c-10 -12 -8 -13 8 -9 12 3 18 9 15 14 -7 12 -10 11 -23
-5z"/>
<path d="M2780 1690 c0 -5 5 -10 11 -10 5 0 7 5 4 10 -3 6 -8 10 -11 10 -2 0
-4 -4 -4 -10z"/>
<path d="M1445 1570 c-3 -6 1 -13 9 -16 10 -4 16 -19 17 -38 0 -29 1 -30 10
-8 5 13 7 28 4 32 -3 5 -1 11 5 15 6 4 8 11 5 16 -8 12 -42 12 -50 -1z"/>
<path d="M1481 1441 c-1 -24 2 -32 9 -25 7 7 7 19 1 35 -9 23 -10 22 -10 -10z"/>
<path d="M1480 1384 c0 -8 5 -12 10 -9 6 3 10 10 10 16 0 5 -4 9 -10 9 -5 0
-10 -7 -10 -16z"/>
<path d="M1318 1225 c-34 -29 -35 -35 -4 -35 13 0 40 -11 61 -25 20 -15 39
-24 42 -22 2 3 0 26 -4 53 -8 45 -11 49 -38 51 -20 2 -39 -5 -57 -22z"/>
<path d="M1440 1201 c0 -28 5 -51 10 -51 6 0 10 20 10 44 0 25 -4 48 -10 51
-6 4 -10 -13 -10 -44z"/>
<path d="M750 1290 c0 -5 7 -7 15 -4 8 4 15 8 15 10 0 2 -7 4 -15 4 -8 0 -15
-4 -15 -10z"/>
<path d="M85 1420 c-3 -5 3 -10 14 -10 12 0 21 5 21 10 0 6 -6 10 -14 10 -8 0
-18 -4 -21 -10z"/>
<path d="M1969 1423 c-12 -16 -12 -17 1 -7 8 6 22 14 30 17 13 5 12 6 -1 6 -9
1 -23 -7 -30 -16z"/>
<path d="M2020 1369 c0 -5 5 -7 10 -4 6 3 10 8 10 11 0 2 -4 4 -10 4 -5 0 -10
-5 -10 -11z"/>
<path d="M2075 960 c10 -11 20 -20 23 -20 3 0 -3 9 -13 20 -10 11 -20 20 -23
20 -3 0 3 -9 13 -20z"/>
<path d="M454 1250 c3 -19 8 -54 12 -77 6 -41 7 -42 30 -26 13 8 21 19 18 24
-3 5 -2 9 3 7 4 -1 25 6 47 15 32 14 36 19 26 32 -7 8 -20 15 -29 15 -9 0 -21
4 -26 9 -6 5 -23 11 -40 13 -16 2 -34 8 -38 13 -5 6 -6 -6 -3 -25z m120 -29
c15 -6 16 -9 5 -13 -8 -3 -20 1 -27 8 -14 15 -7 17 22 5z"/>
<path d="M1753 1014 l-28 -25 33 22 c17 13 32 24 32 26 0 8 -11 1 -37 -23z"/>
<path d="M1620 922 c0 -5 11 -19 25 -32 14 -13 25 -29 25 -37 0 -7 5 -13 10
-13 17 0 11 62 -7 76 -20 15 -53 18 -53 6z"/>
<path d="M2200 635 c7 -8 17 -15 22 -15 6 0 5 7 -2 15 -7 8 -17 15 -22 15 -6
0 -5 -7 2 -15z"/>
<path d="M2158 598 c5 -5 16 -8 23 -6 8 3 3 7 -10 11 -17 4 -21 3 -13 -5z"/>
<path d="M2340 566 c0 -2 7 -7 16 -10 8 -3 12 -2 9 4 -6 10 -25 14 -25 6z"/>
<path d="M2154 482 c3 -5 27 -13 52 -17 26 -3 53 -9 60 -12 8 -3 14 -1 14 5 0
5 -21 13 -47 16 -27 4 -56 10 -67 13 -11 3 -16 1 -12 -5z"/>
<path d="M2160 400 c0 -7 28 -40 34 -40 1 0 2 9 2 19 0 11 -8 22 -18 24 -10 3
-18 1 -18 -3z"/>
<path d="M2435 370 c-7 -11 30 -32 39 -23 11 11 6 21 -14 26 -11 3 -22 1 -25
-3z"/>
<path d="M1252 2970 c0 -19 2 -27 5 -17 2 9 2 25 0 35 -3 9 -5 1 -5 -18z"/>
<path d="M1415 2972 c-11 -15 -20 -33 -22 -41 -2 -17 -22 -31 -44 -31 -66 0
-189 -70 -189 -107 0 -8 -10 -24 -22 -35 l-23 -20 25 7 c106 26 533 23 627 -4
26 -7 31 -7 26 5 -3 8 -9 14 -14 14 -5 0 -15 15 -23 34 -19 45 -62 73 -143 94
-82 21 -93 27 -93 53 0 11 -7 22 -15 25 -8 4 -15 12 -15 20 0 26 -53 16 -75
-14z"/>
<path d="M1693 2940 c0 -36 2 -50 4 -32 2 17 2 47 0 65 -2 17 -4 3 -4 -33z"/>
<path d="M1728 2980 c-4 -14 -7 -47 -7 -75 l1 -50 9 40 c6 22 9 56 7 75 -3 32
-4 33 -10 10z"/>
<path d="M1653 2945 c0 -27 2 -38 4 -22 2 15 2 37 0 50 -2 12 -4 0 -4 -28z"/>
<path d="M1435 2570 c-3 -5 3 -10 15 -10 12 0 18 5 15 10 -3 6 -10 10 -15 10
-5 0 -12 -4 -15 -10z"/>
<path d="M1380 2525 c0 -8 -8 -15 -17 -16 -13 0 -11 -3 7 -10 13 -6 38 -9 55
-8 62 4 74 -1 107 -45 18 -24 42 -49 53 -56 11 -7 16 -9 12 -4 -5 5 12 14 40
21 l48 11 -47 1 c-25 1 -48 -3 -50 -9 -1 -5 -30 20 -63 56 -34 35 -58 68 -55
72 3 4 -5 -2 -17 -12 -22 -18 -23 -18 -23 -1 0 18 -1 18 -15 -1 -13 -17 -14
-17 -15 -1 0 21 -20 23 -20 2z"/>
<path d="M1490 2521 c0 -9 30 -24 36 -18 2 1 -6 8 -16 15 -11 7 -20 8 -20 3z"/>
<path d="M1614 2466 c11 -9 24 -16 30 -16 12 0 7 5 -24 19 -24 11 -24 11 -6
-3z"/>
<path d="M1240 2460 c-13 -8 -12 -10 3 -10 9 0 17 5 17 10 0 12 -1 12 -20 0z"/>
<path d="M1220 2419 l-25 -7 24 -1 c20 -1 21 -3 11 -16 -8 -9 -9 -15 -2 -15 6
0 14 5 17 10 4 6 69 11 158 12 l152 1 -146 7 c-80 3 -149 9 -155 12 -5 3 -20
2 -34 -3z"/>
<path d="M285 2370 c-16 -7 -17 -9 -3 -9 9 -1 20 4 23 9 7 11 7 11 -20 0z"/>
<path d="M1585 2310 c3 -5 10 -10 16 -10 5 0 9 5 9 10 0 6 -7 10 -16 10 -8 0
-12 -4 -9 -10z"/>
<path d="M2871 2306 c-19 -23 9 -37 39 -20 l25 14 -30 -7 c-27 -6 -29 -5 -16
10 7 10 9 17 3 17 -5 0 -15 -6 -21 -14z"/>
<path d="M2816 2264 c-4 -9 -4 -19 -1 -22 3 -3 5 -1 5 5 0 6 9 9 20 6 24 -6
27 12 4 21 -21 8 -21 8 -28 -10z"/>
<path d="M2836 2217 c3 -10 9 -15 12 -12 3 3 0 11 -7 18 -10 9 -11 8 -5 -6z"/>
<path d="M2813 2195 c0 -8 4 -12 9 -9 5 3 6 10 3 15 -9 13 -12 11 -12 -6z"/>
<path d="M2750 2180 c0 -5 5 -10 10 -10 6 0 10 5 10 10 0 6 -4 10 -10 10 -5 0
-10 -4 -10 -10z"/>
<path d="M157 2149 c7 -7 15 -10 18 -7 3 3 -2 9 -12 12 -14 6 -15 5 -6 -5z"/>
<path d="M2760 2156 c0 -4 7 -14 15 -22 8 -9 15 -11 15 -6 0 5 -7 15 -15 22
-8 7 -15 9 -15 6z"/>
<path d="M705 2130 c-3 -5 1 -10 9 -10 9 0 16 5 16 10 0 6 -4 10 -9 10 -6 0
-13 -4 -16 -10z"/>
<path d="M60 2100 c0 -5 5 -10 11 -10 5 0 7 5 4 10 -3 6 -8 10 -11 10 -2 0 -4
-4 -4 -10z"/>
<path d="M125 2090 c-10 -16 4 -30 23 -23 14 5 15 3 5 -8 -7 -7 -13 -17 -13
-22 0 -5 8 1 19 14 18 22 19 22 36 6 10 -10 19 -16 22 -13 8 8 -33 42 -45 38
-7 -2 -19 1 -26 8 -10 7 -16 8 -21 0z"/>
<path d="M1971 2024 c0 -11 3 -14 6 -6 3 7 2 16 -1 19 -3 4 -6 -2 -5 -13z"/>
<path d="M2818 2000 c9 -22 20 -40 25 -40 4 0 -2 18 -13 40 -26 52 -33 52 -12
0z"/>
<path d="M276 2021 c-4 -5 -2 -12 3 -15 5 -4 12 -2 15 3 4 5 2 12 -3 15 -5 4
-12 2 -15 -3z"/>
<path d="M1910 2020 c-20 -12 -10 -19 14 -10 11 3 15 9 10 13 -6 3 -16 2 -24
-3z"/>
<path d="M25 1980 c-8 -13 -1 -24 14 -19 6 3 7 10 2 18 -6 10 -10 10 -16 1z"/>
<path d="M60 1969 c0 -5 5 -7 10 -4 6 3 10 8 10 11 0 2 -4 4 -10 4 -5 0 -10
-5 -10 -11z"/>
<path d="M670 1946 c0 -2 7 -6 15 -10 8 -3 15 -1 15 4 0 6 -7 10 -15 10 -8 0
-15 -2 -15 -4z"/>
<path d="M710 1941 c0 -5 6 -14 14 -20 12 -10 13 -8 9 8 -5 21 -23 30 -23 12z"/>
<path d="M756 1933 c-6 -14 -5 -15 5 -6 7 7 10 15 7 18 -3 3 -9 -2 -12 -12z"/>
<path d="M699 1915 c-3 -31 -4 -65 -2 -65 12 0 22 43 14 58 -6 9 -11 13 -12 7z"/>
<path d="M907 1893 c6 -16 13 -16 35 1 16 12 15 13 -11 12 -18 -1 -27 -5 -24
-13z"/>
<path d="M650 1885 c0 -9 9 -15 23 -14 12 0 16 3 9 6 -6 2 -10 9 -6 14 3 5 -2
9 -10 9 -9 0 -16 -7 -16 -15z"/>
<path d="M340 1871 c-8 -6 -19 -7 -25 -4 -5 4 -7 2 -2 -2 4 -5 -3 -20 -15 -34
-18 -19 -14 -18 20 8 23 18 42 35 42 37 0 6 -3 5 -20 -5z"/>
<path d="M961 1841 c0 -7 -7 -11 -15 -8 -10 4 -13 1 -9 -9 3 -7 9 -14 13 -14
5 0 15 -3 24 -6 12 -5 16 0 15 22 0 25 -2 26 -8 9 l-8 -20 -5 20 c-3 11 -6 14
-7 6z"/>
<path d="M154 1728 c-46 -34 -52 -42 -16 -22 31 18 61 44 50 44 -3 0 -18 -10
-34 -22z"/>
<path d="M2560 1621 c0 -5 27 -25 61 -45 57 -34 63 -36 100 -25 48 15 45 24
-3 11 -37 -10 -94 10 -83 28 3 6 -1 7 -10 4 -10 -4 -15 -2 -13 7 2 7 -2 13 -9
14 -6 0 -15 3 -19 8 -10 10 -24 9 -24 -2z"/>
<path d="M2710 1530 c0 -5 5 -10 11 -10 5 0 7 5 4 10 -3 6 -8 10 -11 10 -2 0
-4 -4 -4 -10z"/>
<path d="M326 761 c-3 -5 1 -11 9 -15 15 -6 29 7 18 18 -9 9 -21 8 -27 -3z"/>
<path d="M847 756 c-4 -9 2 -17 14 -21 10 -4 19 -10 19 -15 0 -5 10 -15 23
-21 l22 -11 -23 21 c-12 12 -19 27 -16 33 5 7 1 9 -9 5 -11 -4 -14 -2 -10 9 3
7 1 14 -5 14 -5 0 -12 -7 -15 -14z"/>
<path d="M305 729 c4 -13 12 -28 18 -34 7 -7 8 -4 4 8 -8 21 -4 21 36 1 41
-21 24 -4 -27 26 l-38 23 7 -24z"/>
<path d="M613 670 c-3 -13 -11 -19 -20 -16 -8 4 -11 1 -8 -5 4 -6 13 -8 20 -5
8 3 15 1 17 -3 5 -13 58 -23 58 -11 0 5 -7 10 -16 10 -13 0 -14 3 -5 13 6 8 8
17 4 21 -4 4 -13 -4 -21 -16 l-13 -23 4 22 c7 30 -13 42 -20 13z"/>
<path d="M952 661 c7 -9 14 -18 15 -20 2 -2 3 5 3 16 0 11 -7 20 -15 20 -12 0
-12 -3 -3 -16z"/>
<path d="M485 650 c-3 -5 -2 -10 4 -10 5 0 13 5 16 10 3 6 2 10 -4 10 -5 0
-13 -4 -16 -10z"/>
<path d="M520 649 c0 -5 5 -7 10 -4 6 3 10 8 10 11 0 2 -4 4 -10 4 -5 0 -10
-5 -10 -11z"/>
<path d="M487 599 c-15 -11 -27 -28 -27 -37 0 -12 8 -8 32 15 37 38 33 53 -5
22z"/>
<path d="M1420 605 c-11 -13 -10 -14 4 -9 9 3 16 10 16 15 0 13 -6 11 -20 -6z"/>
<path d="M1250 583 c0 -10 -3 -27 -6 -39 -5 -20 -3 -21 43 -12 26 5 74 11 106
15 50 5 55 7 40 18 -10 8 -22 10 -28 5 -5 -4 -34 -8 -62 -7 -43 0 -51 3 -42
14 6 7 15 10 20 7 5 -3 9 0 9 5 0 6 -12 11 -26 11 -14 0 -23 -3 -21 -7 3 -5 1
-17 -4 -28 -8 -18 -8 -18 -6 4 1 13 -4 26 -10 28 -7 3 -13 -3 -13 -14z"/>
<path d="M1043 573 c9 -2 23 -2 30 0 6 3 -1 5 -18 5 -16 0 -22 -2 -12 -5z"/>
<path d="M968 563 c6 -2 18 -2 25 0 6 3 1 5 -13 5 -14 0 -19 -2 -12 -5z"/>
<path d="M484 523 c9 -9 89 -33 94 -29 3 3 -85 36 -96 36 -3 0 -2 -3 2 -7z"/>
<path d="M1771 514 c0 -11 3 -14 6 -6 3 7 2 16 -1 19 -3 4 -6 -2 -5 -13z"/>
<path d="M1238 444 c-2 -20 -10 -30 -28 -35 -23 -6 -23 -7 -3 -8 12 -1 25 -5
28 -11 3 -5 22 -10 41 -10 19 0 34 5 34 10 0 6 -4 10 -10 10 -5 0 -20 16 -34
36 l-24 36 -4 -28z"/>
<path d="M1150 406 c0 -16 46 -34 57 -22 4 3 -1 6 -10 6 -8 0 -23 7 -31 16
-14 14 -16 14 -16 0z"/>
<path d="M645 390 c-3 -5 -1 -10 4 -10 6 0 11 5 11 10 0 6 -2 10 -4 10 -3 0
-8 -4 -11 -10z"/>
<path d="M29 310 c-21 -17 -22 -21 -9 -30 20 -13 63 -13 95 2 30 13 32 24 6
38 -30 16 -66 12 -92 -10z m57 -1 c11 -19 -13 -34 -31 -19 -13 11 -13 15 -3
21 18 12 26 11 34 -2z"/>
<path d="M2582 58 c6 -18 28 -21 28 -4 0 9 -7 16 -16 16 -9 0 -14 -5 -12 -12z"/>
</g>
</svg>
